<svg version="1.1" xmlns="http://www.w3.org/2000/svg" xmlns:xlink="http://www.w3.org/1999/xlink" width="730" height="436"><defs/><g><g transform="translate(-104,-86) scale(1,1)"><rect fill="#C0C0C0" stroke="none" x="121" y="103" width="284" height="15" opacity="0.2"/></g><g transform="translate(-104,-86) scale(1,1)"><rect fill="#C0C0C0" stroke="none" x="121" y="117" width="710" height="402" opacity="0.2"/></g><g transform="translate(-104,-86) scale(1,1)"><rect fill="#ffffff" stroke="none" x="114" y="111" width="710" height="401"/></g><g transform="translate(-104,-86) scale(1,1)"><path fill="none" stroke="#000000" d="M 114 111 L 824 111 L 824 512 L 114 512 L 114 111 Z Z" stroke-miterlimit="10"/></g><g transform="translate(-104,-86) scale(1,1)"><rect fill="#ffffff" stroke="none" x="114" y="96" width="284" height="15"/></g><g transform="translate(-104,-86) scale(1,1)"><path fill="none" stroke="#000000" d="M 114 96 L 398 96 L 398 111 L 114 111 L 114 96 Z Z" stroke-miterlimit="10"/></g><g transform="translate(-104,-86) scale(1,1)"><rect fill="#ffffff" stroke="none" x="114" y="110" width="710" height="402"/></g><g transform="translate(-104,-86) scale(1,1)"><path fill="none" stroke="#000000" d="M 114 110 L 824 110 L 824 512 L 114 512 L 114 110 Z Z" stroke-miterlimit="10"/></g><g transform="translate(-104,-86) scale(1,1)"><g><path fill="none" stroke="none"/><text fill="#000000" stroke="none" font-family="Arial" font-size="13px" font-style="normal" font-weight="bold" text-decoration="none" x="453.5" y="130.5">client</text></g></g><g transform="translate(-104,-86) scale(1,1)"><g><path fill="none" stroke="none"/><text fill="#000000" stroke="none" font-family="Arial" font-size="13px" font-style="normal" font-weight="normal" text-decoration="none" x="434.5" y="145.5">(from client)</text></g></g><g transform="translate(-104,-86) scale(1,1)"><rect fill="#C0C0C0" stroke="none" x="487" y="351" width="86.39999999999998" height="15" opacity="0.2"/></g><g transform="translate(-104,-86) scale(1,1)"><rect fill="#C0C0C0" stroke="none" x="487" y="365" width="216" height="132" opacity="0.2"/></g><g transform="translate(-104,-86) scale(1,1)"><rect fill="#ffffff" stroke="none" x="480" y="359" width="216" height="131"/></g><g transform="translate(-104,-86) scale(1,1)"><path fill="none" stroke="#000000" d="M 480 359 L 696 359 L 696 490 L 480 490 L 480 359 Z Z" stroke-miterlimit="10"/></g><g transform="translate(-104,-86) scale(1,1)"><rect fill="#ffffff" stroke="none" x="480" y="344" width="86.39999999999998" height="15"/></g><g transform="translate(-104,-86) scale(1,1)"><path fill="none" stroke="#000000" d="M 480 344 L 566.4 344 L 566.4 359 L 480 359 L 480 344 Z Z" stroke-miterlimit="10"/></g><g transform="translate(-104,-86) scale(1,1)"><rect fill="#ffffff" stroke="none" x="480" y="358" width="216" height="132"/></g><g transform="translate(-104,-86) scale(1,1)"><path fill="none" stroke="#000000" d="M 480 358 L 696 358 L 696 490 L 480 490 L 480 358 Z Z" stroke-miterlimit="10"/></g><g transform="translate(-104,-86) scale(1,1)"><g><path fill="none" stroke="none"/><text fill="#000000" stroke="none" font-family="Arial" font-size="13px" font-style="normal" font-weight="bold" text-decoration="none" x="548.5" y="378.5">viewcontroller</text></g></g><g transform="translate(-104,-86) scale(1,1)"><rect fill="#C0C0C0" stroke="none" x="359" y="406" width="35.60000000000002" height="15" opacity="0.2"/></g><g transform="translate(-104,-86) scale(1,1)"><rect fill="#C0C0C0" stroke="none" x="359" y="420" width="89" height="40" opacity="0.2"/></g><g transform="translate(-104,-86) scale(1,1)"><rect fill="#ffffff" stroke="none" x="352" y="414" width="89" height="39"/></g><g transform="translate(-104,-86) scale(1,1)"><path fill="none" stroke="#000000" d="M 352 414 L 441 414 L 441 453 L 352 453 L 352 414 Z Z" stroke-miterlimit="10"/></g><g transform="translate(-104,-86) scale(1,1)"><rect fill="#ffffff" stroke="none" x="352" y="399" width="35.60000000000002" height="15"/></g><g transform="translate(-104,-86) scale(1,1)"><path fill="none" stroke="#000000" d="M 352 399 L 387.6 399 L 387.6 414 L 352 414 L 352 399 Z Z" stroke-miterlimit="10"/></g><g transform="translate(-104,-86) scale(1,1)"><rect fill="#ffffff" stroke="none" x="352" y="413" width="89" height="40"/></g><g transform="translate(-104,-86) scale(1,1)"><path fill="none" stroke="#000000" d="M 352 413 L 441 413 L 441 453 L 352 453 L 352 413 Z Z" stroke-miterlimit="10"/></g><g transform="translate(-104,-86) scale(1,1)"><g><path fill="none" stroke="none"/><text fill="#000000" stroke="none" font-family="Arial" font-size="13px" font-style="normal" font-weight="bold" text-decoration="none" x="359" y="433.5">datamanager</text></g></g><g transform="translate(-104,-86) scale(1,1)"><g><path fill="none" stroke="none"/><text fill="#000000" stroke="none" font-family="Arial" font-size="13px" font-style="normal" font-weight="normal" text-decoration="none" x="365" y="448.5">(from data)</text></g></g><g transform="translate(-104,-86) scale(1,1)"><rect fill="#C0C0C0" stroke="none" x="131" y="175" width="86.4" height="15" opacity="0.2"/></g><g transform="translate(-104,-86) scale(1,1)"><rect fill="#C0C0C0" stroke="none" x="131" y="189" width="216" height="132" opacity="0.2"/></g><g transform="translate(-104,-86) scale(1,1)"><rect fill="#ffffff" stroke="none" x="124" y="183" width="216" height="131"/></g><g transform="translate(-104,-86) scale(1,1)"><path fill="none" stroke="#000000" d="M 124 183 L 340 183 L 340 314 L 124 314 L 124 183 Z Z" stroke-miterlimit="10"/></g><g transform="translate(-104,-86) scale(1,1)"><rect fill="#ffffff" stroke="none" x="124" y="168" width="86.4" height="15"/></g><g transform="translate(-104,-86) scale(1,1)"><path fill="none" stroke="#000000" d="M 124 168 L 210.4 168 L 210.4 183 L 124 183 L 124 168 Z Z" stroke-miterlimit="10"/></g><g transform="translate(-104,-86) scale(1,1)"><rect fill="#ffffff" stroke="none" x="124" y="182" width="216" height="132"/></g><g transform="translate(-104,-86) scale(1,1)"><path fill="none" stroke="#000000" d="M 124 182 L 340 182 L 340 314 L 124 314 L 124 182 Z Z" stroke-miterlimit="10"/></g><g transform="translate(-104,-86) scale(1,1)"><g><path fill="none" stroke="none"/><text fill="#000000" stroke="none" font-family="Arial" font-size="13px" font-style="normal" font-weight="bold" text-decoration="none" x="209.5" y="202.5">location</text></g></g><g transform="translate(-104,-86) scale(1,1)"><rect fill="#C0C0C0" stroke="none" x="364" y="175" width="86.39999999999998" height="15" opacity="0.2"/></g><g transform="translate(-104,-86) scale(1,1)"><rect fill="#C0C0C0" stroke="none" x="364" y="189" width="216" height="132" opacity="0.2"/></g><g transform="translate(-104,-86) scale(1,1)"><rect fill="#ffffff" stroke="none" x="357" y="183" width="216" height="131"/></g><g transform="translate(-104,-86) scale(1,1)"><path fill="none" stroke="#000000" d="M 357 183 L 573 183 L 573 314 L 357 314 L 357 183 Z Z" stroke-miterlimit="10"/></g><g transform="translate(-104,-86) scale(1,1)"><rect fill="#ffffff" stroke="none" x="357" y="168" width="86.39999999999998" height="15"/></g><g transform="translate(-104,-86) scale(1,1)"><path fill="none" stroke="#000000" d="M 357 168 L 443.4 168 L 443.4 183 L 357 183 L 357 168 Z Z" stroke-miterlimit="10"/></g><g transform="translate(-104,-86) scale(1,1)"><rect fill="#ffffff" stroke="none" x="357" y="182" width="216" height="132"/></g><g transform="translate(-104,-86) scale(1,1)"><path fill="none" stroke="#000000" d="M 357 182 L 573 182 L 573 314 L 357 314 L 357 182 Z Z" stroke-miterlimit="10"/></g><g transform="translate(-104,-86) scale(1,1)"><g><path fill="none" stroke="none"/><text fill="#000000" stroke="none" font-family="Arial" font-size="13px" font-style="normal" font-weight="bold" text-decoration="none" x="427.5" y="202.5">pathprogress</text></g></g><g transform="translate(-104,-86) scale(1,1)"><rect fill="#C0C0C0" stroke="none" x="597" y="175" width="86.39999999999998" height="15" opacity="0.2"/></g><g transform="translate(-104,-86) scale(1,1)"><rect fill="#C0C0C0" stroke="none" x="597" y="189" width="216" height="132" opacity="0.2"/></g><g transform="translate(-104,-86) scale(1,1)"><rect fill="#ffffff" stroke="none" x="590" y="183" width="216" height="131"/></g><g transform="translate(-104,-86) scale(1,1)"><path fill="none" stroke="#000000" d="M 590 183 L 806 183 L 806 314 L 590 314 L 590 183 Z Z" stroke-miterlimit="10"/></g><g transform="translate(-104,-86) scale(1,1)"><rect fill="#ffffff" stroke="none" x="590" y="168" width="86.39999999999998" height="15"/></g><g transform="translate(-104,-86) scale(1,1)"><path fill="none" stroke="#000000" d="M 590 168 L 676.4 168 L 676.4 183 L 590 183 L 590 168 Z Z" stroke-miterlimit="10"/></g><g transform="translate(-104,-86) scale(1,1)"><rect fill="#ffffff" stroke="none" x="590" y="182" width="216" height="132"/></g><g transform="translate(-104,-86) scale(1,1)"><path fill="none" stroke="#000000" d="M 590 182 L 806 182 L 806 314 L 590 314 L 590 182 Z Z" stroke-miterlimit="10"/></g><g transform="translate(-104,-86) scale(1,1)"><g><path fill="none" stroke="none"/><text fill="#000000" stroke="none" font-family="Arial" font-size="13px" font-style="normal" font-weight="bold" text-decoration="none" x="669.5" y="202.5">urlrequest</text></g></g><g transform="translate(-104,-86) scale(1,1)"><rect fill="#C0C0C0" stroke="none" x="247" y="351" width="86.39999999999998" height="15" opacity="0.2"/></g><g transform="translate(-104,-86) scale(1,1)"><rect fill="#C0C0C0" stroke="none" x="247" y="365" width="216" height="132" opacity="0.2"/></g><g transform="translate(-104,-86) scale(1,1)"><rect fill="#ffffff" stroke="none" x="240" y="359" width="216" height="131"/></g><g transform="translate(-104,-86) scale(1,1)"><path fill="none" stroke="#000000" d="M 240 359 L 456 359 L 456 490 L 240 490 L 240 359 Z Z" stroke-miterlimit="10"/></g><g transform="translate(-104,-86) scale(1,1)"><rect fill="#ffffff" stroke="none" x="240" y="344" width="86.39999999999998" height="15"/></g><g transform="translate(-104,-86) scale(1,1)"><path fill="none" stroke="#000000" d="M 240 344 L 326.4 344 L 326.4 359 L 240 359 L 240 344 Z Z" stroke-miterlimit="10"/></g><g transform="translate(-104,-86) scale(1,1)"><rect fill="#ffffff" stroke="none" x="240" y="358" width="216" height="132"/></g><g transform="translate(-104,-86) scale(1,1)"><path fill="none" stroke="#000000" d="M 240 358 L 456 358 L 456 490 L 240 490 L 240 358 Z Z" stroke-miterlimit="10"/></g><g transform="translate(-104,-86) scale(1,1)"><g><path fill="none" stroke="none"/><text fill="#000000" stroke="none" font-family="Arial" font-size="13px" font-style="normal" font-weight="bold" text-decoration="none" x="335.5" y="378.5">data</text></g></g><g transform="translate(-104,-86) scale(1,1)"><rect fill="#C0C0C0" stroke="none" x="359" y="431" width="35.60000000000002" height="15" opacity="0.2"/></g><g transform="translate(-104,-86) scale(1,1)"><rect fill="#C0C0C0" stroke="none" x="359" y="445" width="89" height="40" opacity="0.2"/></g><g transform="translate(-104,-86) scale(1,1)"><rect fill="#ffffff" stroke="none" x="352" y="439" width="89" height="39"/></g><g transform="translate(-104,-86) scale(1,1)"><path fill="none" stroke="#000000" d="M 352 439 L 441 439 L 441 478 L 352 478 L 352 439 Z Z" stroke-miterlimit="10"/></g><g transform="translate(-104,-86) scale(1,1)"><rect fill="#ffffff" stroke="none" x="352" y="424" width="35.60000000000002" height="15"/></g><g transform="translate(-104,-86) scale(1,1)"><path fill="none" stroke="#000000" d="M 352 424 L 387.6 424 L 387.6 439 L 352 439 L 352 424 Z Z" stroke-miterlimit="10"/></g><g transform="translate(-104,-86) scale(1,1)"><rect fill="#ffffff" stroke="none" x="352" y="438" width="89" height="40"/></g><g transform="translate(-104,-86) scale(1,1)"><path fill="none" stroke="#000000" d="M 352 438 L 441 438 L 441 478 L 352 478 L 352 438 Z Z" stroke-miterlimit="10"/></g><g transform="translate(-104,-86) scale(1,1)"><g><path fill="none" stroke="none"/><text fill="#000000" stroke="none" font-family="Arial" font-size="13px" font-style="normal" font-weight="bold" text-decoration="none" x="359" y="458.5">datamanager</text></g></g><g transform="translate(-104,-86) scale(1,1)"><g><path fill="none" stroke="none"/><text fill="#000000" stroke="none" font-family="Arial" font-size="13px" font-style="normal" font-weight="normal" text-decoration="none" x="365" y="473.5">(from data)</text></g></g></g></svg>