<svg version="1.1" xmlns="http://www.w3.org/2000/svg" xmlns:xlink="http://www.w3.org/1999/xlink" width="749" height="676"><defs/><g><g transform="translate(-45,-38) scale(1,1)"><rect fill="#C0C0C0" stroke="none" x="62" y="55" width="291.6" height="15" opacity="0.2"/></g><g transform="translate(-45,-38) scale(1,1)"><rect fill="#C0C0C0" stroke="none" x="62" y="69" width="729" height="642" opacity="0.2"/></g><g transform="translate(-45,-38) scale(1,1)"><rect fill="#ffffff" stroke="none" x="55" y="63" width="729" height="641"/></g><g transform="translate(-45,-38) scale(1,1)"><path fill="none" stroke="#000000" d="M 55 63 L 784 63 L 784 704 L 55 704 L 55 63 Z Z" stroke-miterlimit="10"/></g><g transform="translate(-45,-38) scale(1,1)"><rect fill="#ffffff" stroke="none" x="55" y="48" width="291.6" height="15"/></g><g transform="translate(-45,-38) scale(1,1)"><path fill="none" stroke="#000000" d="M 55 48 L 346.6 48 L 346.6 63 L 55 63 L 55 48 Z Z" stroke-miterlimit="10"/></g><g transform="translate(-45,-38) scale(1,1)"><rect fill="#ffffff" stroke="none" x="55" y="62" width="729" height="642"/></g><g transform="translate(-45,-38) scale(1,1)"><path fill="none" stroke="#000000" d="M 55 62 L 784 62 L 784 704 L 55 704 L 55 62 Z Z" stroke-miterlimit="10"/></g><g transform="translate(-45,-38) scale(1,1)"><g><path fill="none" stroke="none"/><text fill="#000000" stroke="none" font-family="Arial" font-size="13px" font-style="normal" font-weight="bold" text-decoration="none" x="403" y="82.5">Utility</text></g></g><g transform="translate(-45,-38) scale(1,1)"><g><path fill="none" stroke="none"/><text fill="#000000" stroke="none" font-family="Arial" font-size="13px" font-style="normal" font-weight="normal" text-decoration="none" x="359" y="97.5">(from ViewController)</text></g></g><g transform="translate(-45,-38) scale(1,1)"><rect fill="#C0C0C0" stroke="none" x="79" y="135" width="206.2470703125" height="145" opacity="0.2"/></g><g transform="translate(-45,-38) scale(1,1)"><rect fill="#ffffff" stroke="none" x="72" y="128" width="206.2470703125" height="145"/></g><g transform="translate(-45,-38) scale(1,1)"><path fill="none" stroke="#000000" d="M 72 128 L 278.2470703125 128 L 278.2470703125 273 L 72 273 L 72 128 Z Z" stroke-miterlimit="10"/></g><g transform="translate(-45,-38) scale(1,1)"><path fill="none" stroke="#000000" d="M 72 168 L 278.2470703125 168" stroke-miterlimit="10"/></g><g transform="translate(-45,-38) scale(1,1)"><path fill="none" stroke="#000000" d="M 72 191 L 278.2470703125 191" stroke-miterlimit="10"/></g><g transform="translate(-45,-38) scale(1,1)"><g><path fill="none" stroke="none"/><text fill="#000000" stroke="none" font-family="Arial" font-size="13px" font-style="normal" font-weight="bold" text-decoration="none" x="137.12353515625" y="147.5">MenuActivity</text></g></g><g transform="translate(-45,-38) scale(1,1)"><g><path fill="none" stroke="none"/><text fill="#000000" stroke="none" font-family="Arial" font-size="13px" font-style="normal" font-weight="normal" text-decoration="none" x="139.62353515625" y="162.5">(from Utility)</text></g></g><g transform="translate(-45,-38) scale(1,1)"><g><path fill="none" stroke="none"/><text fill="#000000" stroke="none" font-family="Arial" font-size="13px" font-style="normal" font-weight="normal" text-decoration="none" x="77" y="185.5">-menuView: MenuView</text></g></g><g transform="translate(-45,-38) scale(1,1)"><g><path fill="none" stroke="none"/><text fill="#000000" stroke="none" font-family="Arial" font-size="13px" font-style="normal" font-weight="normal" text-decoration="none" x="77" y="208.5">~buildingsButtonPressed()</text></g></g><g transform="translate(-45,-38) scale(1,1)"><g><path fill="none" stroke="none"/><text fill="#000000" stroke="none" font-family="Arial" font-size="13px" font-style="normal" font-weight="normal" text-decoration="none" x="77" y="223.5">~authenticationButtonPressed()</text></g></g><g transform="translate(-45,-38) scale(1,1)"><g><path fill="none" stroke="none"/><text fill="#000000" stroke="none" font-family="Arial" font-size="13px" font-style="normal" font-weight="normal" text-decoration="none" x="77" y="238.5">~appInfoButtonPressed()</text></g></g><g transform="translate(-45,-38) scale(1,1)"><g><path fill="none" stroke="none"/><text fill="#000000" stroke="none" font-family="Arial" font-size="13px" font-style="normal" font-weight="normal" text-decoration="none" x="77" y="253.5">~logoutButtonPressed()</text></g></g><g transform="translate(-45,-38) scale(1,1)"><g><path fill="none" stroke="none"/><text fill="#000000" stroke="none" font-family="Arial" font-size="13px" font-style="normal" font-weight="normal" text-decoration="none" x="77" y="268.5">+MenuActivity()</text></g></g><g transform="translate(-45,-38) scale(1,1)"><rect fill="#C0C0C0" stroke="none" x="79" y="454" width="205.548828125" height="235" opacity="0.2"/></g><g transform="translate(-45,-38) scale(1,1)"><rect fill="#ffffff" stroke="none" x="72" y="447" width="205.548828125" height="235"/></g><g transform="translate(-45,-38) scale(1,1)"><path fill="none" stroke="#000000" d="M 72 447 L 277.548828125 447 L 277.548828125 682 L 72 682 L 72 447 Z Z" stroke-miterlimit="10"/></g><g transform="translate(-45,-38) scale(1,1)"><path fill="none" stroke="#000000" d="M 72 487 L 277.548828125 487" stroke-miterlimit="10"/></g><g transform="translate(-45,-38) scale(1,1)"><path fill="none" stroke="#000000" d="M 72 600 L 277.548828125 600" stroke-miterlimit="10"/></g><g transform="translate(-45,-38) scale(1,1)"><g><path fill="none" stroke="none"/><text fill="#000000" stroke="none" font-family="Arial" font-size="13px" font-style="normal" font-weight="bold" text-decoration="none" x="144.7744140625" y="466.5">MenuView</text></g></g><g transform="translate(-45,-38) scale(1,1)"><g><path fill="none" stroke="none"/><text fill="#000000" stroke="none" font-family="Arial" font-size="13px" font-style="normal" font-weight="normal" text-decoration="none" x="139.2744140625" y="481.5">(from Utility)</text></g></g><g transform="translate(-45,-38) scale(1,1)"><g><path fill="none" stroke="none"/><text fill="#000000" stroke="none" font-family="Arial" font-size="13px" font-style="normal" font-weight="normal" text-decoration="none" x="77" y="504.5">~usernameLabel</text></g></g><g transform="translate(-45,-38) scale(1,1)"><g><path fill="none" stroke="none"/><text fill="#000000" stroke="none" font-family="Arial" font-size="13px" font-style="normal" font-weight="normal" text-decoration="none" x="77" y="519.5">~buildingsButton</text></g></g><g transform="translate(-45,-38) scale(1,1)"><g><path fill="none" stroke="none"/><text fill="#000000" stroke="none" font-family="Arial" font-size="13px" font-style="normal" font-weight="normal" text-decoration="none" x="77" y="534.5">~authenticationButton</text></g></g><g transform="translate(-45,-38) scale(1,1)"><g><path fill="none" stroke="none"/><text fill="#000000" stroke="none" font-family="Arial" font-size="13px" font-style="normal" font-weight="normal" text-decoration="none" x="77" y="549.5">~appInfoButton</text></g></g><g transform="translate(-45,-38) scale(1,1)"><g><path fill="none" stroke="none"/><text fill="#000000" stroke="none" font-family="Arial" font-size="13px" font-style="normal" font-weight="normal" text-decoration="none" x="77" y="564.5">~myAccountButton</text></g></g><g transform="translate(-45,-38) scale(1,1)"><g><path fill="none" stroke="none"/><text fill="#000000" stroke="none" font-family="Arial" font-size="13px" font-style="normal" font-weight="normal" text-decoration="none" x="77" y="579.5">~delegate: MenuViewDelegate</text></g></g><g transform="translate(-45,-38) scale(1,1)"><g><path fill="none" stroke="none"/><text fill="#000000" stroke="none" font-family="Arial" font-size="13px" font-style="normal" font-weight="normal" text-decoration="none" x="77" y="594.5">~logoutButton</text></g></g><g transform="translate(-45,-38) scale(1,1)"><g><path fill="none" stroke="none"/><text fill="#000000" stroke="none" font-family="Arial" font-size="13px" font-style="normal" font-weight="normal" text-decoration="none" x="77" y="617.5">-logoutButtonPressed()</text></g></g><g transform="translate(-45,-38) scale(1,1)"><g><path fill="none" stroke="none"/><text fill="#000000" stroke="none" font-family="Arial" font-size="13px" font-style="normal" font-weight="normal" text-decoration="none" x="77" y="632.5">-buidingsButtonPressed()</text></g></g><g transform="translate(-45,-38) scale(1,1)"><g><path fill="none" stroke="none"/><text fill="#000000" stroke="none" font-family="Arial" font-size="13px" font-style="normal" font-weight="normal" text-decoration="none" x="77" y="647.5">-authenticationButtonPressed()</text></g></g><g transform="translate(-45,-38) scale(1,1)"><g><path fill="none" stroke="none"/><text fill="#000000" stroke="none" font-family="Arial" font-size="13px" font-style="normal" font-weight="normal" text-decoration="none" x="77" y="662.5">-appInfoButtonPressed()</text></g></g><g transform="translate(-45,-38) scale(1,1)"><g><path fill="none" stroke="none"/><text fill="#000000" stroke="none" font-family="Arial" font-size="13px" font-style="normal" font-weight="normal" text-decoration="none" x="77" y="677.5">-myAccountButtonPressed()</text></g></g><g transform="translate(-45,-38) scale(1,1)"><rect fill="#C0C0C0" stroke="none" x="491" y="544" width="198.64892578125" height="145" opacity="0.2"/></g><g transform="translate(-45,-38) scale(1,1)"><rect fill="#ffffff" stroke="none" x="484" y="537" width="198.64892578125" height="145"/></g><g transform="translate(-45,-38) scale(1,1)"><path fill="none" stroke="#000000" d="M 484 537 L 682.64892578125 537 L 682.64892578125 682 L 484 682 L 484 537 Z Z" stroke-miterlimit="10"/></g><g transform="translate(-45,-38) scale(1,1)"><path fill="none" stroke="#000000" d="M 484 577 L 682.64892578125 577" stroke-miterlimit="10"/></g><g transform="translate(-45,-38) scale(1,1)"><path fill="none" stroke="#000000" d="M 484 645 L 682.64892578125 645" stroke-miterlimit="10"/></g><g transform="translate(-45,-38) scale(1,1)"><g><path fill="none" stroke="none"/><text fill="#000000" stroke="none" font-family="Arial" font-size="13px" font-style="normal" font-weight="bold" text-decoration="none" x="546.824462890625" y="556.5">AppInfoView</text></g></g><g transform="translate(-45,-38) scale(1,1)"><g><path fill="none" stroke="none"/><text fill="#000000" stroke="none" font-family="Arial" font-size="13px" font-style="normal" font-weight="normal" text-decoration="none" x="547.824462890625" y="571.5">(from Utility)</text></g></g><g transform="translate(-45,-38) scale(1,1)"><g><path fill="none" stroke="none"/><text fill="#000000" stroke="none" font-family="Arial" font-size="13px" font-style="normal" font-weight="normal" text-decoration="none" x="489" y="594.5">~descriptionLabel</text></g></g><g transform="translate(-45,-38) scale(1,1)"><g><path fill="none" stroke="none"/><text fill="#000000" stroke="none" font-family="Arial" font-size="13px" font-style="normal" font-weight="normal" text-decoration="none" x="489" y="609.5">~emailButton</text></g></g><g transform="translate(-45,-38) scale(1,1)"><g><path fill="none" stroke="none"/><text fill="#000000" stroke="none" font-family="Arial" font-size="13px" font-style="normal" font-weight="normal" text-decoration="none" x="489" y="624.5">~siteButton</text></g></g><g transform="translate(-45,-38) scale(1,1)"><g><path fill="none" stroke="none"/><text fill="#000000" stroke="none" font-family="Arial" font-size="13px" font-style="normal" font-weight="normal" text-decoration="none" x="489" y="639.5">~delegate: AppInfoViewButton</text></g></g><g transform="translate(-45,-38) scale(1,1)"><g><path fill="none" stroke="none"/><text fill="#000000" stroke="none" font-family="Arial" font-size="13px" font-style="normal" font-weight="normal" text-decoration="none" x="489" y="662.5">-emailButtonPressed()</text></g></g><g transform="translate(-45,-38) scale(1,1)"><g><path fill="none" stroke="none"/><text fill="#000000" stroke="none" font-family="Arial" font-size="13px" font-style="normal" font-weight="normal" text-decoration="none" x="489" y="677.5">-siteButtonPressed()</text></g></g><g transform="translate(-45,-38) scale(1,1)"><path fill="none" stroke="#000000" d="M 276 274 L 396.62353515625 311.5262451171875" stroke-miterlimit="10"/></g><g transform="translate(-45,-38) scale(1,1)"><path fill="none" stroke="#000000" d="M 619 244 L 681.67919921875 306.4786973110465" stroke-miterlimit="10"/></g><g transform="translate(-45,-38) scale(1,1)"><path fill="none" stroke="#000000" d="M 279 482 L 311 457" stroke-miterlimit="10"/></g><g transform="translate(-45,-38) scale(1,1)"><path fill="none" stroke="#000000" d="M 616 536 L 673 413" stroke-miterlimit="10"/></g><g transform="translate(-45,-38) scale(1,1)"><path fill="#C0C0C0" stroke="none" d="M 403.62353515625 321.5 C 403.62353515625 311.2827312 411.90626635625 303 422.12353515625 303 C 432.34080395625 303 440.62353515625 311.2827312 440.62353515625 321.5 C 440.62353515625 331.7172688 432.34080395625 340 422.12353515625 340 C 411.90626635625 340 403.62353515625 331.7172688 403.62353515625 321.5 Z" opacity="0.2"/></g><g transform="translate(-45,-38) scale(1,1)"><path fill="#ffffff" stroke="none" d="M 396.62353515625 314.5 C 396.62353515625 304.2827312 404.90626635625 296 415.12353515625 296 C 425.34080395625 296 433.62353515625 304.2827312 433.62353515625 314.5 C 433.62353515625 324.7172688 425.34080395625 333 415.12353515625 333 C 404.90626635625 333 396.62353515625 324.7172688 396.62353515625 314.5 Z"/></g><g transform="translate(-45,-38) scale(1,1)"><path fill="none" stroke="#000000" d="M 396.62353515625 314.5 C 396.62353515625 304.2827312 404.90626635625 296 415.12353515625 296 C 425.34080395625 296 433.62353515625 304.2827312 433.62353515625 314.5 C 433.62353515625 324.7172688 425.34080395625 333 415.12353515625 333 C 404.90626635625 333 396.62353515625 324.7172688 396.62353515625 314.5 Z" stroke-miterlimit="10"/></g><g transform="translate(-45,-38) scale(1,1)"><path fill="none" stroke="#000000" d="M 312 373 L 518.2470703125 373" stroke-miterlimit="10"/></g><g transform="translate(-45,-38) scale(1,1)"><g><path fill="none" stroke="none"/><text fill="#000000" stroke="none" font-family="Arial" font-size="13px" font-style="normal" font-weight="bold" text-decoration="none" x="359.62353515625" y="352.5">MenuViewDelegate</text></g></g><g transform="translate(-45,-38) scale(1,1)"><g><path fill="none" stroke="none"/><text fill="#000000" stroke="none" font-family="Arial" font-size="13px" font-style="normal" font-weight="normal" text-decoration="none" x="379.62353515625" y="367.5">(from Utility)</text></g></g><g transform="translate(-45,-38) scale(1,1)"><g><path fill="none" stroke="none"/><text fill="#000000" stroke="none" font-family="Arial" font-size="13px" font-style="normal" font-weight="normal" text-decoration="none" x="317" y="390.5">~buidingsButtonPressed()</text></g></g><g transform="translate(-45,-38) scale(1,1)"><g><path fill="none" stroke="none"/><text fill="#000000" stroke="none" font-family="Arial" font-size="13px" font-style="normal" font-weight="normal" text-decoration="none" x="317" y="405.5">~authenticationButtonPressed()</text></g></g><g transform="translate(-45,-38) scale(1,1)"><g><path fill="none" stroke="none"/><text fill="#000000" stroke="none" font-family="Arial" font-size="13px" font-style="normal" font-weight="normal" text-decoration="none" x="317" y="420.5">~goAppInfoView()</text></g></g><g transform="translate(-45,-38) scale(1,1)"><g><path fill="none" stroke="none"/><text fill="#000000" stroke="none" font-family="Arial" font-size="13px" font-style="normal" font-weight="normal" text-decoration="none" x="317" y="435.5">~appInfoButtonPressed()</text></g></g><g transform="translate(-45,-38) scale(1,1)"><g><path fill="none" stroke="none"/><text fill="#000000" stroke="none" font-family="Arial" font-size="13px" font-style="normal" font-weight="normal" text-decoration="none" x="317" y="450.5">~logoutButtonPressed()</text></g></g><g transform="translate(-45,-38) scale(1,1)"><rect fill="#C0C0C0" stroke="none" x="491" y="135" width="185" height="115" opacity="0.2"/></g><g transform="translate(-45,-38) scale(1,1)"><rect fill="#ffffff" stroke="none" x="484" y="128" width="185" height="115"/></g><g transform="translate(-45,-38) scale(1,1)"><path fill="none" stroke="#000000" d="M 484 128 L 669 128 L 669 243 L 484 243 L 484 128 Z Z" stroke-miterlimit="10"/></g><g transform="translate(-45,-38) scale(1,1)"><path fill="none" stroke="#000000" d="M 484 168 L 669 168" stroke-miterlimit="10"/></g><g transform="translate(-45,-38) scale(1,1)"><path fill="none" stroke="#000000" d="M 484 191 L 669 191" stroke-miterlimit="10"/></g><g transform="translate(-45,-38) scale(1,1)"><g><path fill="none" stroke="none"/><text fill="#000000" stroke="none" font-family="Arial" font-size="13px" font-style="normal" font-weight="bold" text-decoration="none" x="532" y="147.5">AppInfoActivity</text></g></g><g transform="translate(-45,-38) scale(1,1)"><g><path fill="none" stroke="none"/><text fill="#000000" stroke="none" font-family="Arial" font-size="13px" font-style="normal" font-weight="normal" text-decoration="none" x="541" y="162.5">(from Utility)</text></g></g><g transform="translate(-45,-38) scale(1,1)"><g><path fill="none" stroke="none"/><text fill="#000000" stroke="none" font-family="Arial" font-size="13px" font-style="normal" font-weight="normal" text-decoration="none" x="489" y="185.5">-appInfoView: AppInfoView</text></g></g><g transform="translate(-45,-38) scale(1,1)"><g><path fill="none" stroke="none"/><text fill="#000000" stroke="none" font-family="Arial" font-size="13px" font-style="normal" font-weight="normal" text-decoration="none" x="489" y="208.5">~goSite()</text></g></g><g transform="translate(-45,-38) scale(1,1)"><g><path fill="none" stroke="none"/><text fill="#000000" stroke="none" font-family="Arial" font-size="13px" font-style="normal" font-weight="normal" text-decoration="none" x="489" y="223.5">~goEmail()</text></g></g><g transform="translate(-45,-38) scale(1,1)"><g><path fill="none" stroke="none"/><text fill="#000000" stroke="none" font-family="Arial" font-size="13px" font-style="normal" font-weight="normal" text-decoration="none" x="489" y="238.5">+AppInfoActivity()</text></g></g><g transform="translate(-45,-38) scale(1,1)"><path fill="#C0C0C0" stroke="none" d="M 688.67919921875 322 C 688.67919921875 311.5065888 697.18578801875 303 707.67919921875 303 C 718.17261041875 303 726.67919921875 311.5065888 726.67919921875 322 C 726.67919921875 332.4934112 718.17261041875 341 707.67919921875 341 C 697.18578801875 341 688.67919921875 332.4934112 688.67919921875 322 Z" opacity="0.2"/></g><g transform="translate(-45,-38) scale(1,1)"><path fill="#ffffff" stroke="none" d="M 681.67919921875 315 C 681.67919921875 304.5065888 690.18578801875 296 700.67919921875 296 C 711.17261041875 296 719.67919921875 304.5065888 719.67919921875 315 C 719.67919921875 325.4934112 711.17261041875 334 700.67919921875 334 C 690.18578801875 334 681.67919921875 325.4934112 681.67919921875 315 Z"/></g><g transform="translate(-45,-38) scale(1,1)"><path fill="none" stroke="#000000" d="M 681.67919921875 315 C 681.67919921875 304.5065888 690.18578801875 296 700.67919921875 296 C 711.17261041875 296 719.67919921875 304.5065888 719.67919921875 315 C 719.67919921875 325.4934112 711.17261041875 334 700.67919921875 334 C 690.18578801875 334 681.67919921875 325.4934112 681.67919921875 315 Z" stroke-miterlimit="10"/></g><g transform="translate(-45,-38) scale(1,1)"><path fill="none" stroke="#000000" d="M 624 374 L 777.3583984375 374" stroke-miterlimit="10"/></g><g transform="translate(-45,-38) scale(1,1)"><g><path fill="none" stroke="none"/><text fill="#000000" stroke="none" font-family="Arial" font-size="13px" font-style="normal" font-weight="bold" text-decoration="none" x="638.67919921875" y="353.5">AppInfoViewDelegate</text></g></g><g transform="translate(-45,-38) scale(1,1)"><g><path fill="none" stroke="none"/><text fill="#000000" stroke="none" font-family="Arial" font-size="13px" font-style="normal" font-weight="normal" text-decoration="none" x="665.17919921875" y="368.5">(from Utility)</text></g></g><g transform="translate(-45,-38) scale(1,1)"><g><path fill="none" stroke="none"/><text fill="#000000" stroke="none" font-family="Arial" font-size="13px" font-style="normal" font-weight="normal" text-decoration="none" x="629" y="391.5">~goSite()</text></g></g><g transform="translate(-45,-38) scale(1,1)"><g><path fill="none" stroke="none"/><text fill="#000000" stroke="none" font-family="Arial" font-size="13px" font-style="normal" font-weight="normal" text-decoration="none" x="629" y="406.5">~goEmail()</text></g></g><g transform="translate(-45,-38) scale(1,1)"><path fill="none" stroke="#000000" d="M 174 446 L 175 274" stroke-miterlimit="10"/></g><g transform="translate(-45,-38) scale(1,1)"><path fill="#FFFFFF" stroke="none" d="M 179.1503622922815 284.18697662914803 L 175 274 L 170.73146906699375 284.13802957551263 L 174.87209518496036 295.9996281868192"/></g><g transform="translate(-45,-38) scale(1,1)"><path fill="none" stroke="#000000" d="M 179.1503622922815 284.18697662914803 L 175 274 L 170.73146906699375 284.13802957551263 L 174.87209518496036 295.9996281868192 L 179.1503622922815 284.18697662914803" stroke-miterlimit="10"/></g><g transform="translate(-45,-38) scale(1,1)"><path fill="none" stroke="#000000" d="M 582 536 L 577 244" stroke-miterlimit="10"/></g><g transform="translate(-45,-38) scale(1,1)"><path fill="#FFFFFF" stroke="none" d="M 581.3828936606968 254.08911508304985 L 577 244 L 572.9650921373022 254.23325552009427 L 577.3766571135667 265.9967754322946"/></g><g transform="translate(-45,-38) scale(1,1)"><path fill="none" stroke="#000000" d="M 581.3828936606968 254.08911508304985 L 577 244 L 572.9650921373022 254.23325552009427 L 577.3766571135667 265.9967754322946 L 581.3828936606968 254.08911508304985" stroke-miterlimit="10"/></g></g></svg>