<svg version="1.1" xmlns="http://www.w3.org/2000/svg" xmlns:xlink="http://www.w3.org/1999/xlink" width="865" height="421"><defs/><g><g transform="translate(-297,-373) scale(1,1)"><rect fill="#C0C0C0" stroke="none" x="314" y="390" width="338" height="15" opacity="0.2"/></g><g transform="translate(-297,-373) scale(1,1)"><rect fill="#C0C0C0" stroke="none" x="314" y="404" width="845" height="387" opacity="0.2"/></g><g transform="translate(-297,-373) scale(1,1)"><rect fill="#ffffff" stroke="none" x="307" y="398" width="845" height="386"/></g><g transform="translate(-297,-373) scale(1,1)"><path fill="none" stroke="#000000" d="M 307 398 L 1152 398 L 1152 784 L 307 784 L 307 398 Z Z" stroke-miterlimit="10"/></g><g transform="translate(-297,-373) scale(1,1)"><rect fill="#ffffff" stroke="none" x="307" y="383" width="338" height="15"/></g><g transform="translate(-297,-373) scale(1,1)"><path fill="none" stroke="#000000" d="M 307 383 L 645 383 L 645 398 L 307 398 L 307 383 Z Z" stroke-miterlimit="10"/></g><g transform="translate(-297,-373) scale(1,1)"><rect fill="#ffffff" stroke="none" x="307" y="397" width="845" height="387"/></g><g transform="translate(-297,-373) scale(1,1)"><path fill="none" stroke="#000000" d="M 307 397 L 1152 397 L 1152 784 L 307 784 L 307 397 Z Z" stroke-miterlimit="10"/></g><g transform="translate(-297,-373) scale(1,1)"><g><path fill="none" stroke="none"/><text fill="#000000" stroke="none" font-family="Arial" font-size="13px" font-style="normal" font-weight="bold" text-decoration="none" x="688" y="417.5">ViewController</text></g></g><g transform="translate(-297,-373) scale(1,1)"><rect fill="#C0C0C0" stroke="none" x="358" y="460" width="77.19999999999999" height="15" opacity="0.2"/></g><g transform="translate(-297,-373) scale(1,1)"><rect fill="#C0C0C0" stroke="none" x="358" y="474" width="193" height="93" opacity="0.2"/></g><g transform="translate(-297,-373) scale(1,1)"><rect fill="#ffffff" stroke="none" x="351" y="468" width="193" height="92"/></g><g transform="translate(-297,-373) scale(1,1)"><path fill="none" stroke="#000000" d="M 351 468 L 544 468 L 544 560 L 351 560 L 351 468 Z Z" stroke-miterlimit="10"/></g><g transform="translate(-297,-373) scale(1,1)"><rect fill="#ffffff" stroke="none" x="351" y="453" width="77.19999999999999" height="15"/></g><g transform="translate(-297,-373) scale(1,1)"><path fill="none" stroke="#000000" d="M 351 453 L 428.2 453 L 428.2 468 L 351 468 L 351 453 Z Z" stroke-miterlimit="10"/></g><g transform="translate(-297,-373) scale(1,1)"><rect fill="#ffffff" stroke="none" x="351" y="467" width="193" height="93"/></g><g transform="translate(-297,-373) scale(1,1)"><path fill="none" stroke="#000000" d="M 351 467 L 544 467 L 544 560 L 351 560 L 351 467 Z Z" stroke-miterlimit="10"/></g><g transform="translate(-297,-373) scale(1,1)"><g><path fill="none" stroke="none"/><text fill="#000000" stroke="none" font-family="Arial" font-size="13px" font-style="normal" font-weight="bold" text-decoration="none" x="406" y="487.5">Authentication</text></g></g><g transform="translate(-297,-373) scale(1,1)"><g><path fill="none" stroke="none"/><text fill="#000000" stroke="none" font-family="Arial" font-size="13px" font-style="normal" font-weight="normal" text-decoration="none" x="387" y="502.5">(from ViewController)</text></g></g><g transform="translate(-297,-373) scale(1,1)"><rect fill="#C0C0C0" stroke="none" x="649" y="460" width="77.20000000000005" height="15" opacity="0.2"/></g><g transform="translate(-297,-373) scale(1,1)"><rect fill="#C0C0C0" stroke="none" x="649" y="474" width="193" height="93" opacity="0.2"/></g><g transform="translate(-297,-373) scale(1,1)"><rect fill="#ffffff" stroke="none" x="642" y="468" width="193" height="92"/></g><g transform="translate(-297,-373) scale(1,1)"><path fill="none" stroke="#000000" d="M 642 468 L 835 468 L 835 560 L 642 560 L 642 468 Z Z" stroke-miterlimit="10"/></g><g transform="translate(-297,-373) scale(1,1)"><rect fill="#ffffff" stroke="none" x="642" y="453" width="77.20000000000005" height="15"/></g><g transform="translate(-297,-373) scale(1,1)"><path fill="none" stroke="#000000" d="M 642 453 L 719.2 453 L 719.2 468 L 642 468 L 642 453 Z Z" stroke-miterlimit="10"/></g><g transform="translate(-297,-373) scale(1,1)"><rect fill="#ffffff" stroke="none" x="642" y="467" width="193" height="93"/></g><g transform="translate(-297,-373) scale(1,1)"><path fill="none" stroke="#000000" d="M 642 467 L 835 467 L 835 560 L 642 560 L 642 467 Z Z" stroke-miterlimit="10"/></g><g transform="translate(-297,-373) scale(1,1)"><g><path fill="none" stroke="none"/><text fill="#000000" stroke="none" font-family="Arial" font-size="13px" font-style="normal" font-weight="bold" text-decoration="none" x="717.5" y="487.5">Games</text></g></g><g transform="translate(-297,-373) scale(1,1)"><g><path fill="none" stroke="none"/><text fill="#000000" stroke="none" font-family="Arial" font-size="13px" font-style="normal" font-weight="normal" text-decoration="none" x="678" y="502.5">(from ViewController)</text></g></g><g transform="translate(-297,-373) scale(1,1)"><rect fill="#C0C0C0" stroke="none" x="370" y="642" width="77.19999999999999" height="15" opacity="0.2"/></g><g transform="translate(-297,-373) scale(1,1)"><rect fill="#C0C0C0" stroke="none" x="370" y="656" width="193" height="93" opacity="0.2"/></g><g transform="translate(-297,-373) scale(1,1)"><rect fill="#ffffff" stroke="none" x="363" y="650" width="193" height="92"/></g><g transform="translate(-297,-373) scale(1,1)"><path fill="none" stroke="#000000" d="M 363 650 L 556 650 L 556 742 L 363 742 L 363 650 Z Z" stroke-miterlimit="10"/></g><g transform="translate(-297,-373) scale(1,1)"><rect fill="#ffffff" stroke="none" x="363" y="635" width="77.19999999999999" height="15"/></g><g transform="translate(-297,-373) scale(1,1)"><path fill="none" stroke="#000000" d="M 363 635 L 440.2 635 L 440.2 650 L 363 650 L 363 635 Z Z" stroke-miterlimit="10"/></g><g transform="translate(-297,-373) scale(1,1)"><rect fill="#ffffff" stroke="none" x="363" y="649" width="193" height="93"/></g><g transform="translate(-297,-373) scale(1,1)"><path fill="none" stroke="#000000" d="M 363 649 L 556 649 L 556 742 L 363 742 L 363 649 Z Z" stroke-miterlimit="10"/></g><g transform="translate(-297,-373) scale(1,1)"><g><path fill="none" stroke="none"/><text fill="#000000" stroke="none" font-family="Arial" font-size="13px" font-style="normal" font-weight="bold" text-decoration="none" x="443" y="669.5">Utility</text></g></g><g transform="translate(-297,-373) scale(1,1)"><g><path fill="none" stroke="none"/><text fill="#000000" stroke="none" font-family="Arial" font-size="13px" font-style="normal" font-weight="normal" text-decoration="none" x="399" y="684.5">(from ViewController)</text></g></g><g transform="translate(-297,-373) scale(1,1)"><rect fill="#C0C0C0" stroke="none" x="692" y="642" width="77.20000000000005" height="15" opacity="0.2"/></g><g transform="translate(-297,-373) scale(1,1)"><rect fill="#C0C0C0" stroke="none" x="692" y="656" width="193" height="93" opacity="0.2"/></g><g transform="translate(-297,-373) scale(1,1)"><rect fill="#ffffff" stroke="none" x="685" y="650" width="193" height="92"/></g><g transform="translate(-297,-373) scale(1,1)"><path fill="none" stroke="#000000" d="M 685 650 L 878 650 L 878 742 L 685 742 L 685 650 Z Z" stroke-miterlimit="10"/></g><g transform="translate(-297,-373) scale(1,1)"><rect fill="#ffffff" stroke="none" x="685" y="635" width="77.20000000000005" height="15"/></g><g transform="translate(-297,-373) scale(1,1)"><path fill="none" stroke="#000000" d="M 685 635 L 762.2 635 L 762.2 650 L 685 650 L 685 635 Z Z" stroke-miterlimit="10"/></g><g transform="translate(-297,-373) scale(1,1)"><rect fill="#ffffff" stroke="none" x="685" y="649" width="193" height="93"/></g><g transform="translate(-297,-373) scale(1,1)"><path fill="none" stroke="#000000" d="M 685 649 L 878 649 L 878 742 L 685 742 L 685 649 Z Z" stroke-miterlimit="10"/></g><g transform="translate(-297,-373) scale(1,1)"><g><path fill="none" stroke="none"/><text fill="#000000" stroke="none" font-family="Arial" font-size="13px" font-style="normal" font-weight="bold" text-decoration="none" x="758.5" y="669.5">Building</text></g></g><g transform="translate(-297,-373) scale(1,1)"><g><path fill="none" stroke="none"/><text fill="#000000" stroke="none" font-family="Arial" font-size="13px" font-style="normal" font-weight="normal" text-decoration="none" x="721" y="684.5">(from ViewController)</text></g></g><g transform="translate(-297,-373) scale(1,1)"><rect fill="#C0C0C0" stroke="none" x="940" y="460" width="77.20000000000005" height="15" opacity="0.2"/></g><g transform="translate(-297,-373) scale(1,1)"><rect fill="#C0C0C0" stroke="none" x="940" y="474" width="193" height="93" opacity="0.2"/></g><g transform="translate(-297,-373) scale(1,1)"><rect fill="#ffffff" stroke="none" x="933" y="468" width="193" height="92"/></g><g transform="translate(-297,-373) scale(1,1)"><path fill="none" stroke="#000000" d="M 933 468 L 1126 468 L 1126 560 L 933 560 L 933 468 Z Z" stroke-miterlimit="10"/></g><g transform="translate(-297,-373) scale(1,1)"><rect fill="#ffffff" stroke="none" x="933" y="453" width="77.20000000000005" height="15"/></g><g transform="translate(-297,-373) scale(1,1)"><path fill="none" stroke="#000000" d="M 933 453 L 1010.2 453 L 1010.2 468 L 933 468 L 933 453 Z Z" stroke-miterlimit="10"/></g><g transform="translate(-297,-373) scale(1,1)"><rect fill="#ffffff" stroke="none" x="933" y="467" width="193" height="93"/></g><g transform="translate(-297,-373) scale(1,1)"><path fill="none" stroke="#000000" d="M 933 467 L 1126 467 L 1126 560 L 933 560 L 933 467 Z Z" stroke-miterlimit="10"/></g><g transform="translate(-297,-373) scale(1,1)"><g><path fill="none" stroke="none"/><text fill="#000000" stroke="none" font-family="Arial" font-size="13px" font-style="normal" font-weight="bold" text-decoration="none" x="989" y="487.5">SavedResults</text></g></g><g transform="translate(-297,-373) scale(1,1)"><g><path fill="none" stroke="none"/><text fill="#000000" stroke="none" font-family="Arial" font-size="13px" font-style="normal" font-weight="normal" text-decoration="none" x="969" y="502.5">(from ViewController)</text></g></g></g></svg>