<svg version="1.1" xmlns="http://www.w3.org/2000/svg" xmlns:xlink="http://www.w3.org/1999/xlink" width="1076" height="549"><defs/><g><g transform="translate(-10,-38) scale(1,1)"><rect fill="#C0C0C0" stroke="none" x="407" y="55" width="285" height="160" opacity="0.2"/></g><g transform="translate(-10,-38) scale(1,1)"><rect fill="#ffffff" stroke="none" x="400" y="48" width="285" height="160"/></g><g transform="translate(-10,-38) scale(1,1)"><path fill="none" stroke="#000000" d="M 400 48 L 685 48 L 685 208 L 400 208 L 400 48 Z Z" stroke-miterlimit="10"/></g><g transform="translate(-10,-38) scale(1,1)"><path fill="none" stroke="#000000" d="M 400 73 L 685 73" stroke-miterlimit="10"/></g><g transform="translate(-10,-38) scale(1,1)"><path fill="none" stroke="#000000" d="M 400 126 L 685 126" stroke-miterlimit="10"/></g><g transform="translate(-10,-38) scale(1,1)"><g><path fill="none" stroke="none"/><text fill="#000000" stroke="none" font-family="Arial" font-size="13px" font-style="normal" font-weight="bold" text-decoration="none" x="484" y="67.5">URLRequestHandler</text></g></g><g transform="translate(-10,-38) scale(1,1)"><g><path fill="none" stroke="none"/><text fill="#000000" stroke="none" font-family="Arial" font-size="13px" font-style="normal" font-weight="normal" text-decoration="none" x="405" y="90.5">#urlRequest: URLRequest {readOnly}</text></g></g><g transform="translate(-10,-38) scale(1,1)"><g><path fill="none" stroke="none"/><text fill="#000000" stroke="none" font-family="Arial" font-size="13px" font-style="normal" font-weight="normal" text-decoration="none" x="405" y="105.5">+responseJSON: JSON?</text></g></g><g transform="translate(-10,-38) scale(1,1)"><g><path fill="none" stroke="none"/><text fill="#000000" stroke="none" font-family="Arial" font-size="13px" font-style="normal" font-weight="normal" text-decoration="none" x="405" y="120.5">#requestJson: JSON</text></g></g><g transform="translate(-10,-38) scale(1,1)"><g><path fill="none" stroke="none"/><text fill="#000000" stroke="none" font-family="Arial" font-size="13px" font-style="normal" font-weight="normal" text-decoration="none" x="405" y="143.5">-setupRequestJSON()</text></g></g><g transform="translate(-10,-38) scale(1,1)"><g><path fill="none" stroke="none"/><text fill="#000000" stroke="none" font-family="Arial" font-size="13px" font-style="italic" font-weight="normal" text-decoration="none" x="405" y="158.5">#getObjects()</text></g></g><g transform="translate(-10,-38) scale(1,1)"><g><path fill="none" stroke="none"/><text fill="#000000" stroke="none" font-family="Arial" font-size="13px" font-style="italic" font-weight="normal" text-decoration="none" x="405" y="173.5">#parseObjects()</text></g></g><g transform="translate(-10,-38) scale(1,1)"><g><path fill="none" stroke="none"/><text fill="#000000" stroke="none" font-family="Arial" font-size="13px" font-style="normal" font-weight="normal" text-decoration="none" x="405" y="188.5">#sendObjects()</text></g></g><g transform="translate(-10,-38) scale(1,1)"><g><path fill="none" stroke="none"/><text fill="#000000" stroke="none" font-family="Arial" font-size="13px" font-style="normal" font-weight="normal" text-decoration="none" x="405" y="203.5">+URLRequestHandler(urlRequest: URLRequest)</text></g></g><g transform="translate(-10,-38) scale(1,1)"><rect fill="#C0C0C0" stroke="none" x="27" y="297" width="136" height="57" opacity="0.2"/></g><g transform="translate(-10,-38) scale(1,1)"><rect fill="#ffffff" stroke="none" x="20" y="290" width="136" height="57"/></g><g transform="translate(-10,-38) scale(1,1)"><path fill="none" stroke="#000000" d="M 20 290 L 156 290 L 156 347 L 20 347 L 20 290 Z Z" stroke-miterlimit="10"/></g><g transform="translate(-10,-38) scale(1,1)"><path fill="none" stroke="#000000" d="M 20 315 L 156 315" stroke-miterlimit="10"/></g><g transform="translate(-10,-38) scale(1,1)"><path fill="none" stroke="#000000" d="M 20 338 L 156 338" stroke-miterlimit="10"/></g><g transform="translate(-10,-38) scale(1,1)"><g><path fill="none" stroke="none"/><text fill="#000000" stroke="none" font-family="Arial" font-size="13px" font-style="normal" font-weight="bold" text-decoration="none" x="28.5" y="309.5">UserResultsProvider</text></g></g><g transform="translate(-10,-38) scale(1,1)"><g><path fill="none" stroke="none"/><text fill="#000000" stroke="none" font-family="Arial" font-size="13px" font-style="normal" font-weight="normal" text-decoration="none" x="25" y="332.5">-results: List&lt;Result&gt;</text></g></g><g transform="translate(-10,-38) scale(1,1)"><path fill="none" stroke="#000000" d="M 89 290 L 89 128 M 89 128 A 8 8 0 0 1 97 120 L 400 120" stroke-miterlimit="10"/></g><g transform="translate(-10,-38) scale(1,1)"><path fill="#FFFFFF" stroke="none" d="M 379.6746502847517 128.41903551203197 L 400 120 L 379.6746502847517 111.58096448796803"/></g><g transform="translate(-10,-38) scale(1,1)"><path fill="none" stroke="#000000" d="M 379.6746502847517 128.41903551203197 L 400 120 L 379.6746502847517 111.58096448796803 L 379.6746502847517 128.41903551203197" stroke-miterlimit="10"/></g><g transform="translate(-10,-38) scale(1,1)"><rect fill="#C0C0C0" stroke="none" x="194" y="282" width="135" height="87" opacity="0.2"/></g><g transform="translate(-10,-38) scale(1,1)"><rect fill="#ffffff" stroke="none" x="187" y="275" width="135" height="87"/></g><g transform="translate(-10,-38) scale(1,1)"><path fill="none" stroke="#000000" d="M 187 275 L 322 275 L 322 362 L 187 362 L 187 275 Z Z" stroke-miterlimit="10"/></g><g transform="translate(-10,-38) scale(1,1)"><path fill="none" stroke="#000000" d="M 187 300 L 322 300" stroke-miterlimit="10"/></g><g transform="translate(-10,-38) scale(1,1)"><path fill="none" stroke="#000000" d="M 187 353 L 322 353" stroke-miterlimit="10"/></g><g transform="translate(-10,-38) scale(1,1)"><g><path fill="none" stroke="none"/><text fill="#000000" stroke="none" font-family="Arial" font-size="13px" font-style="normal" font-weight="bold" text-decoration="none" x="208" y="294.5">AppInfoProvider</text></g></g><g transform="translate(-10,-38) scale(1,1)"><g><path fill="none" stroke="none"/><text fill="#000000" stroke="none" font-family="Arial" font-size="13px" font-style="normal" font-weight="normal" text-decoration="none" x="192" y="317.5">-description: String</text></g></g><g transform="translate(-10,-38) scale(1,1)"><g><path fill="none" stroke="none"/><text fill="#000000" stroke="none" font-family="Arial" font-size="13px" font-style="normal" font-weight="normal" text-decoration="none" x="192" y="332.5">+supportEmail: String</text></g></g><g transform="translate(-10,-38) scale(1,1)"><g><path fill="none" stroke="none"/><text fill="#000000" stroke="none" font-family="Arial" font-size="13px" font-style="normal" font-weight="normal" text-decoration="none" x="192" y="347.5">+websiteURL: String</text></g></g><g transform="translate(-10,-38) scale(1,1)"><path fill="none" stroke="#000000" d="M 255 275 L 255 176 M 255 176 A 8 8 0 0 1 263 168 L 400 168" stroke-miterlimit="10"/></g><g transform="translate(-10,-38) scale(1,1)"><path fill="#FFFFFF" stroke="none" d="M 379.6746502847517 176.41903551203197 L 400 168 L 379.6746502847517 159.58096448796803"/></g><g transform="translate(-10,-38) scale(1,1)"><path fill="none" stroke="#000000" d="M 379.6746502847517 176.41903551203197 L 400 168 L 379.6746502847517 159.58096448796803 L 379.6746502847517 176.41903551203197" stroke-miterlimit="10"/></g><g transform="translate(-10,-38) scale(1,1)"><rect fill="#C0C0C0" stroke="none" x="360" y="297" width="90" height="57" opacity="0.2"/></g><g transform="translate(-10,-38) scale(1,1)"><rect fill="#ffffff" stroke="none" x="353" y="290" width="90" height="57"/></g><g transform="translate(-10,-38) scale(1,1)"><path fill="none" stroke="#000000" d="M 353 290 L 443 290 L 443 347 L 353 347 L 353 290 Z Z" stroke-miterlimit="10"/></g><g transform="translate(-10,-38) scale(1,1)"><path fill="none" stroke="#000000" d="M 353 315 L 443 315" stroke-miterlimit="10"/></g><g transform="translate(-10,-38) scale(1,1)"><path fill="none" stroke="#000000" d="M 353 338 L 443 338" stroke-miterlimit="10"/></g><g transform="translate(-10,-38) scale(1,1)"><g><path fill="none" stroke="none"/><text fill="#000000" stroke="none" font-family="Arial" font-size="13px" font-style="normal" font-weight="bold" text-decoration="none" x="360.5" y="309.5">PathProvider</text></g></g><g transform="translate(-10,-38) scale(1,1)"><g><path fill="none" stroke="none"/><text fill="#000000" stroke="none" font-family="Arial" font-size="13px" font-style="normal" font-weight="normal" text-decoration="none" x="358" y="332.5">-path: Path</text></g></g><g transform="translate(-10,-38) scale(1,1)"><path fill="none" stroke="#000000" d="M 432 290 L 432 208" stroke-miterlimit="10"/></g><g transform="translate(-10,-38) scale(1,1)"><path fill="#FFFFFF" stroke="none" d="M 440.419035512032 228.3253497152483 L 432 208 L 423.580964487968 228.3253497152483"/></g><g transform="translate(-10,-38) scale(1,1)"><path fill="none" stroke="#000000" d="M 440.419035512032 228.3253497152483 L 432 208 L 423.580964487968 228.3253497152483 L 440.419035512032 228.3253497152483" stroke-miterlimit="10"/></g><g transform="translate(-10,-38) scale(1,1)"><rect fill="#C0C0C0" stroke="none" x="481" y="297" width="136" height="57" opacity="0.2"/></g><g transform="translate(-10,-38) scale(1,1)"><rect fill="#ffffff" stroke="none" x="474" y="290" width="136" height="57"/></g><g transform="translate(-10,-38) scale(1,1)"><path fill="none" stroke="#000000" d="M 474 290 L 610 290 L 610 347 L 474 347 L 474 290 Z Z" stroke-miterlimit="10"/></g><g transform="translate(-10,-38) scale(1,1)"><path fill="none" stroke="#000000" d="M 474 315 L 610 315" stroke-miterlimit="10"/></g><g transform="translate(-10,-38) scale(1,1)"><path fill="none" stroke="#000000" d="M 474 338 L 610 338" stroke-miterlimit="10"/></g><g transform="translate(-10,-38) scale(1,1)"><g><path fill="none" stroke="none"/><text fill="#000000" stroke="none" font-family="Arial" font-size="13px" font-style="normal" font-weight="bold" text-decoration="none" x="482.5" y="309.5">PathResultsProvider</text></g></g><g transform="translate(-10,-38) scale(1,1)"><g><path fill="none" stroke="none"/><text fill="#000000" stroke="none" font-family="Arial" font-size="13px" font-style="normal" font-weight="normal" text-decoration="none" x="479" y="332.5">-results: List&lt;Result&gt;</text></g></g><g transform="translate(-10,-38) scale(1,1)"><path fill="none" stroke="#000000" d="M 542 290 L 542 208" stroke-miterlimit="10"/></g><g transform="translate(-10,-38) scale(1,1)"><path fill="#FFFFFF" stroke="none" d="M 550.419035512032 228.3253497152483 L 542 208 L 533.580964487968 228.3253497152483"/></g><g transform="translate(-10,-38) scale(1,1)"><path fill="none" stroke="#000000" d="M 550.419035512032 228.3253497152483 L 542 208 L 533.580964487968 228.3253497152483 L 550.419035512032 228.3253497152483" stroke-miterlimit="10"/></g><g transform="translate(-10,-38) scale(1,1)"><rect fill="#C0C0C0" stroke="none" x="648" y="289" width="162" height="72" opacity="0.2"/></g><g transform="translate(-10,-38) scale(1,1)"><rect fill="#ffffff" stroke="none" x="641" y="282" width="162" height="72"/></g><g transform="translate(-10,-38) scale(1,1)"><path fill="none" stroke="#000000" d="M 641 282 L 803 282 L 803 354 L 641 354 L 641 282 Z Z" stroke-miterlimit="10"/></g><g transform="translate(-10,-38) scale(1,1)"><path fill="none" stroke="#000000" d="M 641 307 L 803 307" stroke-miterlimit="10"/></g><g transform="translate(-10,-38) scale(1,1)"><path fill="none" stroke="#000000" d="M 641 345 L 803 345" stroke-miterlimit="10"/></g><g transform="translate(-10,-38) scale(1,1)"><g><path fill="none" stroke="none"/><text fill="#000000" stroke="none" font-family="Arial" font-size="13px" font-style="normal" font-weight="bold" text-decoration="none" x="671.5" y="301.5">BuildingsProvider</text></g></g><g transform="translate(-10,-38) scale(1,1)"><g><path fill="none" stroke="none"/><text fill="#000000" stroke="none" font-family="Arial" font-size="13px" font-style="normal" font-weight="normal" text-decoration="none" x="646" y="324.5">-buildings: List&lt;Buildings&gt;</text></g></g><g transform="translate(-10,-38) scale(1,1)"><g><path fill="none" stroke="none"/><text fill="#000000" stroke="none" font-family="Arial" font-size="13px" font-style="normal" font-weight="normal" text-decoration="none" x="646" y="339.5">-paths: List&lt;Paths&gt;</text></g></g><g transform="translate(-10,-38) scale(1,1)"><path fill="none" stroke="#000000" d="M 656 282 L 656 208" stroke-miterlimit="10"/></g><g transform="translate(-10,-38) scale(1,1)"><path fill="#FFFFFF" stroke="none" d="M 664.419035512032 228.3253497152483 L 656 208 L 647.580964487968 228.3253497152483"/></g><g transform="translate(-10,-38) scale(1,1)"><path fill="none" stroke="#000000" d="M 664.419035512032 228.3253497152483 L 656 208 L 647.580964487968 228.3253497152483 L 664.419035512032 228.3253497152483" stroke-miterlimit="10"/></g><g transform="translate(-10,-38) scale(1,1)"><rect fill="#C0C0C0" stroke="none" x="841" y="289" width="110" height="72" opacity="0.2"/></g><g transform="translate(-10,-38) scale(1,1)"><rect fill="#ffffff" stroke="none" x="834" y="282" width="110" height="72"/></g><g transform="translate(-10,-38) scale(1,1)"><path fill="none" stroke="#000000" d="M 834 282 L 944 282 L 944 354 L 834 354 L 834 282 Z Z" stroke-miterlimit="10"/></g><g transform="translate(-10,-38) scale(1,1)"><path fill="none" stroke="#000000" d="M 834 307 L 944 307" stroke-miterlimit="10"/></g><g transform="translate(-10,-38) scale(1,1)"><path fill="none" stroke="#000000" d="M 834 345 L 944 345" stroke-miterlimit="10"/></g><g transform="translate(-10,-38) scale(1,1)"><g><path fill="none" stroke="none"/><text fill="#000000" stroke="none" font-family="Arial" font-size="13px" font-style="normal" font-weight="bold" text-decoration="none" x="851.5" y="301.5">LoginHandler</text></g></g><g transform="translate(-10,-38) scale(1,1)"><g><path fill="none" stroke="none"/><text fill="#000000" stroke="none" font-family="Arial" font-size="13px" font-style="normal" font-weight="normal" text-decoration="none" x="839" y="324.5">-email: String</text></g></g><g transform="translate(-10,-38) scale(1,1)"><g><path fill="none" stroke="none"/><text fill="#000000" stroke="none" font-family="Arial" font-size="13px" font-style="normal" font-weight="normal" text-decoration="none" x="839" y="339.5">-password: String</text></g></g><g transform="translate(-10,-38) scale(1,1)"><path fill="none" stroke="#000000" d="M 890 282 L 890 176 M 890 176 A 8 8 0 0 0 882 168 L 685 168" stroke-miterlimit="10"/></g><g transform="translate(-10,-38) scale(1,1)"><path fill="#FFFFFF" stroke="none" d="M 705.3253497152483 159.58096448796803 L 685 168 L 705.3253497152483 176.41903551203197"/></g><g transform="translate(-10,-38) scale(1,1)"><path fill="none" stroke="#000000" d="M 705.3253497152483 159.58096448796803 L 685 168 L 705.3253497152483 176.41903551203197 L 705.3253497152483 159.58096448796803" stroke-miterlimit="10"/></g><g transform="translate(-10,-38) scale(1,1)"><rect fill="#C0C0C0" stroke="none" x="982" y="303" width="101" height="44" opacity="0.2"/></g><g transform="translate(-10,-38) scale(1,1)"><rect fill="#ffffff" stroke="none" x="975" y="296" width="101" height="44"/></g><g transform="translate(-10,-38) scale(1,1)"><path fill="none" stroke="#000000" d="M 975 296 L 1076 296 L 1076 340 L 975 340 L 975 296 Z Z" stroke-miterlimit="10"/></g><g transform="translate(-10,-38) scale(1,1)"><path fill="none" stroke="#000000" d="M 975 321 L 1076 321" stroke-miterlimit="10"/></g><g transform="translate(-10,-38) scale(1,1)"><path fill="none" stroke="#000000" d="M 975 331 L 1076 331" stroke-miterlimit="10"/></g><g transform="translate(-10,-38) scale(1,1)"><g><path fill="none" stroke="none"/><text fill="#000000" stroke="none" font-family="Arial" font-size="13px" font-style="normal" font-weight="bold" text-decoration="none" x="984" y="315.5">LogoutHandler</text></g></g><g transform="translate(-10,-38) scale(1,1)"><path fill="none" stroke="#000000" d="M 1026 296 L 1026 128 M 1026 128 A 8 8 0 0 0 1018 120 L 685 120" stroke-miterlimit="10"/></g><g transform="translate(-10,-38) scale(1,1)"><path fill="#FFFFFF" stroke="none" d="M 705.3253497152483 111.58096448796803 L 685 120 L 705.3253497152483 128.41903551203197"/></g><g transform="translate(-10,-38) scale(1,1)"><path fill="none" stroke="#000000" d="M 705.3253497152483 111.58096448796803 L 685 120 L 705.3253497152483 128.41903551203197 L 705.3253497152483 111.58096448796803" stroke-miterlimit="10"/></g><g transform="translate(-10,-38) scale(1,1)"><rect fill="#C0C0C0" stroke="none" x="423" y="527" width="266" height="57" opacity="0.2"/></g><g transform="translate(-10,-38) scale(1,1)"><rect fill="#ffffff" stroke="none" x="416" y="520" width="266" height="57"/></g><g transform="translate(-10,-38) scale(1,1)"><path fill="none" stroke="#000000" d="M 416 520 L 682 520 L 682 577 L 416 577 L 416 520 Z Z" stroke-miterlimit="10"/></g><g transform="translate(-10,-38) scale(1,1)"><path fill="none" stroke="#000000" d="M 416 545 L 682 545" stroke-miterlimit="10"/></g><g transform="translate(-10,-38) scale(1,1)"><path fill="none" stroke="#000000" d="M 416 555 L 682 555" stroke-miterlimit="10"/></g><g transform="translate(-10,-38) scale(1,1)"><g><path fill="none" stroke="none"/><text fill="#000000" stroke="none" font-family="Arial" font-size="13px" font-style="normal" font-weight="bold" text-decoration="none" x="493.5" y="539.5">URLRequestRouter</text></g></g><g transform="translate(-10,-38) scale(1,1)"><g><path fill="none" stroke="none"/><text fill="#000000" stroke="none" font-family="Arial" font-size="13px" font-style="normal" font-weight="normal" text-decoration="none" x="421" y="572.5">+handlerForRequest(url: String, data: JSON)</text><path fill="none" stroke="#000000" d="M 421 572.5 L 678 572.5" stroke-miterlimit="10"/></g></g><g transform="translate(-10,-38) scale(1,1)"><path fill="none" stroke="#000000" d="M 88 347 L 88 552 M 88 552 A 8 8 0 0 0 96 560 L 416 560" stroke-miterlimit="10"/></g><g transform="translate(-10,-38) scale(1,1)"><path fill="#000000" stroke="none" d="M 405.83732514237585 564.209517756016 L 416 560 L 405.83732514237585 555.790482243984 L 394 560"/></g><g transform="translate(-10,-38) scale(1,1)"><path fill="none" stroke="#000000" d="M 405.83732514237585 564.209517756016 L 416 560 L 405.83732514237585 555.790482243984 L 394 560 L 405.83732514237585 564.209517756016" stroke-miterlimit="10"/></g><g transform="translate(-10,-38) scale(1,1)"><path fill="none" stroke="#000000" d="M 256 362 L 256 528 M 256 528 A 8 8 0 0 0 264 536 L 416 536" stroke-miterlimit="10"/></g><g transform="translate(-10,-38) scale(1,1)"><path fill="#000000" stroke="none" d="M 405.83732514237585 540.209517756016 L 416 536 L 405.83732514237585 531.790482243984 L 394 536"/></g><g transform="translate(-10,-38) scale(1,1)"><path fill="none" stroke="#000000" d="M 405.83732514237585 540.209517756016 L 416 536 L 405.83732514237585 531.790482243984 L 394 536 L 405.83732514237585 540.209517756016" stroke-miterlimit="10"/></g><g transform="translate(-10,-38) scale(1,1)"><path fill="none" stroke="#000000" d="M 432 347 L 432 520" stroke-miterlimit="10"/></g><g transform="translate(-10,-38) scale(1,1)"><path fill="#000000" stroke="none" d="M 427.790482243984 509.83732514237585 L 432 520 L 436.209517756016 509.83732514237585 L 432 498"/></g><g transform="translate(-10,-38) scale(1,1)"><path fill="none" stroke="#000000" d="M 427.790482243984 509.83732514237585 L 432 520 L 436.209517756016 509.83732514237585 L 432 498 L 427.790482243984 509.83732514237585" stroke-miterlimit="10"/></g><g transform="translate(-10,-38) scale(1,1)"><path fill="none" stroke="#000000" d="M 543 347 L 543 520" stroke-miterlimit="10"/></g><g transform="translate(-10,-38) scale(1,1)"><path fill="#000000" stroke="none" d="M 538.790482243984 509.83732514237585 L 543 520 L 547.209517756016 509.83732514237585 L 543 498"/></g><g transform="translate(-10,-38) scale(1,1)"><path fill="none" stroke="#000000" d="M 538.790482243984 509.83732514237585 L 543 520 L 547.209517756016 509.83732514237585 L 543 498 L 538.790482243984 509.83732514237585" stroke-miterlimit="10"/></g><g transform="translate(-10,-38) scale(1,1)"><path fill="none" stroke="#000000" d="M 656 354 L 656 520" stroke-miterlimit="10"/></g><g transform="translate(-10,-38) scale(1,1)"><path fill="#000000" stroke="none" d="M 651.790482243984 509.83732514237585 L 656 520 L 660.209517756016 509.83732514237585 L 656 498"/></g><g transform="translate(-10,-38) scale(1,1)"><path fill="none" stroke="#000000" d="M 651.790482243984 509.83732514237585 L 656 520 L 660.209517756016 509.83732514237585 L 656 498 L 651.790482243984 509.83732514237585" stroke-miterlimit="10"/></g><g transform="translate(-10,-38) scale(1,1)"><path fill="none" stroke="#000000" d="M 888 354 L 888 528 M 888 528 A 8 8 0 0 1 880 536 L 682 536" stroke-miterlimit="10"/></g><g transform="translate(-10,-38) scale(1,1)"><path fill="#000000" stroke="none" d="M 692.1626748576241 531.790482243984 L 682 536 L 692.1626748576241 540.209517756016 L 704 536"/></g><g transform="translate(-10,-38) scale(1,1)"><path fill="none" stroke="#000000" d="M 692.1626748576241 531.790482243984 L 682 536 L 692.1626748576241 540.209517756016 L 704 536 L 692.1626748576241 531.790482243984" stroke-miterlimit="10"/></g><g transform="translate(-10,-38) scale(1,1)"><path fill="none" stroke="#000000" d="M 1024 340 L 1024 552 M 1024 552 A 8 8 0 0 1 1016 560 L 682 560" stroke-miterlimit="10"/></g><g transform="translate(-10,-38) scale(1,1)"><path fill="#000000" stroke="none" d="M 692.1626748576241 555.790482243984 L 682 560 L 692.1626748576241 564.209517756016 L 704 560"/></g><g transform="translate(-10,-38) scale(1,1)"><path fill="none" stroke="#000000" d="M 692.1626748576241 555.790482243984 L 682 560 L 692.1626748576241 564.209517756016 L 704 560 L 692.1626748576241 555.790482243984" stroke-miterlimit="10"/></g></g></svg>