<svg version="1.1" xmlns="http://www.w3.org/2000/svg" xmlns:xlink="http://www.w3.org/1999/xlink" width="396" height="228"><defs/><g><g transform="translate(-70,-62) scale(1,1)"><rect fill="#C0C0C0" stroke="none" x="87" y="79" width="150.4" height="15" opacity="0.2"/></g><g transform="translate(-70,-62) scale(1,1)"><rect fill="#C0C0C0" stroke="none" x="87" y="93" width="376" height="194" opacity="0.2"/></g><g transform="translate(-70,-62) scale(1,1)"><rect fill="#ffffff" stroke="none" x="80" y="87" width="376" height="193"/></g><g transform="translate(-70,-62) scale(1,1)"><path fill="none" stroke="#000000" d="M 80 87 L 456 87 L 456 280 L 80 280 L 80 87 Z Z" stroke-miterlimit="10"/></g><g transform="translate(-70,-62) scale(1,1)"><rect fill="#ffffff" stroke="none" x="80" y="72" width="150.4" height="15"/></g><g transform="translate(-70,-62) scale(1,1)"><path fill="none" stroke="#000000" d="M 80 72 L 230.4 72 L 230.4 87 L 80 87 L 80 72 Z Z" stroke-miterlimit="10"/></g><g transform="translate(-70,-62) scale(1,1)"><rect fill="#ffffff" stroke="none" x="80" y="86" width="376" height="194"/></g><g transform="translate(-70,-62) scale(1,1)"><path fill="none" stroke="#000000" d="M 80 86 L 456 86 L 456 280 L 80 280 L 80 86 Z Z" stroke-miterlimit="10"/></g><g transform="translate(-70,-62) scale(1,1)"><g><path fill="none" stroke="none"/><text fill="#000000" stroke="none" font-family="Arial" font-size="13px" font-style="normal" font-weight="bold" text-decoration="none" x="250" y="106.5">server</text></g></g><g transform="translate(-70,-62) scale(1,1)"><g><path fill="none" stroke="none"/><text fill="#000000" stroke="none" font-family="Arial" font-size="13px" font-style="normal" font-weight="normal" text-decoration="none" x="235.5" y="121.5">(from clips)</text></g></g><g transform="translate(-70,-62) scale(1,1)"><rect fill="#C0C0C0" stroke="none" x="290" y="143" width="60.80000000000001" height="15" opacity="0.2"/></g><g transform="translate(-70,-62) scale(1,1)"><rect fill="#C0C0C0" stroke="none" x="290" y="157" width="152" height="114" opacity="0.2"/></g><g transform="translate(-70,-62) scale(1,1)"><rect fill="#ffffff" stroke="none" x="283" y="151" width="152" height="113"/></g><g transform="translate(-70,-62) scale(1,1)"><path fill="none" stroke="#000000" d="M 283 151 L 435 151 L 435 264 L 283 264 L 283 151 Z Z" stroke-miterlimit="10"/></g><g transform="translate(-70,-62) scale(1,1)"><rect fill="#ffffff" stroke="none" x="283" y="136" width="60.80000000000001" height="15"/></g><g transform="translate(-70,-62) scale(1,1)"><path fill="none" stroke="#000000" d="M 283 136 L 343.8 136 L 343.8 151 L 283 151 L 283 136 Z Z" stroke-miterlimit="10"/></g><g transform="translate(-70,-62) scale(1,1)"><rect fill="#ffffff" stroke="none" x="283" y="150" width="152" height="114"/></g><g transform="translate(-70,-62) scale(1,1)"><path fill="none" stroke="#000000" d="M 283 150 L 435 150 L 435 264 L 283 264 L 283 150 Z Z" stroke-miterlimit="10"/></g><g transform="translate(-70,-62) scale(1,1)"><g><path fill="none" stroke="none"/><text fill="#000000" stroke="none" font-family="Arial" font-size="13px" font-style="normal" font-weight="bold" text-decoration="none" x="309.5" y="170.5">urlrequesthandler</text></g></g><g transform="translate(-70,-62) scale(1,1)"><rect fill="#C0C0C0" stroke="none" x="111" y="143" width="60.80000000000001" height="15" opacity="0.2"/></g><g transform="translate(-70,-62) scale(1,1)"><rect fill="#C0C0C0" stroke="none" x="111" y="157" width="152" height="114" opacity="0.2"/></g><g transform="translate(-70,-62) scale(1,1)"><rect fill="#ffffff" stroke="none" x="104" y="151" width="152" height="113"/></g><g transform="translate(-70,-62) scale(1,1)"><path fill="none" stroke="#000000" d="M 104 151 L 256 151 L 256 264 L 104 264 L 104 151 Z Z" stroke-miterlimit="10"/></g><g transform="translate(-70,-62) scale(1,1)"><rect fill="#ffffff" stroke="none" x="104" y="136" width="60.80000000000001" height="15"/></g><g transform="translate(-70,-62) scale(1,1)"><path fill="none" stroke="#000000" d="M 104 136 L 164.8 136 L 164.8 151 L 104 151 L 104 136 Z Z" stroke-miterlimit="10"/></g><g transform="translate(-70,-62) scale(1,1)"><rect fill="#ffffff" stroke="none" x="104" y="150" width="152" height="114"/></g><g transform="translate(-70,-62) scale(1,1)"><path fill="none" stroke="#000000" d="M 104 150 L 256 150 L 256 264 L 104 264 L 104 150 Z Z" stroke-miterlimit="10"/></g><g transform="translate(-70,-62) scale(1,1)"><g><path fill="none" stroke="none"/><text fill="#000000" stroke="none" font-family="Arial" font-size="13px" font-style="normal" font-weight="bold" text-decoration="none" x="167.5" y="170.5">data</text></g></g><g transform="translate(-70,-62) scale(1,1)"><path fill="none" stroke="#000000" d="M 283 200 L 256 200" stroke-miterlimit="10" stroke-dasharray="3"/></g><g transform="translate(-70,-62) scale(1,1)"><path fill="none" stroke="#000000" d="M 266.16267485762415 195.790482243984 L 256 200 L 266.16267485762415 204.209517756016" stroke-miterlimit="10"/></g></g></svg>