<svg version="1.1" xmlns="http://www.w3.org/2000/svg" xmlns:xlink="http://www.w3.org/1999/xlink" width="788" height="740"><defs/><g><g transform="translate(-142,-78) scale(1,1)"><rect fill="#C0C0C0" stroke="none" x="159" y="95" width="307.2" height="15" opacity="0.2"/></g><g transform="translate(-142,-78) scale(1,1)"><rect fill="#C0C0C0" stroke="none" x="159" y="109" width="768" height="706" opacity="0.2"/></g><g transform="translate(-142,-78) scale(1,1)"><rect fill="#ffffff" stroke="none" x="152" y="103" width="768" height="705"/></g><g transform="translate(-142,-78) scale(1,1)"><path fill="none" stroke="#000000" d="M 152 103 L 920 103 L 920 808 L 152 808 L 152 103 Z Z" stroke-miterlimit="10"/></g><g transform="translate(-142,-78) scale(1,1)"><rect fill="#ffffff" stroke="none" x="152" y="88" width="307.2" height="15"/></g><g transform="translate(-142,-78) scale(1,1)"><path fill="none" stroke="#000000" d="M 152 88 L 459.2 88 L 459.2 103 L 152 103 L 152 88 Z Z" stroke-miterlimit="10"/></g><g transform="translate(-142,-78) scale(1,1)"><rect fill="#ffffff" stroke="none" x="152" y="102" width="768" height="706"/></g><g transform="translate(-142,-78) scale(1,1)"><path fill="none" stroke="#000000" d="M 152 102 L 920 102 L 920 808 L 152 808 L 152 102 Z Z" stroke-miterlimit="10"/></g><g transform="translate(-142,-78) scale(1,1)"><g><path fill="none" stroke="none"/><text fill="#000000" stroke="none" font-family="Arial" font-size="13px" font-style="normal" font-weight="bold" text-decoration="none" x="523.5" y="122.5">data</text></g></g><g transform="translate(-142,-78) scale(1,1)"><g><path fill="none" stroke="none"/><text fill="#000000" stroke="none" font-family="Arial" font-size="13px" font-style="normal" font-weight="normal" text-decoration="none" x="499" y="137.5">(from server)</text></g></g><g transform="translate(-142,-78) scale(1,1)"><rect fill="#C0C0C0" stroke="none" x="383" y="151" width="189" height="147" opacity="0.2"/></g><g transform="translate(-142,-78) scale(1,1)"><rect fill="#ffffff" stroke="none" x="376" y="144" width="189" height="147"/></g><g transform="translate(-142,-78) scale(1,1)"><path fill="none" stroke="#000000" d="M 376 144 L 565 144 L 565 291 L 376 291 L 376 144 Z Z" stroke-miterlimit="10"/></g><g transform="translate(-142,-78) scale(1,1)"><path fill="none" stroke="#000000" d="M 376 169 L 565 169" stroke-miterlimit="10"/></g><g transform="translate(-142,-78) scale(1,1)"><path fill="none" stroke="#000000" d="M 376 282 L 565 282" stroke-miterlimit="10"/></g><g transform="translate(-142,-78) scale(1,1)"><g><path fill="none" stroke="none"/><text fill="#000000" stroke="none" font-family="Arial" font-size="13px" font-style="normal" font-weight="bold" text-decoration="none" x="457" y="163.5">User</text></g></g><g transform="translate(-142,-78) scale(1,1)"><g><path fill="none" stroke="none"/><text fill="#000000" stroke="none" font-family="Arial" font-size="13px" font-style="normal" font-weight="normal" text-decoration="none" x="381" y="186.5">+id: Int {id, readOnly}</text></g></g><g transform="translate(-142,-78) scale(1,1)"><g><path fill="none" stroke="none"/><text fill="#000000" stroke="none" font-family="Arial" font-size="13px" font-style="normal" font-weight="normal" text-decoration="none" x="381" y="201.5">+email: String</text></g></g><g transform="translate(-142,-78) scale(1,1)"><g><path fill="none" stroke="none"/><text fill="#000000" stroke="none" font-family="Arial" font-size="13px" font-style="normal" font-weight="normal" text-decoration="none" x="381" y="216.5">+username: String</text></g></g><g transform="translate(-142,-78) scale(1,1)"><g><path fill="none" stroke="none"/><text fill="#000000" stroke="none" font-family="Arial" font-size="13px" font-style="normal" font-weight="normal" text-decoration="none" x="381" y="231.5">+password: String</text></g></g><g transform="translate(-142,-78) scale(1,1)"><g><path fill="none" stroke="none"/><text fill="#000000" stroke="none" font-family="Arial" font-size="13px" font-style="normal" font-weight="normal" text-decoration="none" x="381" y="246.5">+creationDate: Date {readOnly}</text></g></g><g transform="translate(-142,-78) scale(1,1)"><g><path fill="none" stroke="none"/><text fill="#000000" stroke="none" font-family="Arial" font-size="13px" font-style="normal" font-weight="normal" text-decoration="none" x="381" y="261.5">+modificationDate: Date</text></g></g><g transform="translate(-142,-78) scale(1,1)"><g><path fill="none" stroke="none"/><text fill="#000000" stroke="none" font-family="Arial" font-size="13px" font-style="normal" font-weight="normal" text-decoration="none" x="381" y="276.5">+tokens: List&lt;AuthToken&gt;</text></g></g><g transform="translate(-142,-78) scale(1,1)"><rect fill="#C0C0C0" stroke="none" x="183" y="151" width="142" height="87" opacity="0.2"/></g><g transform="translate(-142,-78) scale(1,1)"><rect fill="#ffffff" stroke="none" x="176" y="144" width="142" height="87"/></g><g transform="translate(-142,-78) scale(1,1)"><path fill="none" stroke="#000000" d="M 176 144 L 318 144 L 318 231 L 176 231 L 176 144 Z Z" stroke-miterlimit="10"/></g><g transform="translate(-142,-78) scale(1,1)"><path fill="none" stroke="#000000" d="M 176 169 L 318 169" stroke-miterlimit="10"/></g><g transform="translate(-142,-78) scale(1,1)"><path fill="none" stroke="#000000" d="M 176 222 L 318 222" stroke-miterlimit="10"/></g><g transform="translate(-142,-78) scale(1,1)"><g><path fill="none" stroke="none"/><text fill="#000000" stroke="none" font-family="Arial" font-size="13px" font-style="normal" font-weight="bold" text-decoration="none" x="215.5" y="163.5">AuthToken</text></g></g><g transform="translate(-142,-78) scale(1,1)"><g><path fill="none" stroke="none"/><text fill="#000000" stroke="none" font-family="Arial" font-size="13px" font-style="normal" font-weight="normal" text-decoration="none" x="181" y="186.5">+token: String {id}</text></g></g><g transform="translate(-142,-78) scale(1,1)"><g><path fill="none" stroke="none"/><text fill="#000000" stroke="none" font-family="Arial" font-size="13px" font-style="normal" font-weight="normal" text-decoration="none" x="181" y="201.5">+expirationDate: Int</text></g></g><g transform="translate(-142,-78) scale(1,1)"><g><path fill="none" stroke="none"/><text fill="#000000" stroke="none" font-family="Arial" font-size="13px" font-style="normal" font-weight="normal" text-decoration="none" x="181" y="216.5">+userID: Int {readOnly}</text></g></g><g transform="translate(-142,-78) scale(1,1)"><rect fill="#C0C0C0" stroke="none" x="753" y="653" width="155" height="147" opacity="0.2"/></g><g transform="translate(-142,-78) scale(1,1)"><rect fill="#ffffff" stroke="none" x="746" y="646" width="155" height="147"/></g><g transform="translate(-142,-78) scale(1,1)"><path fill="none" stroke="#000000" d="M 746 646 L 901 646 L 901 793 L 746 793 L 746 646 Z Z" stroke-miterlimit="10"/></g><g transform="translate(-142,-78) scale(1,1)"><path fill="none" stroke="#000000" d="M 746 671 L 901 671" stroke-miterlimit="10"/></g><g transform="translate(-142,-78) scale(1,1)"><path fill="none" stroke="#000000" d="M 746 784 L 901 784" stroke-miterlimit="10"/></g><g transform="translate(-142,-78) scale(1,1)"><g><path fill="none" stroke="none"/><text fill="#000000" stroke="none" font-family="Arial" font-size="13px" font-style="normal" font-weight="bold" text-decoration="none" x="810" y="665.5">Path</text></g></g><g transform="translate(-142,-78) scale(1,1)"><g><path fill="none" stroke="none"/><text fill="#000000" stroke="none" font-family="Arial" font-size="13px" font-style="normal" font-weight="normal" text-decoration="none" x="751" y="688.5">+id: Int {id, readOnly}</text></g></g><g transform="translate(-142,-78) scale(1,1)"><g><path fill="none" stroke="none"/><text fill="#000000" stroke="none" font-family="Arial" font-size="13px" font-style="normal" font-weight="normal" text-decoration="none" x="751" y="703.5">+title: String</text></g></g><g transform="translate(-142,-78) scale(1,1)"><g><path fill="none" stroke="none"/><text fill="#000000" stroke="none" font-family="Arial" font-size="13px" font-style="normal" font-weight="normal" text-decoration="none" x="751" y="718.5">+description: String</text></g></g><g transform="translate(-142,-78) scale(1,1)"><g><path fill="none" stroke="none"/><text fill="#000000" stroke="none" font-family="Arial" font-size="13px" font-style="normal" font-weight="normal" text-decoration="none" x="751" y="733.5">+target: String</text></g></g><g transform="translate(-142,-78) scale(1,1)"><g><path fill="none" stroke="none"/><text fill="#000000" stroke="none" font-family="Arial" font-size="13px" font-style="normal" font-weight="normal" text-decoration="none" x="751" y="748.5">+startingMessage: String</text></g></g><g transform="translate(-142,-78) scale(1,1)"><g><path fill="none" stroke="none"/><text fill="#000000" stroke="none" font-family="Arial" font-size="13px" font-style="normal" font-weight="normal" text-decoration="none" x="751" y="763.5">+rewardMessage: String</text></g></g><g transform="translate(-142,-78) scale(1,1)"><g><path fill="none" stroke="none"/><text fill="#000000" stroke="none" font-family="Arial" font-size="13px" font-style="normal" font-weight="normal" text-decoration="none" x="751" y="778.5">+position: Int</text></g></g><g transform="translate(-142,-78) scale(1,1)"><rect fill="#C0C0C0" stroke="none" x="592" y="151" width="135" height="87" opacity="0.2"/></g><g transform="translate(-142,-78) scale(1,1)"><rect fill="#ffffff" stroke="none" x="585" y="144" width="135" height="87"/></g><g transform="translate(-142,-78) scale(1,1)"><path fill="none" stroke="#000000" d="M 585 144 L 720 144 L 720 231 L 585 231 L 585 144 Z Z" stroke-miterlimit="10"/></g><g transform="translate(-142,-78) scale(1,1)"><path fill="none" stroke="#000000" d="M 585 169 L 720 169" stroke-miterlimit="10"/></g><g transform="translate(-142,-78) scale(1,1)"><path fill="none" stroke="#000000" d="M 585 222 L 720 222" stroke-miterlimit="10"/></g><g transform="translate(-142,-78) scale(1,1)"><g><path fill="none" stroke="none"/><text fill="#000000" stroke="none" font-family="Arial" font-size="13px" font-style="normal" font-weight="bold" text-decoration="none" x="630" y="163.5">AppInfo</text></g></g><g transform="translate(-142,-78) scale(1,1)"><g><path fill="none" stroke="none"/><text fill="#000000" stroke="none" font-family="Arial" font-size="13px" font-style="normal" font-weight="normal" text-decoration="none" x="590" y="186.5">+description: String</text></g></g><g transform="translate(-142,-78) scale(1,1)"><g><path fill="none" stroke="none"/><text fill="#000000" stroke="none" font-family="Arial" font-size="13px" font-style="normal" font-weight="normal" text-decoration="none" x="590" y="201.5">+supportEmail: String</text></g></g><g transform="translate(-142,-78) scale(1,1)"><g><path fill="none" stroke="none"/><text fill="#000000" stroke="none" font-family="Arial" font-size="13px" font-style="normal" font-weight="normal" text-decoration="none" x="590" y="216.5">+website: String</text></g></g><g transform="translate(-142,-78) scale(1,1)"><rect fill="#C0C0C0" stroke="none" x="431" y="683" width="132" height="117" opacity="0.2"/></g><g transform="translate(-142,-78) scale(1,1)"><rect fill="#ffffff" stroke="none" x="424" y="676" width="132" height="117"/></g><g transform="translate(-142,-78) scale(1,1)"><path fill="none" stroke="#000000" d="M 424 676 L 556 676 L 556 793 L 424 793 L 424 676 Z Z" stroke-miterlimit="10"/></g><g transform="translate(-142,-78) scale(1,1)"><path fill="none" stroke="#000000" d="M 424 701 L 556 701" stroke-miterlimit="10"/></g><g transform="translate(-142,-78) scale(1,1)"><path fill="none" stroke="#000000" d="M 424 784 L 556 784" stroke-miterlimit="10"/></g><g transform="translate(-142,-78) scale(1,1)"><g><path fill="none" stroke="none"/><text fill="#000000" stroke="none" font-family="Arial" font-size="13px" font-style="normal" font-weight="bold" text-decoration="none" x="456" y="695.5">ProofResult</text></g></g><g transform="translate(-142,-78) scale(1,1)"><g><path fill="none" stroke="none"/><text fill="#000000" stroke="none" font-family="Arial" font-size="13px" font-style="normal" font-weight="normal" text-decoration="none" x="429" y="718.5">+id: Int {id, readOnly}</text></g></g><g transform="translate(-142,-78) scale(1,1)"><g><path fill="none" stroke="none"/><text fill="#000000" stroke="none" font-family="Arial" font-size="13px" font-style="normal" font-weight="normal" text-decoration="none" x="429" y="733.5">+pathResultID: Int</text></g></g><g transform="translate(-142,-78) scale(1,1)"><g><path fill="none" stroke="none"/><text fill="#000000" stroke="none" font-family="Arial" font-size="13px" font-style="normal" font-weight="normal" text-decoration="none" x="429" y="748.5">+startTime: Date</text></g></g><g transform="translate(-142,-78) scale(1,1)"><g><path fill="none" stroke="none"/><text fill="#000000" stroke="none" font-family="Arial" font-size="13px" font-style="normal" font-weight="normal" text-decoration="none" x="429" y="763.5">+endTime</text></g></g><g transform="translate(-142,-78) scale(1,1)"><g><path fill="none" stroke="none"/><text fill="#000000" stroke="none" font-family="Arial" font-size="13px" font-style="normal" font-weight="normal" text-decoration="none" x="429" y="778.5">+score: Int</text></g></g><g transform="translate(-142,-78) scale(1,1)"><rect fill="#C0C0C0" stroke="none" x="581" y="455" width="146" height="102" opacity="0.2"/></g><g transform="translate(-142,-78) scale(1,1)"><rect fill="#ffffff" stroke="none" x="574" y="448" width="146" height="102"/></g><g transform="translate(-142,-78) scale(1,1)"><path fill="none" stroke="#000000" d="M 574 448 L 720 448 L 720 550 L 574 550 L 574 448 Z Z" stroke-miterlimit="10"/></g><g transform="translate(-142,-78) scale(1,1)"><path fill="none" stroke="#000000" d="M 574 473 L 720 473" stroke-miterlimit="10"/></g><g transform="translate(-142,-78) scale(1,1)"><path fill="none" stroke="#000000" d="M 574 541 L 720 541" stroke-miterlimit="10"/></g><g transform="translate(-142,-78) scale(1,1)"><g><path fill="none" stroke="none"/><text fill="#000000" stroke="none" font-family="Arial" font-size="13px" font-style="normal" font-weight="bold" text-decoration="none" x="619.5" y="467.5">Proximity</text></g></g><g transform="translate(-142,-78) scale(1,1)"><g><path fill="none" stroke="none"/><text fill="#000000" stroke="none" font-family="Arial" font-size="13px" font-style="normal" font-weight="normal" text-decoration="none" x="579" y="490.5">+id: Int {id, readOnly}</text></g></g><g transform="translate(-142,-78) scale(1,1)"><g><path fill="none" stroke="none"/><text fill="#000000" stroke="none" font-family="Arial" font-size="13px" font-style="normal" font-weight="normal" text-decoration="none" x="579" y="505.5">+stepID: Int</text></g></g><g transform="translate(-142,-78) scale(1,1)"><g><path fill="none" stroke="none"/><text fill="#000000" stroke="none" font-family="Arial" font-size="13px" font-style="normal" font-weight="normal" text-decoration="none" x="579" y="520.5">+percentage: Float?</text></g></g><g transform="translate(-142,-78) scale(1,1)"><g><path fill="none" stroke="none"/><text fill="#000000" stroke="none" font-family="Arial" font-size="13px" font-style="normal" font-weight="normal" text-decoration="none" x="579" y="535.5">+textToDisplay: String?</text></g></g><g transform="translate(-142,-78) scale(1,1)"><rect fill="#C0C0C0" stroke="none" x="183" y="623" width="208" height="177" opacity="0.2"/></g><g transform="translate(-142,-78) scale(1,1)"><rect fill="#ffffff" stroke="none" x="176" y="616" width="208" height="177"/></g><g transform="translate(-142,-78) scale(1,1)"><path fill="none" stroke="#000000" d="M 176 616 L 384 616 L 384 793 L 176 793 L 176 616 Z Z" stroke-miterlimit="10"/></g><g transform="translate(-142,-78) scale(1,1)"><path fill="none" stroke="#000000" d="M 176 641 L 384 641" stroke-miterlimit="10"/></g><g transform="translate(-142,-78) scale(1,1)"><path fill="none" stroke="#000000" d="M 176 784 L 384 784" stroke-miterlimit="10"/></g><g transform="translate(-142,-78) scale(1,1)"><g><path fill="none" stroke="none"/><text fill="#000000" stroke="none" font-family="Arial" font-size="13px" font-style="normal" font-weight="bold" text-decoration="none" x="264.5" y="635.5">Proof</text></g></g><g transform="translate(-142,-78) scale(1,1)"><g><path fill="none" stroke="none"/><text fill="#000000" stroke="none" font-family="Arial" font-size="13px" font-style="normal" font-weight="normal" text-decoration="none" x="181" y="658.5">+id: Int {id, readOnly}</text></g></g><g transform="translate(-142,-78) scale(1,1)"><g><path fill="none" stroke="none"/><text fill="#000000" stroke="none" font-family="Arial" font-size="13px" font-style="normal" font-weight="normal" text-decoration="none" x="181" y="673.5">+stepID: Int</text></g></g><g transform="translate(-142,-78) scale(1,1)"><g><path fill="none" stroke="none"/><text fill="#000000" stroke="none" font-family="Arial" font-size="13px" font-style="normal" font-weight="normal" text-decoration="none" x="181" y="688.5">+title: String</text></g></g><g transform="translate(-142,-78) scale(1,1)"><g><path fill="none" stroke="none"/><text fill="#000000" stroke="none" font-family="Arial" font-size="13px" font-style="normal" font-weight="normal" text-decoration="none" x="181" y="703.5">+instructions: String</text></g></g><g transform="translate(-142,-78) scale(1,1)"><g><path fill="none" stroke="none"/><text fill="#000000" stroke="none" font-family="Arial" font-size="13px" font-style="normal" font-weight="normal" text-decoration="none" x="181" y="718.5">+scoringAlgorithmDataURL: String</text></g></g><g transform="translate(-142,-78) scale(1,1)"><g><path fill="none" stroke="none"/><text fill="#000000" stroke="none" font-family="Arial" font-size="13px" font-style="normal" font-weight="normal" text-decoration="none" x="181" y="733.5">+testType: Int</text></g></g><g transform="translate(-142,-78) scale(1,1)"><g><path fill="none" stroke="none"/><text fill="#000000" stroke="none" font-family="Arial" font-size="13px" font-style="normal" font-weight="normal" text-decoration="none" x="181" y="748.5">+testDataURL: String</text></g></g><g transform="translate(-142,-78) scale(1,1)"><g><path fill="none" stroke="none"/><text fill="#000000" stroke="none" font-family="Arial" font-size="13px" font-style="normal" font-weight="normal" text-decoration="none" x="181" y="763.5">+testTitle: String</text></g></g><g transform="translate(-142,-78) scale(1,1)"><g><path fill="none" stroke="none"/><text fill="#000000" stroke="none" font-family="Arial" font-size="13px" font-style="normal" font-weight="normal" text-decoration="none" x="181" y="778.5">+testInstructions: String</text></g></g><g transform="translate(-142,-78) scale(1,1)"><rect fill="#C0C0C0" stroke="none" x="183" y="325" width="350" height="130" opacity="0.2"/></g><g transform="translate(-142,-78) scale(1,1)"><rect fill="#ffffff" stroke="none" x="176" y="318" width="350" height="130"/></g><g transform="translate(-142,-78) scale(1,1)"><path fill="none" stroke="#000000" d="M 176 318 L 526 318 L 526 448 L 176 448 L 176 318 Z Z" stroke-miterlimit="10"/></g><g transform="translate(-142,-78) scale(1,1)"><path fill="none" stroke="#000000" d="M 176 343 L 526 343" stroke-miterlimit="10"/></g><g transform="translate(-142,-78) scale(1,1)"><path fill="none" stroke="#000000" d="M 176 426 L 526 426" stroke-miterlimit="10"/></g><g transform="translate(-142,-78) scale(1,1)"><g><path fill="none" stroke="none"/><text fill="#000000" stroke="none" font-family="Arial" font-size="13px" font-style="normal" font-weight="bold" text-decoration="none" x="314.5" y="337.5">LeaderBoard</text></g></g><g transform="translate(-142,-78) scale(1,1)"><g><path fill="none" stroke="none"/><text fill="#000000" stroke="none" font-family="Arial" font-size="13px" font-style="normal" font-weight="normal" text-decoration="none" x="181" y="360.5">+id: Int {id, readOnly}</text></g></g><g transform="translate(-142,-78) scale(1,1)"><g><path fill="none" stroke="none"/><text fill="#000000" stroke="none" font-family="Arial" font-size="13px" font-style="normal" font-weight="normal" text-decoration="none" x="181" y="375.5">+pathID: Int {readOnly}</text></g></g><g transform="translate(-142,-78) scale(1,1)"><g><path fill="none" stroke="none"/><text fill="#000000" stroke="none" font-family="Arial" font-size="13px" font-style="normal" font-weight="normal" text-decoration="none" x="181" y="390.5">+lastUpdate: Date {readOnly}</text></g></g><g transform="translate(-142,-78) scale(1,1)"><g><path fill="none" stroke="none"/><text fill="#000000" stroke="none" font-family="Arial" font-size="13px" font-style="normal" font-weight="normal" text-decoration="none" x="181" y="405.5">+nPlayers: Int {readOnly}</text></g></g><g transform="translate(-142,-78) scale(1,1)"><g><path fill="none" stroke="none"/><text fill="#000000" stroke="none" font-family="Arial" font-size="13px" font-style="normal" font-weight="normal" text-decoration="none" x="181" y="420.5">+topScore: Int {readOnly}</text></g></g><g transform="translate(-142,-78) scale(1,1)"><g><path fill="none" stroke="none"/><text fill="#000000" stroke="none" font-family="Arial" font-size="13px" font-style="normal" font-weight="normal" text-decoration="none" x="181" y="443.5">+LeaderBoard(id, pathID, lastUpdate, nPlayers, maxScore)</text></g></g><g transform="translate(-142,-78) scale(1,1)"><rect fill="#C0C0C0" stroke="none" x="776" y="151" width="132" height="102" opacity="0.2"/></g><g transform="translate(-142,-78) scale(1,1)"><rect fill="#ffffff" stroke="none" x="769" y="144" width="132" height="102"/></g><g transform="translate(-142,-78) scale(1,1)"><path fill="none" stroke="#000000" d="M 769 144 L 901 144 L 901 246 L 769 246 L 769 144 Z Z" stroke-miterlimit="10"/></g><g transform="translate(-142,-78) scale(1,1)"><path fill="none" stroke="#000000" d="M 769 169 L 901 169" stroke-miterlimit="10"/></g><g transform="translate(-142,-78) scale(1,1)"><path fill="none" stroke="#000000" d="M 769 237 L 901 237" stroke-miterlimit="10"/></g><g transform="translate(-142,-78) scale(1,1)"><g><path fill="none" stroke="none"/><text fill="#000000" stroke="none" font-family="Arial" font-size="13px" font-style="normal" font-weight="bold" text-decoration="none" x="813" y="163.5">Beacon</text></g></g><g transform="translate(-142,-78) scale(1,1)"><g><path fill="none" stroke="none"/><text fill="#000000" stroke="none" font-family="Arial" font-size="13px" font-style="normal" font-weight="normal" text-decoration="none" x="774" y="186.5">+id: Int {id, readOnly}</text></g></g><g transform="translate(-142,-78) scale(1,1)"><g><path fill="none" stroke="none"/><text fill="#000000" stroke="none" font-family="Arial" font-size="13px" font-style="normal" font-weight="normal" text-decoration="none" x="774" y="201.5">+UUID: String</text></g></g><g transform="translate(-142,-78) scale(1,1)"><g><path fill="none" stroke="none"/><text fill="#000000" stroke="none" font-family="Arial" font-size="13px" font-style="normal" font-weight="normal" text-decoration="none" x="774" y="216.5">+Minor: Int</text></g></g><g transform="translate(-142,-78) scale(1,1)"><g><path fill="none" stroke="none"/><text fill="#000000" stroke="none" font-family="Arial" font-size="13px" font-style="normal" font-weight="normal" text-decoration="none" x="774" y="231.5">+Major: Int</text></g></g><g transform="translate(-142,-78) scale(1,1)"><rect fill="#C0C0C0" stroke="none" x="595" y="327" width="132" height="102" opacity="0.2"/></g><g transform="translate(-142,-78) scale(1,1)"><rect fill="#ffffff" stroke="none" x="588" y="320" width="132" height="102"/></g><g transform="translate(-142,-78) scale(1,1)"><path fill="none" stroke="#000000" d="M 588 320 L 720 320 L 720 422 L 588 422 L 588 320 Z Z" stroke-miterlimit="10"/></g><g transform="translate(-142,-78) scale(1,1)"><path fill="none" stroke="#000000" d="M 588 345 L 720 345" stroke-miterlimit="10"/></g><g transform="translate(-142,-78) scale(1,1)"><path fill="none" stroke="#000000" d="M 588 413 L 720 413" stroke-miterlimit="10"/></g><g transform="translate(-142,-78) scale(1,1)"><g><path fill="none" stroke="none"/><text fill="#000000" stroke="none" font-family="Arial" font-size="13px" font-style="normal" font-weight="bold" text-decoration="none" x="640.5" y="339.5">Step</text></g></g><g transform="translate(-142,-78) scale(1,1)"><g><path fill="none" stroke="none"/><text fill="#000000" stroke="none" font-family="Arial" font-size="13px" font-style="normal" font-weight="normal" text-decoration="none" x="593" y="362.5">+id: Int {id, readOnly}</text></g></g><g transform="translate(-142,-78) scale(1,1)"><g><path fill="none" stroke="none"/><text fill="#000000" stroke="none" font-family="Arial" font-size="13px" font-style="normal" font-weight="normal" text-decoration="none" x="593" y="377.5">+stopBeaconID: Int</text></g></g><g transform="translate(-142,-78) scale(1,1)"><g><path fill="none" stroke="none"/><text fill="#000000" stroke="none" font-family="Arial" font-size="13px" font-style="normal" font-weight="normal" text-decoration="none" x="593" y="392.5">+pathID: Int</text></g></g><g transform="translate(-142,-78) scale(1,1)"><g><path fill="none" stroke="none"/><text fill="#000000" stroke="none" font-family="Arial" font-size="13px" font-style="normal" font-weight="normal" text-decoration="none" x="593" y="407.5">+position: Int</text></g></g><g transform="translate(-142,-78) scale(1,1)"><rect fill="#C0C0C0" stroke="none" x="775" y="311" width="133" height="267" opacity="0.2"/></g><g transform="translate(-142,-78) scale(1,1)"><rect fill="#ffffff" stroke="none" x="768" y="304" width="133" height="267"/></g><g transform="translate(-142,-78) scale(1,1)"><path fill="none" stroke="#000000" d="M 768 304 L 901 304 L 901 571 L 768 571 L 768 304 Z Z" stroke-miterlimit="10"/></g><g transform="translate(-142,-78) scale(1,1)"><path fill="none" stroke="#000000" d="M 768 329 L 901 329" stroke-miterlimit="10"/></g><g transform="translate(-142,-78) scale(1,1)"><path fill="none" stroke="#000000" d="M 768 562 L 901 562" stroke-miterlimit="10"/></g><g transform="translate(-142,-78) scale(1,1)"><g><path fill="none" stroke="none"/><text fill="#000000" stroke="none" font-family="Arial" font-size="13px" font-style="normal" font-weight="bold" text-decoration="none" x="811.5" y="323.5">Building</text></g></g><g transform="translate(-142,-78) scale(1,1)"><g><path fill="none" stroke="none"/><text fill="#000000" stroke="none" font-family="Arial" font-size="13px" font-style="normal" font-weight="normal" text-decoration="none" x="773" y="346.5">+id: Int {id, readOnly}</text></g></g><g transform="translate(-142,-78) scale(1,1)"><g><path fill="none" stroke="none"/><text fill="#000000" stroke="none" font-family="Arial" font-size="13px" font-style="normal" font-weight="normal" text-decoration="none" x="773" y="361.5">+name: String</text></g></g><g transform="translate(-142,-78) scale(1,1)"><g><path fill="none" stroke="none"/><text fill="#000000" stroke="none" font-family="Arial" font-size="13px" font-style="normal" font-weight="normal" text-decoration="none" x="773" y="376.5">+description: String</text></g></g><g transform="translate(-142,-78) scale(1,1)"><g><path fill="none" stroke="none"/><text fill="#000000" stroke="none" font-family="Arial" font-size="13px" font-style="normal" font-weight="normal" text-decoration="none" x="773" y="391.5">+otherInfos: String</text></g></g><g transform="translate(-142,-78) scale(1,1)"><g><path fill="none" stroke="none"/><text fill="#000000" stroke="none" font-family="Arial" font-size="13px" font-style="normal" font-weight="normal" text-decoration="none" x="773" y="406.5">+openingTime: String</text></g></g><g transform="translate(-142,-78) scale(1,1)"><g><path fill="none" stroke="none"/><text fill="#000000" stroke="none" font-family="Arial" font-size="13px" font-style="normal" font-weight="normal" text-decoration="none" x="773" y="421.5">+address: String</text></g></g><g transform="translate(-142,-78) scale(1,1)"><g><path fill="none" stroke="none"/><text fill="#000000" stroke="none" font-family="Arial" font-size="13px" font-style="normal" font-weight="normal" text-decoration="none" x="773" y="436.5">+latitude: Double</text></g></g><g transform="translate(-142,-78) scale(1,1)"><g><path fill="none" stroke="none"/><text fill="#000000" stroke="none" font-family="Arial" font-size="13px" font-style="normal" font-weight="normal" text-decoration="none" x="773" y="451.5">+longitude: Double</text></g></g><g transform="translate(-142,-78) scale(1,1)"><g><path fill="none" stroke="none"/><text fill="#000000" stroke="none" font-family="Arial" font-size="13px" font-style="normal" font-weight="normal" text-decoration="none" x="773" y="466.5">+telephone: String</text></g></g><g transform="translate(-142,-78) scale(1,1)"><g><path fill="none" stroke="none"/><text fill="#000000" stroke="none" font-family="Arial" font-size="13px" font-style="normal" font-weight="normal" text-decoration="none" x="773" y="481.5">+email: String</text></g></g><g transform="translate(-142,-78) scale(1,1)"><g><path fill="none" stroke="none"/><text fill="#000000" stroke="none" font-family="Arial" font-size="13px" font-style="normal" font-weight="normal" text-decoration="none" x="773" y="496.5">+whatsApp: String</text></g></g><g transform="translate(-142,-78) scale(1,1)"><g><path fill="none" stroke="none"/><text fill="#000000" stroke="none" font-family="Arial" font-size="13px" font-style="normal" font-weight="normal" text-decoration="none" x="773" y="511.5">+telegram: String</text></g></g><g transform="translate(-142,-78) scale(1,1)"><g><path fill="none" stroke="none"/><text fill="#000000" stroke="none" font-family="Arial" font-size="13px" font-style="normal" font-weight="normal" text-decoration="none" x="773" y="526.5">+websiteURL: String</text></g></g><g transform="translate(-142,-78) scale(1,1)"><g><path fill="none" stroke="none"/><text fill="#000000" stroke="none" font-family="Arial" font-size="13px" font-style="normal" font-weight="normal" text-decoration="none" x="773" y="541.5">+twitter: String</text></g></g><g transform="translate(-142,-78) scale(1,1)"><g><path fill="none" stroke="none"/><text fill="#000000" stroke="none" font-family="Arial" font-size="13px" font-style="normal" font-weight="normal" text-decoration="none" x="773" y="556.5">+facebook: String</text></g></g><g transform="translate(-142,-78) scale(1,1)"><rect fill="#C0C0C0" stroke="none" x="595" y="668" width="132" height="132" opacity="0.2"/></g><g transform="translate(-142,-78) scale(1,1)"><rect fill="#ffffff" stroke="none" x="588" y="661" width="132" height="132"/></g><g transform="translate(-142,-78) scale(1,1)"><path fill="none" stroke="#000000" d="M 588 661 L 720 661 L 720 793 L 588 793 L 588 661 Z Z" stroke-miterlimit="10"/></g><g transform="translate(-142,-78) scale(1,1)"><path fill="none" stroke="#000000" d="M 588 686 L 720 686" stroke-miterlimit="10"/></g><g transform="translate(-142,-78) scale(1,1)"><path fill="none" stroke="#000000" d="M 588 784 L 720 784" stroke-miterlimit="10"/></g><g transform="translate(-142,-78) scale(1,1)"><g><path fill="none" stroke="none"/><text fill="#000000" stroke="none" font-family="Arial" font-size="13px" font-style="normal" font-weight="bold" text-decoration="none" x="622" y="680.5">PathResult</text></g></g><g transform="translate(-142,-78) scale(1,1)"><g><path fill="none" stroke="none"/><text fill="#000000" stroke="none" font-family="Arial" font-size="13px" font-style="normal" font-weight="normal" text-decoration="none" x="593" y="703.5">+id: Int {id, readOnly}</text></g></g><g transform="translate(-142,-78) scale(1,1)"><g><path fill="none" stroke="none"/><text fill="#000000" stroke="none" font-family="Arial" font-size="13px" font-style="normal" font-weight="normal" text-decoration="none" x="593" y="718.5">+pathID: Int</text></g></g><g transform="translate(-142,-78) scale(1,1)"><g><path fill="none" stroke="none"/><text fill="#000000" stroke="none" font-family="Arial" font-size="13px" font-style="normal" font-weight="normal" text-decoration="none" x="593" y="733.5">+userID: Int</text></g></g><g transform="translate(-142,-78) scale(1,1)"><g><path fill="none" stroke="none"/><text fill="#000000" stroke="none" font-family="Arial" font-size="13px" font-style="normal" font-weight="normal" text-decoration="none" x="593" y="748.5">+totalScore: Int</text></g></g><g transform="translate(-142,-78) scale(1,1)"><g><path fill="none" stroke="none"/><text fill="#000000" stroke="none" font-family="Arial" font-size="13px" font-style="normal" font-weight="normal" text-decoration="none" x="593" y="763.5">+startDate: Date</text></g></g><g transform="translate(-142,-78) scale(1,1)"><g><path fill="none" stroke="none"/><text fill="#000000" stroke="none" font-family="Arial" font-size="13px" font-style="normal" font-weight="normal" text-decoration="none" x="593" y="778.5">+endDate: Date</text></g></g><g transform="translate(-142,-78) scale(1,1)"><rect fill="#C0C0C0" stroke="none" x="183" y="487" width="245" height="115" opacity="0.2"/></g><g transform="translate(-142,-78) scale(1,1)"><rect fill="#ffffff" stroke="none" x="176" y="480" width="245" height="115"/></g><g transform="translate(-142,-78) scale(1,1)"><path fill="none" stroke="#000000" d="M 176 480 L 421 480 L 421 595 L 176 595 L 176 480 Z Z" stroke-miterlimit="10"/></g><g transform="translate(-142,-78) scale(1,1)"><path fill="none" stroke="#000000" d="M 176 505 L 421 505" stroke-miterlimit="10"/></g><g transform="translate(-142,-78) scale(1,1)"><path fill="none" stroke="#000000" d="M 176 573 L 421 573" stroke-miterlimit="10"/></g><g transform="translate(-142,-78) scale(1,1)"><g><path fill="none" stroke="none"/><text fill="#000000" stroke="none" font-family="Arial" font-size="13px" font-style="normal" font-weight="bold" text-decoration="none" x="281.5" y="499.5">Score</text></g></g><g transform="translate(-142,-78) scale(1,1)"><g><path fill="none" stroke="none"/><text fill="#000000" stroke="none" font-family="Arial" font-size="13px" font-style="normal" font-weight="normal" text-decoration="none" x="181" y="522.5">+id: Int {id, readOnly}</text></g></g><g transform="translate(-142,-78) scale(1,1)"><g><path fill="none" stroke="none"/><text fill="#000000" stroke="none" font-family="Arial" font-size="13px" font-style="normal" font-weight="normal" text-decoration="none" x="181" y="537.5">+leaderBoardID: Int {readOnly}</text></g></g><g transform="translate(-142,-78) scale(1,1)"><g><path fill="none" stroke="none"/><text fill="#000000" stroke="none" font-family="Arial" font-size="13px" font-style="normal" font-weight="normal" text-decoration="none" x="181" y="552.5">+userID: Int {readOnly}</text></g></g><g transform="translate(-142,-78) scale(1,1)"><g><path fill="none" stroke="none"/><text fill="#000000" stroke="none" font-family="Arial" font-size="13px" font-style="normal" font-weight="normal" text-decoration="none" x="181" y="567.5">+score: Int {readOnly}</text></g></g><g transform="translate(-142,-78) scale(1,1)"><g><path fill="none" stroke="none"/><text fill="#000000" stroke="none" font-family="Arial" font-size="13px" font-style="normal" font-weight="normal" text-decoration="none" x="181" y="590.5">+Score(id, leaderBoardID, userID, score)</text></g></g><g transform="translate(-142,-78) scale(1,1)"><path fill="none" stroke="#000000" d="M 318 208 L 376 208" stroke-miterlimit="10"/></g><g transform="translate(-142,-78) scale(1,1)"><path fill="#FFFFFF" stroke="none" d="M 365.83732514237585 212.209517756016 L 376 208 L 365.83732514237585 203.790482243984 L 354 208"/></g><g transform="translate(-142,-78) scale(1,1)"><path fill="none" stroke="#000000" d="M 365.83732514237585 212.209517756016 L 376 208 L 365.83732514237585 203.790482243984 L 354 208 L 365.83732514237585 212.209517756016" stroke-miterlimit="10"/></g></g></svg>