<svg version="1.1" xmlns="http://www.w3.org/2000/svg" xmlns:xlink="http://www.w3.org/1999/xlink" width="1136" height="646"><defs/><g><g transform="translate(-18,-52) scale(1,1)"><rect fill="#C0C0C0" stroke="none" x="35" y="69" width="446.4" height="15" opacity="0.2"/></g><g transform="translate(-18,-52) scale(1,1)"><rect fill="#C0C0C0" stroke="none" x="35" y="83" width="1116" height="612" opacity="0.2"/></g><g transform="translate(-18,-52) scale(1,1)"><rect fill="#ffffff" stroke="none" x="28" y="77" width="1116" height="611"/></g><g transform="translate(-18,-52) scale(1,1)"><path fill="none" stroke="#000000" d="M 28 77 L 1144 77 L 1144 688 L 28 688 L 28 77 Z Z" stroke-miterlimit="10"/></g><g transform="translate(-18,-52) scale(1,1)"><rect fill="#ffffff" stroke="none" x="28" y="62" width="446.4" height="15"/></g><g transform="translate(-18,-52) scale(1,1)"><path fill="none" stroke="#000000" d="M 28 62 L 474.4 62 L 474.4 77 L 28 77 L 28 62 Z Z" stroke-miterlimit="10"/></g><g transform="translate(-18,-52) scale(1,1)"><rect fill="#ffffff" stroke="none" x="28" y="76" width="1116" height="612"/></g><g transform="translate(-18,-52) scale(1,1)"><path fill="none" stroke="#000000" d="M 28 76 L 1144 76 L 1144 688 L 28 688 L 28 76 Z Z" stroke-miterlimit="10"/></g><g transform="translate(-18,-52) scale(1,1)"><g><path fill="none" stroke="none"/><text fill="#000000" stroke="none" font-family="Arial" font-size="13px" font-style="normal" font-weight="bold" text-decoration="none" x="536.5" y="96.5">urlrequesthandler</text></g></g><g transform="translate(-18,-52) scale(1,1)"><g><path fill="none" stroke="none"/><text fill="#000000" stroke="none" font-family="Arial" font-size="13px" font-style="normal" font-weight="normal" text-decoration="none" x="549" y="111.5">(from server)</text></g></g><g transform="translate(-18,-52) scale(1,1)"><rect fill="#C0C0C0" stroke="none" x="447" y="143" width="285" height="160" opacity="0.2"/></g><g transform="translate(-18,-52) scale(1,1)"><rect fill="#ffffff" stroke="none" x="440" y="136" width="285" height="160"/></g><g transform="translate(-18,-52) scale(1,1)"><path fill="none" stroke="#000000" d="M 440 136 L 725 136 L 725 296 L 440 296 L 440 136 Z Z" stroke-miterlimit="10"/></g><g transform="translate(-18,-52) scale(1,1)"><path fill="none" stroke="#000000" d="M 440 161 L 725 161" stroke-miterlimit="10"/></g><g transform="translate(-18,-52) scale(1,1)"><path fill="none" stroke="#000000" d="M 440 214 L 725 214" stroke-miterlimit="10"/></g><g transform="translate(-18,-52) scale(1,1)"><g><path fill="none" stroke="none"/><text fill="#000000" stroke="none" font-family="Arial" font-size="13px" font-style="normal" font-weight="bold" text-decoration="none" x="524" y="155.5">URLRequestHandler</text></g></g><g transform="translate(-18,-52) scale(1,1)"><g><path fill="none" stroke="none"/><text fill="#000000" stroke="none" font-family="Arial" font-size="13px" font-style="normal" font-weight="normal" text-decoration="none" x="445" y="178.5">#urlRequest: URLRequest {readOnly}</text></g></g><g transform="translate(-18,-52) scale(1,1)"><g><path fill="none" stroke="none"/><text fill="#000000" stroke="none" font-family="Arial" font-size="13px" font-style="normal" font-weight="normal" text-decoration="none" x="445" y="193.5">+responseJSON: JSON?</text></g></g><g transform="translate(-18,-52) scale(1,1)"><g><path fill="none" stroke="none"/><text fill="#000000" stroke="none" font-family="Arial" font-size="13px" font-style="normal" font-weight="normal" text-decoration="none" x="445" y="208.5">#requestJson: JSON</text></g></g><g transform="translate(-18,-52) scale(1,1)"><g><path fill="none" stroke="none"/><text fill="#000000" stroke="none" font-family="Arial" font-size="13px" font-style="normal" font-weight="normal" text-decoration="none" x="445" y="231.5">-setupRequestJSON()</text></g></g><g transform="translate(-18,-52) scale(1,1)"><g><path fill="none" stroke="none"/><text fill="#000000" stroke="none" font-family="Arial" font-size="13px" font-style="italic" font-weight="normal" text-decoration="none" x="445" y="246.5">#getObjects()</text></g></g><g transform="translate(-18,-52) scale(1,1)"><g><path fill="none" stroke="none"/><text fill="#000000" stroke="none" font-family="Arial" font-size="13px" font-style="italic" font-weight="normal" text-decoration="none" x="445" y="261.5">#parseObjects()</text></g></g><g transform="translate(-18,-52) scale(1,1)"><g><path fill="none" stroke="none"/><text fill="#000000" stroke="none" font-family="Arial" font-size="13px" font-style="normal" font-weight="normal" text-decoration="none" x="445" y="276.5">#sendObjects()</text></g></g><g transform="translate(-18,-52) scale(1,1)"><g><path fill="none" stroke="none"/><text fill="#000000" stroke="none" font-family="Arial" font-size="13px" font-style="normal" font-weight="normal" text-decoration="none" x="445" y="291.5">+URLRequestHandler(urlRequest: URLRequest)</text></g></g><g transform="translate(-18,-52) scale(1,1)"><rect fill="#C0C0C0" stroke="none" x="67" y="385" width="136" height="57" opacity="0.2"/></g><g transform="translate(-18,-52) scale(1,1)"><rect fill="#ffffff" stroke="none" x="60" y="378" width="136" height="57"/></g><g transform="translate(-18,-52) scale(1,1)"><path fill="none" stroke="#000000" d="M 60 378 L 196 378 L 196 435 L 60 435 L 60 378 Z Z" stroke-miterlimit="10"/></g><g transform="translate(-18,-52) scale(1,1)"><path fill="none" stroke="#000000" d="M 60 403 L 196 403" stroke-miterlimit="10"/></g><g transform="translate(-18,-52) scale(1,1)"><path fill="none" stroke="#000000" d="M 60 426 L 196 426" stroke-miterlimit="10"/></g><g transform="translate(-18,-52) scale(1,1)"><g><path fill="none" stroke="none"/><text fill="#000000" stroke="none" font-family="Arial" font-size="13px" font-style="normal" font-weight="bold" text-decoration="none" x="68.5" y="397.5">UserResultsProvider</text></g></g><g transform="translate(-18,-52) scale(1,1)"><g><path fill="none" stroke="none"/><text fill="#000000" stroke="none" font-family="Arial" font-size="13px" font-style="normal" font-weight="normal" text-decoration="none" x="65" y="420.5">-results: List&lt;Result&gt;</text></g></g><g transform="translate(-18,-52) scale(1,1)"><path fill="none" stroke="#000000" d="M 129 378 L 129 216 M 129 216 A 8 8 0 0 1 137 208 L 440 208" stroke-miterlimit="10"/></g><g transform="translate(-18,-52) scale(1,1)"><path fill="#FFFFFF" stroke="none" d="M 419.6746502847517 216.41903551203197 L 440 208 L 419.6746502847517 199.58096448796803"/></g><g transform="translate(-18,-52) scale(1,1)"><path fill="none" stroke="#000000" d="M 419.6746502847517 216.41903551203197 L 440 208 L 419.6746502847517 199.58096448796803 L 419.6746502847517 216.41903551203197" stroke-miterlimit="10"/></g><g transform="translate(-18,-52) scale(1,1)"><rect fill="#C0C0C0" stroke="none" x="234" y="370" width="135" height="87" opacity="0.2"/></g><g transform="translate(-18,-52) scale(1,1)"><rect fill="#ffffff" stroke="none" x="227" y="363" width="135" height="87"/></g><g transform="translate(-18,-52) scale(1,1)"><path fill="none" stroke="#000000" d="M 227 363 L 362 363 L 362 450 L 227 450 L 227 363 Z Z" stroke-miterlimit="10"/></g><g transform="translate(-18,-52) scale(1,1)"><path fill="none" stroke="#000000" d="M 227 388 L 362 388" stroke-miterlimit="10"/></g><g transform="translate(-18,-52) scale(1,1)"><path fill="none" stroke="#000000" d="M 227 441 L 362 441" stroke-miterlimit="10"/></g><g transform="translate(-18,-52) scale(1,1)"><g><path fill="none" stroke="none"/><text fill="#000000" stroke="none" font-family="Arial" font-size="13px" font-style="normal" font-weight="bold" text-decoration="none" x="248" y="382.5">AppInfoProvider</text></g></g><g transform="translate(-18,-52) scale(1,1)"><g><path fill="none" stroke="none"/><text fill="#000000" stroke="none" font-family="Arial" font-size="13px" font-style="normal" font-weight="normal" text-decoration="none" x="232" y="405.5">-description: String</text></g></g><g transform="translate(-18,-52) scale(1,1)"><g><path fill="none" stroke="none"/><text fill="#000000" stroke="none" font-family="Arial" font-size="13px" font-style="normal" font-weight="normal" text-decoration="none" x="232" y="420.5">+supportEmail: String</text></g></g><g transform="translate(-18,-52) scale(1,1)"><g><path fill="none" stroke="none"/><text fill="#000000" stroke="none" font-family="Arial" font-size="13px" font-style="normal" font-weight="normal" text-decoration="none" x="232" y="435.5">+websiteURL: String</text></g></g><g transform="translate(-18,-52) scale(1,1)"><path fill="none" stroke="#000000" d="M 295 363 L 295 264 M 295 264 A 8 8 0 0 1 303 256 L 440 256" stroke-miterlimit="10"/></g><g transform="translate(-18,-52) scale(1,1)"><path fill="#FFFFFF" stroke="none" d="M 419.6746502847517 264.419035512032 L 440 256 L 419.6746502847517 247.58096448796803"/></g><g transform="translate(-18,-52) scale(1,1)"><path fill="none" stroke="#000000" d="M 419.6746502847517 264.419035512032 L 440 256 L 419.6746502847517 247.58096448796803 L 419.6746502847517 264.419035512032" stroke-miterlimit="10"/></g><g transform="translate(-18,-52) scale(1,1)"><rect fill="#C0C0C0" stroke="none" x="400" y="385" width="90" height="57" opacity="0.2"/></g><g transform="translate(-18,-52) scale(1,1)"><rect fill="#ffffff" stroke="none" x="393" y="378" width="90" height="57"/></g><g transform="translate(-18,-52) scale(1,1)"><path fill="none" stroke="#000000" d="M 393 378 L 483 378 L 483 435 L 393 435 L 393 378 Z Z" stroke-miterlimit="10"/></g><g transform="translate(-18,-52) scale(1,1)"><path fill="none" stroke="#000000" d="M 393 403 L 483 403" stroke-miterlimit="10"/></g><g transform="translate(-18,-52) scale(1,1)"><path fill="none" stroke="#000000" d="M 393 426 L 483 426" stroke-miterlimit="10"/></g><g transform="translate(-18,-52) scale(1,1)"><g><path fill="none" stroke="none"/><text fill="#000000" stroke="none" font-family="Arial" font-size="13px" font-style="normal" font-weight="bold" text-decoration="none" x="400.5" y="397.5">PathProvider</text></g></g><g transform="translate(-18,-52) scale(1,1)"><g><path fill="none" stroke="none"/><text fill="#000000" stroke="none" font-family="Arial" font-size="13px" font-style="normal" font-weight="normal" text-decoration="none" x="398" y="420.5">-path: Path</text></g></g><g transform="translate(-18,-52) scale(1,1)"><path fill="none" stroke="#000000" d="M 472 378 L 472 296" stroke-miterlimit="10"/></g><g transform="translate(-18,-52) scale(1,1)"><path fill="#FFFFFF" stroke="none" d="M 480.419035512032 316.3253497152483 L 472 296 L 463.580964487968 316.3253497152483"/></g><g transform="translate(-18,-52) scale(1,1)"><path fill="none" stroke="#000000" d="M 480.419035512032 316.3253497152483 L 472 296 L 463.580964487968 316.3253497152483 L 480.419035512032 316.3253497152483" stroke-miterlimit="10"/></g><g transform="translate(-18,-52) scale(1,1)"><rect fill="#C0C0C0" stroke="none" x="521" y="385" width="136" height="57" opacity="0.2"/></g><g transform="translate(-18,-52) scale(1,1)"><rect fill="#ffffff" stroke="none" x="514" y="378" width="136" height="57"/></g><g transform="translate(-18,-52) scale(1,1)"><path fill="none" stroke="#000000" d="M 514 378 L 650 378 L 650 435 L 514 435 L 514 378 Z Z" stroke-miterlimit="10"/></g><g transform="translate(-18,-52) scale(1,1)"><path fill="none" stroke="#000000" d="M 514 403 L 650 403" stroke-miterlimit="10"/></g><g transform="translate(-18,-52) scale(1,1)"><path fill="none" stroke="#000000" d="M 514 426 L 650 426" stroke-miterlimit="10"/></g><g transform="translate(-18,-52) scale(1,1)"><g><path fill="none" stroke="none"/><text fill="#000000" stroke="none" font-family="Arial" font-size="13px" font-style="normal" font-weight="bold" text-decoration="none" x="522.5" y="397.5">PathResultsProvider</text></g></g><g transform="translate(-18,-52) scale(1,1)"><g><path fill="none" stroke="none"/><text fill="#000000" stroke="none" font-family="Arial" font-size="13px" font-style="normal" font-weight="normal" text-decoration="none" x="519" y="420.5">-results: List&lt;Result&gt;</text></g></g><g transform="translate(-18,-52) scale(1,1)"><path fill="none" stroke="#000000" d="M 582 378 L 582 296" stroke-miterlimit="10"/></g><g transform="translate(-18,-52) scale(1,1)"><path fill="#FFFFFF" stroke="none" d="M 590.419035512032 316.3253497152483 L 582 296 L 573.580964487968 316.3253497152483"/></g><g transform="translate(-18,-52) scale(1,1)"><path fill="none" stroke="#000000" d="M 590.419035512032 316.3253497152483 L 582 296 L 573.580964487968 316.3253497152483 L 590.419035512032 316.3253497152483" stroke-miterlimit="10"/></g><g transform="translate(-18,-52) scale(1,1)"><rect fill="#C0C0C0" stroke="none" x="688" y="377" width="162" height="72" opacity="0.2"/></g><g transform="translate(-18,-52) scale(1,1)"><rect fill="#ffffff" stroke="none" x="681" y="370" width="162" height="72"/></g><g transform="translate(-18,-52) scale(1,1)"><path fill="none" stroke="#000000" d="M 681 370 L 843 370 L 843 442 L 681 442 L 681 370 Z Z" stroke-miterlimit="10"/></g><g transform="translate(-18,-52) scale(1,1)"><path fill="none" stroke="#000000" d="M 681 395 L 843 395" stroke-miterlimit="10"/></g><g transform="translate(-18,-52) scale(1,1)"><path fill="none" stroke="#000000" d="M 681 433 L 843 433" stroke-miterlimit="10"/></g><g transform="translate(-18,-52) scale(1,1)"><g><path fill="none" stroke="none"/><text fill="#000000" stroke="none" font-family="Arial" font-size="13px" font-style="normal" font-weight="bold" text-decoration="none" x="711.5" y="389.5">BuildingsProvider</text></g></g><g transform="translate(-18,-52) scale(1,1)"><g><path fill="none" stroke="none"/><text fill="#000000" stroke="none" font-family="Arial" font-size="13px" font-style="normal" font-weight="normal" text-decoration="none" x="686" y="412.5">-buildings: List&lt;Buildings&gt;</text></g></g><g transform="translate(-18,-52) scale(1,1)"><g><path fill="none" stroke="none"/><text fill="#000000" stroke="none" font-family="Arial" font-size="13px" font-style="normal" font-weight="normal" text-decoration="none" x="686" y="427.5">-paths: List&lt;Paths&gt;</text></g></g><g transform="translate(-18,-52) scale(1,1)"><path fill="none" stroke="#000000" d="M 696 370 L 696 296" stroke-miterlimit="10"/></g><g transform="translate(-18,-52) scale(1,1)"><path fill="#FFFFFF" stroke="none" d="M 704.419035512032 316.3253497152483 L 696 296 L 687.580964487968 316.3253497152483"/></g><g transform="translate(-18,-52) scale(1,1)"><path fill="none" stroke="#000000" d="M 704.419035512032 316.3253497152483 L 696 296 L 687.580964487968 316.3253497152483 L 704.419035512032 316.3253497152483" stroke-miterlimit="10"/></g><g transform="translate(-18,-52) scale(1,1)"><rect fill="#C0C0C0" stroke="none" x="881" y="377" width="110" height="72" opacity="0.2"/></g><g transform="translate(-18,-52) scale(1,1)"><rect fill="#ffffff" stroke="none" x="874" y="370" width="110" height="72"/></g><g transform="translate(-18,-52) scale(1,1)"><path fill="none" stroke="#000000" d="M 874 370 L 984 370 L 984 442 L 874 442 L 874 370 Z Z" stroke-miterlimit="10"/></g><g transform="translate(-18,-52) scale(1,1)"><path fill="none" stroke="#000000" d="M 874 395 L 984 395" stroke-miterlimit="10"/></g><g transform="translate(-18,-52) scale(1,1)"><path fill="none" stroke="#000000" d="M 874 433 L 984 433" stroke-miterlimit="10"/></g><g transform="translate(-18,-52) scale(1,1)"><g><path fill="none" stroke="none"/><text fill="#000000" stroke="none" font-family="Arial" font-size="13px" font-style="normal" font-weight="bold" text-decoration="none" x="891.5" y="389.5">LoginHandler</text></g></g><g transform="translate(-18,-52) scale(1,1)"><g><path fill="none" stroke="none"/><text fill="#000000" stroke="none" font-family="Arial" font-size="13px" font-style="normal" font-weight="normal" text-decoration="none" x="879" y="412.5">-email: String</text></g></g><g transform="translate(-18,-52) scale(1,1)"><g><path fill="none" stroke="none"/><text fill="#000000" stroke="none" font-family="Arial" font-size="13px" font-style="normal" font-weight="normal" text-decoration="none" x="879" y="427.5">-password: String</text></g></g><g transform="translate(-18,-52) scale(1,1)"><path fill="none" stroke="#000000" d="M 930 370 L 930 264 M 930 264 A 8 8 0 0 0 922 256 L 725 256" stroke-miterlimit="10"/></g><g transform="translate(-18,-52) scale(1,1)"><path fill="#FFFFFF" stroke="none" d="M 745.3253497152483 247.58096448796803 L 725 256 L 745.3253497152483 264.419035512032"/></g><g transform="translate(-18,-52) scale(1,1)"><path fill="none" stroke="#000000" d="M 745.3253497152483 247.58096448796803 L 725 256 L 745.3253497152483 264.419035512032 L 745.3253497152483 247.58096448796803" stroke-miterlimit="10"/></g><g transform="translate(-18,-52) scale(1,1)"><rect fill="#C0C0C0" stroke="none" x="1022" y="391" width="101" height="44" opacity="0.2"/></g><g transform="translate(-18,-52) scale(1,1)"><rect fill="#ffffff" stroke="none" x="1015" y="384" width="101" height="44"/></g><g transform="translate(-18,-52) scale(1,1)"><path fill="none" stroke="#000000" d="M 1015 384 L 1116 384 L 1116 428 L 1015 428 L 1015 384 Z Z" stroke-miterlimit="10"/></g><g transform="translate(-18,-52) scale(1,1)"><path fill="none" stroke="#000000" d="M 1015 409 L 1116 409" stroke-miterlimit="10"/></g><g transform="translate(-18,-52) scale(1,1)"><path fill="none" stroke="#000000" d="M 1015 419 L 1116 419" stroke-miterlimit="10"/></g><g transform="translate(-18,-52) scale(1,1)"><g><path fill="none" stroke="none"/><text fill="#000000" stroke="none" font-family="Arial" font-size="13px" font-style="normal" font-weight="bold" text-decoration="none" x="1024" y="403.5">LogoutHandler</text></g></g><g transform="translate(-18,-52) scale(1,1)"><path fill="none" stroke="#000000" d="M 1066 384 L 1066 216 M 1066 216 A 8 8 0 0 0 1058 208 L 725 208" stroke-miterlimit="10"/></g><g transform="translate(-18,-52) scale(1,1)"><path fill="#FFFFFF" stroke="none" d="M 745.3253497152483 199.58096448796803 L 725 208 L 745.3253497152483 216.41903551203197"/></g><g transform="translate(-18,-52) scale(1,1)"><path fill="none" stroke="#000000" d="M 745.3253497152483 199.58096448796803 L 725 208 L 745.3253497152483 216.41903551203197 L 745.3253497152483 199.58096448796803" stroke-miterlimit="10"/></g><g transform="translate(-18,-52) scale(1,1)"><rect fill="#C0C0C0" stroke="none" x="463" y="615" width="266" height="57" opacity="0.2"/></g><g transform="translate(-18,-52) scale(1,1)"><rect fill="#ffffff" stroke="none" x="456" y="608" width="266" height="57"/></g><g transform="translate(-18,-52) scale(1,1)"><path fill="none" stroke="#000000" d="M 456 608 L 722 608 L 722 665 L 456 665 L 456 608 Z Z" stroke-miterlimit="10"/></g><g transform="translate(-18,-52) scale(1,1)"><path fill="none" stroke="#000000" d="M 456 633 L 722 633" stroke-miterlimit="10"/></g><g transform="translate(-18,-52) scale(1,1)"><path fill="none" stroke="#000000" d="M 456 643 L 722 643" stroke-miterlimit="10"/></g><g transform="translate(-18,-52) scale(1,1)"><g><path fill="none" stroke="none"/><text fill="#000000" stroke="none" font-family="Arial" font-size="13px" font-style="normal" font-weight="bold" text-decoration="none" x="533.5" y="627.5">URLRequestRouter</text></g></g><g transform="translate(-18,-52) scale(1,1)"><g><path fill="none" stroke="none"/><text fill="#000000" stroke="none" font-family="Arial" font-size="13px" font-style="normal" font-weight="normal" text-decoration="none" x="461" y="660.5">+handlerForRequest(url: String, data: JSON)</text><path fill="none" stroke="#000000" d="M 461 660.5 L 718 660.5" stroke-miterlimit="10"/></g></g><g transform="translate(-18,-52) scale(1,1)"><path fill="none" stroke="#000000" d="M 128 435 L 128 640 M 128 640 A 8 8 0 0 0 136 648 L 456 648" stroke-miterlimit="10"/></g><g transform="translate(-18,-52) scale(1,1)"><path fill="#000000" stroke="none" d="M 445.83732514237585 652.209517756016 L 456 648 L 445.83732514237585 643.790482243984 L 434 648"/></g><g transform="translate(-18,-52) scale(1,1)"><path fill="none" stroke="#000000" d="M 445.83732514237585 652.209517756016 L 456 648 L 445.83732514237585 643.790482243984 L 434 648 L 445.83732514237585 652.209517756016" stroke-miterlimit="10"/></g><g transform="translate(-18,-52) scale(1,1)"><path fill="none" stroke="#000000" d="M 296 450 L 296 616 M 296 616 A 8 8 0 0 0 304 624 L 456 624" stroke-miterlimit="10"/></g><g transform="translate(-18,-52) scale(1,1)"><path fill="#000000" stroke="none" d="M 445.83732514237585 628.209517756016 L 456 624 L 445.83732514237585 619.790482243984 L 434 624"/></g><g transform="translate(-18,-52) scale(1,1)"><path fill="none" stroke="#000000" d="M 445.83732514237585 628.209517756016 L 456 624 L 445.83732514237585 619.790482243984 L 434 624 L 445.83732514237585 628.209517756016" stroke-miterlimit="10"/></g><g transform="translate(-18,-52) scale(1,1)"><path fill="none" stroke="#000000" d="M 472 435 L 472 608" stroke-miterlimit="10"/></g><g transform="translate(-18,-52) scale(1,1)"><path fill="#000000" stroke="none" d="M 467.790482243984 597.8373251423759 L 472 608 L 476.209517756016 597.8373251423759 L 472 586"/></g><g transform="translate(-18,-52) scale(1,1)"><path fill="none" stroke="#000000" d="M 467.790482243984 597.8373251423759 L 472 608 L 476.209517756016 597.8373251423759 L 472 586 L 467.790482243984 597.8373251423759" stroke-miterlimit="10"/></g><g transform="translate(-18,-52) scale(1,1)"><path fill="none" stroke="#000000" d="M 583 435 L 583 608" stroke-miterlimit="10"/></g><g transform="translate(-18,-52) scale(1,1)"><path fill="#000000" stroke="none" d="M 578.790482243984 597.8373251423759 L 583 608 L 587.209517756016 597.8373251423759 L 583 586"/></g><g transform="translate(-18,-52) scale(1,1)"><path fill="none" stroke="#000000" d="M 578.790482243984 597.8373251423759 L 583 608 L 587.209517756016 597.8373251423759 L 583 586 L 578.790482243984 597.8373251423759" stroke-miterlimit="10"/></g><g transform="translate(-18,-52) scale(1,1)"><path fill="none" stroke="#000000" d="M 696 442 L 696 608" stroke-miterlimit="10"/></g><g transform="translate(-18,-52) scale(1,1)"><path fill="#000000" stroke="none" d="M 691.790482243984 597.8373251423759 L 696 608 L 700.209517756016 597.8373251423759 L 696 586"/></g><g transform="translate(-18,-52) scale(1,1)"><path fill="none" stroke="#000000" d="M 691.790482243984 597.8373251423759 L 696 608 L 700.209517756016 597.8373251423759 L 696 586 L 691.790482243984 597.8373251423759" stroke-miterlimit="10"/></g><g transform="translate(-18,-52) scale(1,1)"><path fill="none" stroke="#000000" d="M 928 442 L 928 616 M 928 616 A 8 8 0 0 1 920 624 L 722 624" stroke-miterlimit="10"/></g><g transform="translate(-18,-52) scale(1,1)"><path fill="#000000" stroke="none" d="M 732.1626748576241 619.790482243984 L 722 624 L 732.1626748576241 628.209517756016 L 744 624"/></g><g transform="translate(-18,-52) scale(1,1)"><path fill="none" stroke="#000000" d="M 732.1626748576241 619.790482243984 L 722 624 L 732.1626748576241 628.209517756016 L 744 624 L 732.1626748576241 619.790482243984" stroke-miterlimit="10"/></g><g transform="translate(-18,-52) scale(1,1)"><path fill="none" stroke="#000000" d="M 1064 428 L 1064 640 M 1064 640 A 8 8 0 0 1 1056 648 L 722 648" stroke-miterlimit="10"/></g><g transform="translate(-18,-52) scale(1,1)"><path fill="#000000" stroke="none" d="M 732.1626748576241 643.790482243984 L 722 648 L 732.1626748576241 652.209517756016 L 744 648"/></g><g transform="translate(-18,-52) scale(1,1)"><path fill="none" stroke="#000000" d="M 732.1626748576241 643.790482243984 L 722 648 L 732.1626748576241 652.209517756016 L 744 648 L 732.1626748576241 643.790482243984" stroke-miterlimit="10"/></g></g></svg>