<svg version="1.1" xmlns="http://www.w3.org/2000/svg" xmlns:xlink="http://www.w3.org/1999/xlink" width="1484" height="868"><defs/><g><g transform="translate(-54,-46) scale(1,1)"><rect fill="#C0C0C0" stroke="none" x="71" y="63" width="585.6" height="15" opacity="0.2"/></g><g transform="translate(-54,-46) scale(1,1)"><rect fill="#C0C0C0" stroke="none" x="71" y="77" width="1464" height="834" opacity="0.2"/></g><g transform="translate(-54,-46) scale(1,1)"><rect fill="#ffffff" stroke="none" x="64" y="71" width="1464" height="833"/></g><g transform="translate(-54,-46) scale(1,1)"><path fill="none" stroke="#000000" d="M 64 71 L 1528 71 L 1528 904 L 64 904 L 64 71 Z Z" stroke-miterlimit="10"/></g><g transform="translate(-54,-46) scale(1,1)"><rect fill="#ffffff" stroke="none" x="64" y="56" width="585.6" height="15"/></g><g transform="translate(-54,-46) scale(1,1)"><path fill="none" stroke="#000000" d="M 64 56 L 649.6 56 L 649.6 71 L 64 71 L 64 56 Z Z" stroke-miterlimit="10"/></g><g transform="translate(-54,-46) scale(1,1)"><rect fill="#ffffff" stroke="none" x="64" y="70" width="1464" height="834"/></g><g transform="translate(-54,-46) scale(1,1)"><path fill="none" stroke="#000000" d="M 64 70 L 1528 70 L 1528 904 L 64 904 L 64 70 Z Z" stroke-miterlimit="10"/></g><g transform="translate(-54,-46) scale(1,1)"><g><path fill="none" stroke="none"/><text fill="#000000" stroke="none" font-family="Arial" font-size="13px" font-style="normal" font-weight="bold" text-decoration="none" x="759.5" y="90.5">URLRequest</text></g></g><g transform="translate(-54,-46) scale(1,1)"><rect fill="#C0C0C0" stroke="none" x="327" y="95" width="266.10546875" height="145" opacity="0.2"/></g><g transform="translate(-54,-46) scale(1,1)"><rect fill="#ffffff" stroke="none" x="320" y="88" width="266.10546875" height="145"/></g><g transform="translate(-54,-46) scale(1,1)"><path fill="none" stroke="#000000" d="M 320 88 L 586.10546875 88 L 586.10546875 233 L 320 233 L 320 88 Z Z" stroke-miterlimit="10"/></g><g transform="translate(-54,-46) scale(1,1)"><path fill="none" stroke="#000000" d="M 320 113 L 586.10546875 113" stroke-miterlimit="10"/></g><g transform="translate(-54,-46) scale(1,1)"><path fill="none" stroke="#000000" d="M 320 211 L 586.10546875 211" stroke-miterlimit="10"/></g><g transform="translate(-54,-46) scale(1,1)"><g><path fill="none" stroke="none"/><text fill="#000000" stroke="none" font-family="Arial" font-size="13px" font-style="normal" font-weight="bold" text-decoration="none" x="416.552734375" y="107.5">URLRequest</text></g></g><g transform="translate(-54,-46) scale(1,1)"><g><path fill="none" stroke="none"/><text fill="#000000" stroke="none" font-family="Arial" font-size="13px" font-style="normal" font-weight="normal" text-decoration="none" x="325" y="130.5">#httpMethod: HTTPMethod {readOnly}</text></g></g><g transform="translate(-54,-46) scale(1,1)"><g><path fill="none" stroke="none"/><text fill="#000000" stroke="none" font-family="Arial" font-size="13px" font-style="normal" font-weight="normal" text-decoration="none" x="325" y="145.5">#url: String {readOnly}</text></g></g><g transform="translate(-54,-46) scale(1,1)"><g><path fill="none" stroke="none"/><text fill="#000000" stroke="none" font-family="Arial" font-size="13px" font-style="normal" font-weight="normal" text-decoration="none" x="325" y="160.5">#headers: Dict&lt;String String&gt; {readOnly}</text></g></g><g transform="translate(-54,-46) scale(1,1)"><g><path fill="none" stroke="none"/><text fill="#000000" stroke="none" font-family="Arial" font-size="13px" font-style="normal" font-weight="normal" text-decoration="none" x="325" y="175.5">#body: Json {readOnly}</text></g></g><g transform="translate(-54,-46) scale(1,1)"><g><path fill="none" stroke="none"/><text fill="#000000" stroke="none" font-family="Arial" font-size="13px" font-style="normal" font-weight="normal" text-decoration="none" x="325" y="190.5">#callback: URLCallback?</text></g></g><g transform="translate(-54,-46) scale(1,1)"><g><path fill="none" stroke="none"/><text fill="#000000" stroke="none" font-family="Arial" font-size="13px" font-style="normal" font-weight="normal" text-decoration="none" x="325" y="205.5">#requiresAuthentication: Bool {readOnly}</text></g></g><g transform="translate(-54,-46) scale(1,1)"><g><path fill="none" stroke="none"/><text fill="#000000" stroke="none" font-family="Arial" font-size="13px" font-style="normal" font-weight="normal" text-decoration="none" x="325" y="228.5">~execute()</text></g></g><g transform="translate(-54,-46) scale(1,1)"><rect fill="#C0C0C0" stroke="none" x="367" y="703" width="200.75634765625" height="87" opacity="0.2"/></g><g transform="translate(-54,-46) scale(1,1)"><rect fill="#ffffff" stroke="none" x="360" y="696" width="200.75634765625" height="87"/></g><g transform="translate(-54,-46) scale(1,1)"><path fill="none" stroke="#000000" d="M 360 696 L 560.75634765625 696 L 560.75634765625 783 L 360 783 L 360 696 Z Z" stroke-miterlimit="10"/></g><g transform="translate(-54,-46) scale(1,1)"><path fill="none" stroke="#000000" d="M 360 721 L 560.75634765625 721" stroke-miterlimit="10"/></g><g transform="translate(-54,-46) scale(1,1)"><path fill="none" stroke="#000000" d="M 360 774 L 560.75634765625 774" stroke-miterlimit="10"/></g><g transform="translate(-54,-46) scale(1,1)"><g><path fill="none" stroke="none"/><text fill="#000000" stroke="none" font-family="Arial" font-size="13px" font-style="normal" font-weight="bold" text-decoration="none" x="409.878173828125" y="715.5">BuildingsRequest</text></g></g><g transform="translate(-54,-46) scale(1,1)"><g><path fill="none" stroke="none"/><text fill="#000000" stroke="none" font-family="Arial" font-size="13px" font-style="normal" font-weight="normal" text-decoration="none" x="365" y="738.5">-latitude: Double {readOnly}</text></g></g><g transform="translate(-54,-46) scale(1,1)"><g><path fill="none" stroke="none"/><text fill="#000000" stroke="none" font-family="Arial" font-size="13px" font-style="normal" font-weight="normal" text-decoration="none" x="365" y="753.5">-longitude: Double {readOnly}</text></g></g><g transform="translate(-54,-46) scale(1,1)"><g><path fill="none" stroke="none"/><text fill="#000000" stroke="none" font-family="Arial" font-size="13px" font-style="normal" font-weight="normal" text-decoration="none" x="365" y="768.5">-maxResults: Int {readOnly}</text></g></g><g transform="translate(-54,-46) scale(1,1)"><path fill="none" stroke="#000000" d="M 454 696 L 454 233" stroke-miterlimit="10"/></g><g transform="translate(-54,-46) scale(1,1)"><path fill="#FFFFFF" stroke="none" d="M 462.419035512032 253.3253497152483 L 454 233 L 445.580964487968 253.3253497152483"/></g><g transform="translate(-54,-46) scale(1,1)"><path fill="none" stroke="#000000" d="M 462.419035512032 253.3253497152483 L 454 233 L 445.580964487968 253.3253497152483 L 462.419035512032 253.3253497152483" stroke-miterlimit="10"/></g><g transform="translate(-54,-46) scale(1,1)"><rect fill="#C0C0C0" stroke="none" x="327" y="295" width="102.5517578125" height="105" opacity="0.2"/></g><g transform="translate(-54,-46) scale(1,1)"><rect fill="#ffffff" stroke="none" x="320" y="288" width="102.5517578125" height="105"/></g><g transform="translate(-54,-46) scale(1,1)"><path fill="none" stroke="#000000" d="M 320 288 L 422.5517578125 288 L 422.5517578125 393 L 320 393 L 320 288 Z Z" stroke-miterlimit="10"/></g><g transform="translate(-54,-46) scale(1,1)"><path fill="none" stroke="#000000" d="M 320 326 L 422.5517578125 326" stroke-miterlimit="10"/></g><g transform="translate(-54,-46) scale(1,1)"><g><path fill="none" stroke="none"/><text fill="#000000" stroke="none" font-family="Arial" font-size="13px" font-style="normal" font-weight="normal" text-decoration="none" x="328.77587890625" y="305.5">«enumeration»</text></g></g><g transform="translate(-54,-46) scale(1,1)"><g><path fill="none" stroke="none"/><text fill="#000000" stroke="none" font-family="Arial" font-size="13px" font-style="normal" font-weight="bold" text-decoration="none" x="332.77587890625" y="320.5">HTTPMethod</text></g></g><g transform="translate(-54,-46) scale(1,1)"><g><path fill="none" stroke="none"/><text fill="#000000" stroke="none" font-family="Arial" font-size="13px" font-style="normal" font-weight="normal" text-decoration="none" x="325" y="343.5">GET</text></g></g><g transform="translate(-54,-46) scale(1,1)"><g><path fill="none" stroke="none"/><text fill="#000000" stroke="none" font-family="Arial" font-size="13px" font-style="normal" font-weight="normal" text-decoration="none" x="325" y="358.5">POST</text></g></g><g transform="translate(-54,-46) scale(1,1)"><g><path fill="none" stroke="none"/><text fill="#000000" stroke="none" font-family="Arial" font-size="13px" font-style="normal" font-weight="normal" text-decoration="none" x="325" y="373.5">PUT</text></g></g><g transform="translate(-54,-46) scale(1,1)"><g><path fill="none" stroke="none"/><text fill="#000000" stroke="none" font-family="Arial" font-size="13px" font-style="normal" font-weight="normal" text-decoration="none" x="325" y="388.5">DELETE</text></g></g><g transform="translate(-54,-46) scale(1,1)"><rect fill="#C0C0C0" stroke="none" x="479" y="615" width="192.98681640625" height="72" opacity="0.2"/></g><g transform="translate(-54,-46) scale(1,1)"><rect fill="#ffffff" stroke="none" x="472" y="608" width="192.98681640625" height="72"/></g><g transform="translate(-54,-46) scale(1,1)"><path fill="none" stroke="#000000" d="M 472 608 L 664.98681640625 608 L 664.98681640625 680 L 472 680 L 472 608 Z Z" stroke-miterlimit="10"/></g><g transform="translate(-54,-46) scale(1,1)"><path fill="none" stroke="#000000" d="M 472 633 L 664.98681640625 633" stroke-miterlimit="10"/></g><g transform="translate(-54,-46) scale(1,1)"><path fill="none" stroke="#000000" d="M 472 671 L 664.98681640625 671" stroke-miterlimit="10"/></g><g transform="translate(-54,-46) scale(1,1)"><g><path fill="none" stroke="none"/><text fill="#000000" stroke="none" font-family="Arial" font-size="13px" font-style="normal" font-weight="bold" text-decoration="none" x="528.993408203125" y="627.5">LoginRequest</text></g></g><g transform="translate(-54,-46) scale(1,1)"><g><path fill="none" stroke="none"/><text fill="#000000" stroke="none" font-family="Arial" font-size="13px" font-style="normal" font-weight="normal" text-decoration="none" x="477" y="650.5">-email: String {readOnly}</text></g></g><g transform="translate(-54,-46) scale(1,1)"><g><path fill="none" stroke="none"/><text fill="#000000" stroke="none" font-family="Arial" font-size="13px" font-style="normal" font-weight="normal" text-decoration="none" x="477" y="665.5">-password: String {readOnly}</text></g></g><g transform="translate(-54,-46) scale(1,1)"><path fill="none" stroke="#000000" d="M 480 608 L 480 233" stroke-miterlimit="10"/></g><g transform="translate(-54,-46) scale(1,1)"><path fill="#FFFFFF" stroke="none" d="M 488.419035512032 253.3253497152483 L 480 233 L 471.580964487968 253.3253497152483"/></g><g transform="translate(-54,-46) scale(1,1)"><path fill="none" stroke="#000000" d="M 488.419035512032 253.3253497152483 L 480 233 L 471.580964487968 253.3253497152483 L 488.419035512032 253.3253497152483" stroke-miterlimit="10"/></g><g transform="translate(-54,-46) scale(1,1)"><rect fill="#C0C0C0" stroke="none" x="695" y="479" width="174.64208984375" height="57" opacity="0.2"/></g><g transform="translate(-54,-46) scale(1,1)"><rect fill="#ffffff" stroke="none" x="688" y="472" width="174.64208984375" height="57"/></g><g transform="translate(-54,-46) scale(1,1)"><path fill="none" stroke="#000000" d="M 688 472 L 862.64208984375 472 L 862.64208984375 529 L 688 529 L 688 472 Z Z" stroke-miterlimit="10"/></g><g transform="translate(-54,-46) scale(1,1)"><path fill="none" stroke="#000000" d="M 688 497 L 862.64208984375 497" stroke-miterlimit="10"/></g><g transform="translate(-54,-46) scale(1,1)"><path fill="none" stroke="#000000" d="M 688 520 L 862.64208984375 520" stroke-miterlimit="10"/></g><g transform="translate(-54,-46) scale(1,1)"><g><path fill="none" stroke="none"/><text fill="#000000" stroke="none" font-family="Arial" font-size="13px" font-style="normal" font-weight="bold" text-decoration="none" x="737.821044921875" y="491.5">PathRequest</text></g></g><g transform="translate(-54,-46) scale(1,1)"><g><path fill="none" stroke="none"/><text fill="#000000" stroke="none" font-family="Arial" font-size="13px" font-style="normal" font-weight="normal" text-decoration="none" x="693" y="514.5">-pathID: String {readOnly}</text></g></g><g transform="translate(-54,-46) scale(1,1)"><path fill="none" stroke="#000000" d="M 688 500 L 531 500 M 531 500 A 8 8 0 0 1 523 492 L 523 233" stroke-miterlimit="10"/></g><g transform="translate(-54,-46) scale(1,1)"><path fill="#FFFFFF" stroke="none" d="M 531.419035512032 253.3253497152483 L 523 233 L 514.580964487968 253.3253497152483"/></g><g transform="translate(-54,-46) scale(1,1)"><path fill="none" stroke="#000000" d="M 531.419035512032 253.3253497152483 L 523 233 L 514.580964487968 253.3253497152483 L 531.419035512032 253.3253497152483" stroke-miterlimit="10"/></g><g transform="translate(-54,-46) scale(1,1)"><rect fill="#C0C0C0" stroke="none" x="607" y="551" width="151.20654296875" height="57" opacity="0.2"/></g><g transform="translate(-54,-46) scale(1,1)"><rect fill="#ffffff" stroke="none" x="600" y="544" width="151.20654296875" height="57"/></g><g transform="translate(-54,-46) scale(1,1)"><path fill="none" stroke="#000000" d="M 600 544 L 751.20654296875 544 L 751.20654296875 601 L 600 601 L 600 544 Z Z" stroke-miterlimit="10"/></g><g transform="translate(-54,-46) scale(1,1)"><path fill="none" stroke="#000000" d="M 600 569 L 751.20654296875 569" stroke-miterlimit="10"/></g><g transform="translate(-54,-46) scale(1,1)"><path fill="none" stroke="#000000" d="M 600 592 L 751.20654296875 592" stroke-miterlimit="10"/></g><g transform="translate(-54,-46) scale(1,1)"><g><path fill="none" stroke="none"/><text fill="#000000" stroke="none" font-family="Arial" font-size="13px" font-style="normal" font-weight="bold" text-decoration="none" x="632.103271484375" y="563.5">LogoutRequest</text></g></g><g transform="translate(-54,-46) scale(1,1)"><g><path fill="none" stroke="none"/><text fill="#000000" stroke="none" font-family="Arial" font-size="13px" font-style="normal" font-weight="normal" text-decoration="none" x="605" y="586.5">-user: User {readOnly}</text></g></g><g transform="translate(-54,-46) scale(1,1)"><path fill="none" stroke="#000000" d="M 688 500 L 531 500 M 531 500 A 8 8 0 0 1 523 492 L 523 233" stroke-miterlimit="10"/></g><g transform="translate(-54,-46) scale(1,1)"><path fill="#FFFFFF" stroke="none" d="M 531.419035512032 253.3253497152483 L 523 233 L 514.580964487968 253.3253497152483"/></g><g transform="translate(-54,-46) scale(1,1)"><path fill="none" stroke="#000000" d="M 531.419035512032 253.3253497152483 L 523 233 L 514.580964487968 253.3253497152483 L 531.419035512032 253.3253497152483" stroke-miterlimit="10"/></g><g transform="translate(-54,-46) scale(1,1)"><path fill="none" stroke="#000000" d="M 600 572 L 512 572 M 512 572 A 8 8 0 0 1 504 564 L 504 233" stroke-miterlimit="10"/></g><g transform="translate(-54,-46) scale(1,1)"><path fill="#FFFFFF" stroke="none" d="M 512.419035512032 253.3253497152483 L 504 233 L 495.580964487968 253.3253497152483"/></g><g transform="translate(-54,-46) scale(1,1)"><path fill="none" stroke="#000000" d="M 512.419035512032 253.3253497152483 L 504 233 L 495.580964487968 253.3253497152483 L 512.419035512032 253.3253497152483" stroke-miterlimit="10"/></g><g transform="translate(-54,-46) scale(1,1)"><rect fill="#C0C0C0" stroke="none" x="95" y="111" width="182.671875" height="100" opacity="0.2"/></g><g transform="translate(-54,-46) scale(1,1)"><rect fill="#ffffff" stroke="none" x="88" y="104" width="182.671875" height="100"/></g><g transform="translate(-54,-46) scale(1,1)"><path fill="none" stroke="#000000" d="M 88 104 L 270.671875 104 L 270.671875 204 L 88 204 L 88 104 Z Z" stroke-miterlimit="10"/></g><g transform="translate(-54,-46) scale(1,1)"><path fill="none" stroke="#000000" d="M 88 129 L 270.671875 129" stroke-miterlimit="10"/></g><g transform="translate(-54,-46) scale(1,1)"><path fill="none" stroke="#000000" d="M 88 182 L 270.671875 182" stroke-miterlimit="10"/></g><g transform="translate(-54,-46) scale(1,1)"><g><path fill="none" stroke="none"/><text fill="#000000" stroke="none" font-family="Arial" font-size="13px" font-style="normal" font-weight="bold" text-decoration="none" x="117.8359375" y="123.5">URLRequestCallback</text></g></g><g transform="translate(-54,-46) scale(1,1)"><g><path fill="none" stroke="none"/><text fill="#000000" stroke="none" font-family="Arial" font-size="13px" font-style="normal" font-weight="normal" text-decoration="none" x="93" y="146.5">+error: Error? {readOnly}</text></g></g><g transform="translate(-54,-46) scale(1,1)"><g><path fill="none" stroke="none"/><text fill="#000000" stroke="none" font-family="Arial" font-size="13px" font-style="normal" font-weight="normal" text-decoration="none" x="93" y="161.5">+data: Bytes? {readOnly}</text></g></g><g transform="translate(-54,-46) scale(1,1)"><g><path fill="none" stroke="none"/><text fill="#000000" stroke="none" font-family="Arial" font-size="13px" font-style="normal" font-weight="normal" text-decoration="none" x="93" y="176.5">+statusCode: Int {readOnly}</text></g></g><g transform="translate(-54,-46) scale(1,1)"><g><path fill="none" stroke="none"/><text fill="#000000" stroke="none" font-family="Arial" font-size="13px" font-style="italic" font-weight="normal" text-decoration="none" x="93" y="199.5">+execute()</text></g></g><g transform="translate(-54,-46) scale(1,1)"><rect fill="#C0C0C0" stroke="none" x="999" y="703" width="513.16259765625" height="177" opacity="0.2"/></g><g transform="translate(-54,-46) scale(1,1)"><rect fill="#ffffff" stroke="none" x="992" y="696" width="513.16259765625" height="177"/></g><g transform="translate(-54,-46) scale(1,1)"><path fill="none" stroke="#000000" d="M 992 696 L 1505.16259765625 696 L 1505.16259765625 873 L 992 873 L 992 696 Z Z" stroke-miterlimit="10"/></g><g transform="translate(-54,-46) scale(1,1)"><path fill="none" stroke="#000000" d="M 992 721 L 1505.16259765625 721" stroke-miterlimit="10"/></g><g transform="translate(-54,-46) scale(1,1)"><path fill="none" stroke="#000000" d="M 992 731 L 1505.16259765625 731" stroke-miterlimit="10"/></g><g transform="translate(-54,-46) scale(1,1)"><g><path fill="none" stroke="none"/><text fill="#000000" stroke="none" font-family="Arial" font-size="13px" font-style="normal" font-weight="bold" text-decoration="none" x="1206.581298828125" y="715.5">RequestMaker</text></g></g><g transform="translate(-54,-46) scale(1,1)"><g><path fill="none" stroke="none"/><text fill="#000000" stroke="none" font-family="Arial" font-size="13px" font-style="normal" font-weight="normal" text-decoration="none" x="997" y="748.5">+login(email: String, password: String, callBack: URLRequestCallback)</text><path fill="none" stroke="#000000" d="M 997 748.5 L 1407 748.5" stroke-miterlimit="10"/></g></g><g transform="translate(-54,-46) scale(1,1)"><g><path fill="none" stroke="none"/><text fill="#000000" stroke="none" font-family="Arial" font-size="13px" font-style="normal" font-weight="normal" text-decoration="none" x="997" y="763.5">+logout(user: User, callback: URLRequestCallback)</text><path fill="none" stroke="#000000" d="M 997 763.5 L 1295 763.5" stroke-miterlimit="10"/></g></g><g transform="translate(-54,-46) scale(1,1)"><g><path fill="none" stroke="none"/><text fill="#000000" stroke="none" font-family="Arial" font-size="13px" font-style="normal" font-weight="normal" text-decoration="none" x="997" y="778.5">+getBuildings(latitude: Double, longitude: Double, callback: URLRequestCallback)</text><path fill="none" stroke="#000000" d="M 997 778.5 L 1469 778.5" stroke-miterlimit="10"/></g></g><g transform="translate(-54,-46) scale(1,1)"><g><path fill="none" stroke="none"/><text fill="#000000" stroke="none" font-family="Arial" font-size="13px" font-style="normal" font-weight="normal" text-decoration="none" x="997" y="793.5">+getPath(pathID: Int, callback: URLRequestCallback)</text><path fill="none" stroke="#000000" d="M 997 793.5 L 1306 793.5" stroke-miterlimit="10"/></g></g><g transform="translate(-54,-46) scale(1,1)"><g><path fill="none" stroke="none"/><text fill="#000000" stroke="none" font-family="Arial" font-size="13px" font-style="normal" font-weight="normal" text-decoration="none" x="997" y="808.5">+register(email: String, username: String, password: String)</text><path fill="none" stroke="#000000" d="M 997 808.5 L 1341 808.5" stroke-miterlimit="10"/></g></g><g transform="translate(-54,-46) scale(1,1)"><g><path fill="none" stroke="none"/><text fill="#000000" stroke="none" font-family="Arial" font-size="13px" font-style="normal" font-weight="normal" text-decoration="none" x="997" y="823.5">+saveResult(result: PathResult, callback: URLRequestCallback)</text><path fill="none" stroke="#000000" d="M 997 823.5 L 1369 823.5" stroke-miterlimit="10"/></g></g><g transform="translate(-54,-46) scale(1,1)"><g><path fill="none" stroke="none"/><text fill="#000000" stroke="none" font-family="Arial" font-size="13px" font-style="normal" font-weight="normal" text-decoration="none" x="997" y="838.5">+getResults(userID: Int, callback: URLRequestCallback)</text><path fill="none" stroke="#000000" d="M 997 838.5 L 1323 838.5" stroke-miterlimit="10"/></g></g><g transform="translate(-54,-46) scale(1,1)"><g><path fill="none" stroke="none"/><text fill="#000000" stroke="none" font-family="Arial" font-size="13px" font-style="normal" font-weight="normal" text-decoration="none" x="997" y="853.5">+getDiscoveryUUID(callback: URLRequestCallback)</text><path fill="none" stroke="#000000" d="M 997 853.5 L 1299 853.5" stroke-miterlimit="10"/></g></g><g transform="translate(-54,-46) scale(1,1)"><g><path fill="none" stroke="none"/><text fill="#000000" stroke="none" font-family="Arial" font-size="13px" font-style="normal" font-weight="normal" text-decoration="none" x="997" y="868.5">+getAppInfo(callback: URLRequestCallback)</text><path fill="none" stroke="#000000" d="M 997 868.5 L 1255 868.5" stroke-miterlimit="10"/></g></g><g transform="translate(-54,-46) scale(1,1)"><rect fill="#C0C0C0" stroke="none" x="831" y="383" width="194.75146484375" height="87" opacity="0.2"/></g><g transform="translate(-54,-46) scale(1,1)"><rect fill="#ffffff" stroke="none" x="824" y="376" width="194.75146484375" height="87"/></g><g transform="translate(-54,-46) scale(1,1)"><path fill="none" stroke="#000000" d="M 824 376 L 1018.75146484375 376 L 1018.75146484375 463 L 824 463 L 824 376 Z Z" stroke-miterlimit="10"/></g><g transform="translate(-54,-46) scale(1,1)"><path fill="none" stroke="#000000" d="M 824 401 L 1018.75146484375 401" stroke-miterlimit="10"/></g><g transform="translate(-54,-46) scale(1,1)"><path fill="none" stroke="#000000" d="M 824 454 L 1018.75146484375 454" stroke-miterlimit="10"/></g><g transform="translate(-54,-46) scale(1,1)"><g><path fill="none" stroke="none"/><text fill="#000000" stroke="none" font-family="Arial" font-size="13px" font-style="normal" font-weight="bold" text-decoration="none" x="862.875732421875" y="395.5">RegistrationRequest</text></g></g><g transform="translate(-54,-46) scale(1,1)"><g><path fill="none" stroke="none"/><text fill="#000000" stroke="none" font-family="Arial" font-size="13px" font-style="normal" font-weight="normal" text-decoration="none" x="829" y="418.5">-email: String {readOnly}</text></g></g><g transform="translate(-54,-46) scale(1,1)"><g><path fill="none" stroke="none"/><text fill="#000000" stroke="none" font-family="Arial" font-size="13px" font-style="normal" font-weight="normal" text-decoration="none" x="829" y="433.5">-username: String {readOnly}</text></g></g><g transform="translate(-54,-46) scale(1,1)"><g><path fill="none" stroke="none"/><text fill="#000000" stroke="none" font-family="Arial" font-size="13px" font-style="normal" font-weight="normal" text-decoration="none" x="829" y="448.5">-password: String {readOnly}</text></g></g><g transform="translate(-54,-46) scale(1,1)"><path fill="none" stroke="#000000" d="M 824 419 L 560 419 M 560 419 A 8 8 0 0 1 552 411 L 552 233" stroke-miterlimit="10"/></g><g transform="translate(-54,-46) scale(1,1)"><path fill="#FFFFFF" stroke="none" d="M 560.419035512032 253.3253497152483 L 552 233 L 543.580964487968 253.3253497152483"/></g><g transform="translate(-54,-46) scale(1,1)"><path fill="none" stroke="#000000" d="M 560.419035512032 253.3253497152483 L 552 233 L 543.580964487968 253.3253497152483 L 560.419035512032 253.3253497152483" stroke-miterlimit="10"/></g><g transform="translate(-54,-46) scale(1,1)"><rect fill="#C0C0C0" stroke="none" x="871" y="311" width="197.703125" height="57" opacity="0.2"/></g><g transform="translate(-54,-46) scale(1,1)"><rect fill="#ffffff" stroke="none" x="864" y="304" width="197.703125" height="57"/></g><g transform="translate(-54,-46) scale(1,1)"><path fill="none" stroke="#000000" d="M 864 304 L 1061.703125 304 L 1061.703125 361 L 864 361 L 864 304 Z Z" stroke-miterlimit="10"/></g><g transform="translate(-54,-46) scale(1,1)"><path fill="none" stroke="#000000" d="M 864 329 L 1061.703125 329" stroke-miterlimit="10"/></g><g transform="translate(-54,-46) scale(1,1)"><path fill="none" stroke="#000000" d="M 864 352 L 1061.703125 352" stroke-miterlimit="10"/></g><g transform="translate(-54,-46) scale(1,1)"><g><path fill="none" stroke="none"/><text fill="#000000" stroke="none" font-family="Arial" font-size="13px" font-style="normal" font-weight="bold" text-decoration="none" x="905.3515625" y="323.5">SaveResultRequest</text></g></g><g transform="translate(-54,-46) scale(1,1)"><g><path fill="none" stroke="none"/><text fill="#000000" stroke="none" font-family="Arial" font-size="13px" font-style="normal" font-weight="normal" text-decoration="none" x="869" y="346.5">-result: PathResult {readOnly}</text></g></g><g transform="translate(-54,-46) scale(1,1)"><path fill="none" stroke="#000000" d="M 864 332 L 584 332 M 584 332 A 8 8 0 0 1 576 324 L 576 233" stroke-miterlimit="10"/></g><g transform="translate(-54,-46) scale(1,1)"><path fill="#FFFFFF" stroke="none" d="M 584.419035512032 253.3253497152483 L 576 233 L 567.580964487968 253.3253497152483"/></g><g transform="translate(-54,-46) scale(1,1)"><path fill="none" stroke="#000000" d="M 584.419035512032 253.3253497152483 L 576 233 L 567.580964487968 253.3253497152483 L 584.419035512032 253.3253497152483" stroke-miterlimit="10"/></g><g transform="translate(-54,-46) scale(1,1)"><rect fill="#C0C0C0" stroke="none" x="975" y="231" width="151.20654296875" height="57" opacity="0.2"/></g><g transform="translate(-54,-46) scale(1,1)"><rect fill="#ffffff" stroke="none" x="968" y="224" width="151.20654296875" height="57"/></g><g transform="translate(-54,-46) scale(1,1)"><path fill="none" stroke="#000000" d="M 968 224 L 1119.20654296875 224 L 1119.20654296875 281 L 968 281 L 968 224 Z Z" stroke-miterlimit="10"/></g><g transform="translate(-54,-46) scale(1,1)"><path fill="none" stroke="#000000" d="M 968 249 L 1119.20654296875 249" stroke-miterlimit="10"/></g><g transform="translate(-54,-46) scale(1,1)"><path fill="none" stroke="#000000" d="M 968 272 L 1119.20654296875 272" stroke-miterlimit="10"/></g><g transform="translate(-54,-46) scale(1,1)"><g><path fill="none" stroke="none"/><text fill="#000000" stroke="none" font-family="Arial" font-size="13px" font-style="normal" font-weight="bold" text-decoration="none" x="987.103271484375" y="243.5">GetResultsRequest</text></g></g><g transform="translate(-54,-46) scale(1,1)"><g><path fill="none" stroke="none"/><text fill="#000000" stroke="none" font-family="Arial" font-size="13px" font-style="normal" font-weight="normal" text-decoration="none" x="973" y="266.5">-user: User {readOnly}</text></g></g><g transform="translate(-54,-46) scale(1,1)"><path fill="none" stroke="#000000" d="M 968 224 L 586 224" stroke-miterlimit="10"/></g><g transform="translate(-54,-46) scale(1,1)"><path fill="#FFFFFF" stroke="none" d="M 606.3253497152483 215.58096448796803 L 586 224 L 606.3253497152483 232.41903551203197"/></g><g transform="translate(-54,-46) scale(1,1)"><path fill="none" stroke="#000000" d="M 606.3253497152483 215.58096448796803 L 586 224 L 606.3253497152483 232.41903551203197 L 606.3253497152483 215.58096448796803" stroke-miterlimit="10"/></g><g transform="translate(-54,-46) scale(1,1)"><rect fill="#C0C0C0" stroke="none" x="1047" y="175" width="162.6640625" height="44" opacity="0.2"/></g><g transform="translate(-54,-46) scale(1,1)"><rect fill="#ffffff" stroke="none" x="1040" y="168" width="162.6640625" height="44"/></g><g transform="translate(-54,-46) scale(1,1)"><path fill="none" stroke="#000000" d="M 1040 168 L 1202.6640625 168 L 1202.6640625 212 L 1040 212 L 1040 168 Z Z" stroke-miterlimit="10"/></g><g transform="translate(-54,-46) scale(1,1)"><path fill="none" stroke="#000000" d="M 1040 193 L 1202.6640625 193" stroke-miterlimit="10"/></g><g transform="translate(-54,-46) scale(1,1)"><path fill="none" stroke="#000000" d="M 1040 203 L 1202.6640625 203" stroke-miterlimit="10"/></g><g transform="translate(-54,-46) scale(1,1)"><g><path fill="none" stroke="none"/><text fill="#000000" stroke="none" font-family="Arial" font-size="13px" font-style="normal" font-weight="bold" text-decoration="none" x="1052.83203125" y="187.5">DiscoveryUUIDRequest</text></g></g><g transform="translate(-54,-46) scale(1,1)"><path fill="none" stroke="#000000" d="M 1040 186 L 586 186" stroke-miterlimit="10"/></g><g transform="translate(-54,-46) scale(1,1)"><path fill="#FFFFFF" stroke="none" d="M 606.3253497152483 177.58096448796803 L 586 186 L 606.3253497152483 194.41903551203197"/></g><g transform="translate(-54,-46) scale(1,1)"><path fill="none" stroke="#000000" d="M 606.3253497152483 177.58096448796803 L 586 186 L 606.3253497152483 194.41903551203197 L 606.3253497152483 177.58096448796803" stroke-miterlimit="10"/></g><g transform="translate(-54,-46) scale(1,1)"><rect fill="#C0C0C0" stroke="none" x="1175" y="111" width="116.3134765625" height="44" opacity="0.2"/></g><g transform="translate(-54,-46) scale(1,1)"><rect fill="#ffffff" stroke="none" x="1168" y="104" width="116.3134765625" height="44"/></g><g transform="translate(-54,-46) scale(1,1)"><path fill="none" stroke="#000000" d="M 1168 104 L 1284.3134765625 104 L 1284.3134765625 148 L 1168 148 L 1168 104 Z Z" stroke-miterlimit="10"/></g><g transform="translate(-54,-46) scale(1,1)"><path fill="none" stroke="#000000" d="M 1168 129 L 1284.3134765625 129" stroke-miterlimit="10"/></g><g transform="translate(-54,-46) scale(1,1)"><path fill="none" stroke="#000000" d="M 1168 139 L 1284.3134765625 139" stroke-miterlimit="10"/></g><g transform="translate(-54,-46) scale(1,1)"><g><path fill="none" stroke="none"/><text fill="#000000" stroke="none" font-family="Arial" font-size="13px" font-style="normal" font-weight="bold" text-decoration="none" x="1179.65673828125" y="123.5">AppInfoRequest</text></g></g><g transform="translate(-54,-46) scale(1,1)"><path fill="none" stroke="#000000" d="M 1168 136 L 586 136" stroke-miterlimit="10"/></g><g transform="translate(-54,-46) scale(1,1)"><path fill="#FFFFFF" stroke="none" d="M 606.3253497152483 127.58096448796803 L 586 136 L 606.3253497152483 144.41903551203197"/></g><g transform="translate(-54,-46) scale(1,1)"><path fill="none" stroke="#000000" d="M 606.3253497152483 127.58096448796803 L 586 136 L 606.3253497152483 144.41903551203197 L 606.3253497152483 127.58096448796803" stroke-miterlimit="10"/></g><g transform="translate(-54,-46) scale(1,1)"><path fill="none" stroke="#000000" d="M 360 288 L 360 233" stroke-miterlimit="10"/></g><g transform="translate(-54,-46) scale(1,1)"><path fill="#000000" stroke="none" d="M 364.209517756016 243.16267485762415 L 360 233 L 355.790482243984 243.16267485762415 L 360 255"/></g><g transform="translate(-54,-46) scale(1,1)"><path fill="none" stroke="#000000" d="M 364.209517756016 243.16267485762415 L 360 233 L 355.790482243984 243.16267485762415 L 360 255 L 364.209517756016 243.16267485762415" stroke-miterlimit="10"/></g><g transform="translate(-54,-46) scale(1,1)"><path fill="none" stroke="#000000" d="M 271 157 L 320 157" stroke-miterlimit="10"/></g><g transform="translate(-54,-46) scale(1,1)"><path fill="#000000" stroke="none" d="M 309.83732514237585 161.209517756016 L 320 157 L 309.83732514237585 152.790482243984 L 298 157"/></g><g transform="translate(-54,-46) scale(1,1)"><path fill="none" stroke="#000000" d="M 309.83732514237585 161.209517756016 L 320 157 L 309.83732514237585 152.790482243984 L 298 157 L 309.83732514237585 161.209517756016" stroke-miterlimit="10"/></g><g transform="translate(-54,-46) scale(1,1)"><path fill="none" stroke="#000000" d="M 561 769 L 992 769" stroke-miterlimit="10"/></g><g transform="translate(-54,-46) scale(1,1)"><path fill="#000000" stroke="none" d="M 981.8373251423759 773.209517756016 L 992 769 L 981.8373251423758 764.790482243984 L 970 769"/></g><g transform="translate(-54,-46) scale(1,1)"><path fill="none" stroke="#000000" d="M 981.8373251423759 773.209517756016 L 992 769 L 981.8373251423758 764.790482243984 L 970 769 L 981.8373251423759 773.209517756016" stroke-miterlimit="10"/></g><g transform="translate(-54,-46) scale(1,1)"><path fill="none" stroke="#000000" d="M 584 680 L 584 736 M 584 736 A 8 8 0 0 0 592 744 L 992 744" stroke-miterlimit="10"/></g><g transform="translate(-54,-46) scale(1,1)"><path fill="#000000" stroke="none" d="M 981.8373251423759 748.209517756016 L 992 744 L 981.8373251423758 739.790482243984 L 970 744"/></g><g transform="translate(-54,-46) scale(1,1)"><path fill="none" stroke="#000000" d="M 981.8373251423759 748.209517756016 L 992 744 L 981.8373251423758 739.790482243984 L 970 744 L 981.8373251423759 748.209517756016" stroke-miterlimit="10"/></g><g transform="translate(-54,-46) scale(1,1)"><path fill="none" stroke="#000000" d="M 728 601 L 728 712 M 728 712 A 8 8 0 0 0 736 720 L 992 720" stroke-miterlimit="10"/></g><g transform="translate(-54,-46) scale(1,1)"><path fill="#000000" stroke="none" d="M 981.8373251423759 724.209517756016 L 992 720 L 981.8373251423758 715.790482243984 L 970 720"/></g><g transform="translate(-54,-46) scale(1,1)"><path fill="none" stroke="#000000" d="M 981.8373251423759 724.209517756016 L 992 720 L 981.8373251423758 715.790482243984 L 970 720 L 981.8373251423759 724.209517756016" stroke-miterlimit="10"/></g><g transform="translate(-54,-46) scale(1,1)"><path fill="none" stroke="#000000" d="M 823 529 L 823 696 M 823 696 A 8 8 0 0 0 831 704 L 992 704" stroke-miterlimit="10"/></g><g transform="translate(-54,-46) scale(1,1)"><path fill="#000000" stroke="none" d="M 981.8373251423759 708.209517756016 L 992 704 L 981.8373251423758 699.790482243984 L 970 704"/></g><g transform="translate(-54,-46) scale(1,1)"><path fill="none" stroke="#000000" d="M 981.8373251423759 708.209517756016 L 992 704 L 981.8373251423758 699.790482243984 L 970 704 L 981.8373251423759 708.209517756016" stroke-miterlimit="10"/></g><g transform="translate(-54,-46) scale(1,1)"><path fill="none" stroke="#000000" d="M 1016 463 L 1016 696" stroke-miterlimit="10"/></g><g transform="translate(-54,-46) scale(1,1)"><path fill="#000000" stroke="none" d="M 1011.790482243984 685.8373251423759 L 1016 696 L 1020.209517756016 685.8373251423759 L 1016 674"/></g><g transform="translate(-54,-46) scale(1,1)"><path fill="none" stroke="#000000" d="M 1011.790482243984 685.8373251423759 L 1016 696 L 1020.209517756016 685.8373251423759 L 1016 674 L 1011.790482243984 685.8373251423759" stroke-miterlimit="10"/></g><g transform="translate(-54,-46) scale(1,1)"><path fill="none" stroke="#000000" d="M 1040 361 L 1040 696" stroke-miterlimit="10"/></g><g transform="translate(-54,-46) scale(1,1)"><path fill="#000000" stroke="none" d="M 1035.7904822439841 685.8373251423759 L 1040 696 L 1044.2095177560159 685.8373251423759 L 1040 674"/></g><g transform="translate(-54,-46) scale(1,1)"><path fill="none" stroke="#000000" d="M 1035.7904822439841 685.8373251423759 L 1040 696 L 1044.2095177560159 685.8373251423759 L 1040 674 L 1035.7904822439841 685.8373251423759" stroke-miterlimit="10"/></g><g transform="translate(-54,-46) scale(1,1)"><path fill="none" stroke="#000000" d="M 1088 281 L 1088 696" stroke-miterlimit="10"/></g><g transform="translate(-54,-46) scale(1,1)"><path fill="#000000" stroke="none" d="M 1083.7904822439841 685.8373251423759 L 1088 696 L 1092.2095177560159 685.8373251423759 L 1088 674"/></g><g transform="translate(-54,-46) scale(1,1)"><path fill="none" stroke="#000000" d="M 1083.7904822439841 685.8373251423759 L 1088 696 L 1092.2095177560159 685.8373251423759 L 1088 674 L 1083.7904822439841 685.8373251423759" stroke-miterlimit="10"/></g><g transform="translate(-54,-46) scale(1,1)"><path fill="none" stroke="#000000" d="M 1184 212 L 1184 696" stroke-miterlimit="10"/></g><g transform="translate(-54,-46) scale(1,1)"><path fill="#000000" stroke="none" d="M 1179.7904822439841 685.8373251423759 L 1184 696 L 1188.2095177560159 685.8373251423759 L 1184 674"/></g><g transform="translate(-54,-46) scale(1,1)"><path fill="none" stroke="#000000" d="M 1179.7904822439841 685.8373251423759 L 1184 696 L 1188.2095177560159 685.8373251423759 L 1184 674 L 1179.7904822439841 685.8373251423759" stroke-miterlimit="10"/></g><g transform="translate(-54,-46) scale(1,1)"><path fill="none" stroke="#000000" d="M 1227 148 L 1227 696" stroke-miterlimit="10"/></g><g transform="translate(-54,-46) scale(1,1)"><path fill="#000000" stroke="none" d="M 1222.7904822439841 685.8373251423759 L 1227 696 L 1231.2095177560159 685.8373251423759 L 1227 674"/></g><g transform="translate(-54,-46) scale(1,1)"><path fill="none" stroke="#000000" d="M 1222.7904822439841 685.8373251423759 L 1227 696 L 1231.2095177560159 685.8373251423759 L 1227 674 L 1222.7904822439841 685.8373251423759" stroke-miterlimit="10"/></g></g></svg>