<svg version="1.1" xmlns="http://www.w3.org/2000/svg" xmlns:xlink="http://www.w3.org/1999/xlink" width="1064" height="721"><defs/><g><g transform="translate(-18,-33) scale(1,1)"><rect fill="#C0C0C0" stroke="none" x="35" y="50" width="417.6" height="15" opacity="0.2"/></g><g transform="translate(-18,-33) scale(1,1)"><rect fill="#C0C0C0" stroke="none" x="35" y="64" width="1044" height="687" opacity="0.2"/></g><g transform="translate(-18,-33) scale(1,1)"><rect fill="#ffffff" stroke="none" x="28" y="58" width="1044" height="686"/></g><g transform="translate(-18,-33) scale(1,1)"><path fill="none" stroke="#000000" d="M 28 58 L 1072 58 L 1072 744 L 28 744 L 28 58 Z Z" stroke-miterlimit="10"/></g><g transform="translate(-18,-33) scale(1,1)"><rect fill="#ffffff" stroke="none" x="28" y="43" width="417.6" height="15"/></g><g transform="translate(-18,-33) scale(1,1)"><path fill="none" stroke="#000000" d="M 28 43 L 445.6 43 L 445.6 58 L 28 58 L 28 43 Z Z" stroke-miterlimit="10"/></g><g transform="translate(-18,-33) scale(1,1)"><rect fill="#ffffff" stroke="none" x="28" y="57" width="1044" height="687"/></g><g transform="translate(-18,-33) scale(1,1)"><path fill="none" stroke="#000000" d="M 28 57 L 1072 57 L 1072 744 L 28 744 L 28 57 Z Z" stroke-miterlimit="10"/></g><g transform="translate(-18,-33) scale(1,1)"><g><path fill="none" stroke="none"/><text fill="#000000" stroke="none" font-family="Arial" font-size="13px" font-style="normal" font-weight="bold" text-decoration="none" x="527.5" y="77.5">location</text></g></g><g transform="translate(-18,-33) scale(1,1)"><g><path fill="none" stroke="none"/><text fill="#000000" stroke="none" font-family="Arial" font-size="13px" font-style="normal" font-weight="normal" text-decoration="none" x="515.5" y="92.5">(from client)</text></g></g><g transform="translate(-18,-33) scale(1,1)"><rect fill="#C0C0C0" stroke="none" x="255" y="591" width="376" height="145" opacity="0.2"/></g><g transform="translate(-18,-33) scale(1,1)"><rect fill="#ffffff" stroke="none" x="248" y="584" width="376" height="145"/></g><g transform="translate(-18,-33) scale(1,1)"><path fill="none" stroke="#000000" d="M 248 584 L 624 584 L 624 729 L 248 729 L 248 584 Z Z" stroke-miterlimit="10"/></g><g transform="translate(-18,-33) scale(1,1)"><path fill="none" stroke="#000000" d="M 248 609 L 624 609" stroke-miterlimit="10"/></g><g transform="translate(-18,-33) scale(1,1)"><path fill="none" stroke="#000000" d="M 248 677 L 624 677" stroke-miterlimit="10"/></g><g transform="translate(-18,-33) scale(1,1)"><g><path fill="none" stroke="none"/><text fill="#000000" stroke="none" font-family="Arial" font-size="13px" font-style="normal" font-weight="bold" text-decoration="none" x="373" y="603.5">PathLocationManager</text></g></g><g transform="translate(-18,-33) scale(1,1)"><g><path fill="none" stroke="none"/><text fill="#000000" stroke="none" font-family="Arial" font-size="13px" font-style="normal" font-weight="normal" text-decoration="none" x="253" y="626.5">-beaconMonitor: BeaconMonitor {readOnly}</text></g></g><g transform="translate(-18,-33) scale(1,1)"><g><path fill="none" stroke="none"/><text fill="#000000" stroke="none" font-family="Arial" font-size="13px" font-style="normal" font-weight="normal" text-decoration="none" x="253" y="641.5">-gpsMonitor: GPSMonitor {readOnly}</text></g></g><g transform="translate(-18,-33) scale(1,1)"><g><path fill="none" stroke="none"/><text fill="#000000" stroke="none" font-family="Arial" font-size="13px" font-style="normal" font-weight="normal" text-decoration="none" x="253" y="656.5">-monitoredPath: Path {readOnly}</text></g></g><g transform="translate(-18,-33) scale(1,1)"><g><path fill="none" stroke="none"/><text fill="#000000" stroke="none" font-family="Arial" font-size="13px" font-style="normal" font-weight="normal" text-decoration="none" x="253" y="671.5">+delegate: PathLocationDelegate</text></g></g><g transform="translate(-18,-33) scale(1,1)"><g><path fill="none" stroke="none"/><text fill="#000000" stroke="none" font-family="Arial" font-size="13px" font-style="normal" font-weight="normal" text-decoration="none" x="253" y="694.5">+LocationManager(path: Path, delegate: PathLocationDelegate)</text></g></g><g transform="translate(-18,-33) scale(1,1)"><g><path fill="none" stroke="none"/><text fill="#000000" stroke="none" font-family="Arial" font-size="13px" font-style="normal" font-weight="normal" text-decoration="none" x="253" y="709.5">+startMonitoringForPath(path: Path)</text></g></g><g transform="translate(-18,-33) scale(1,1)"><g><path fill="none" stroke="none"/><text fill="#000000" stroke="none" font-family="Arial" font-size="13px" font-style="normal" font-weight="normal" text-decoration="none" x="253" y="724.5">+stopMonitoringForPath(path: Path)</text></g></g><g transform="translate(-18,-33) scale(1,1)"><rect fill="#C0C0C0" stroke="none" x="247" y="375" width="85" height="44" opacity="0.2"/></g><g transform="translate(-18,-33) scale(1,1)"><rect fill="#ffffff" stroke="none" x="240" y="368" width="85" height="44"/></g><g transform="translate(-18,-33) scale(1,1)"><path fill="none" stroke="#000000" d="M 240 368 L 325 368 L 325 412 L 240 412 L 240 368 Z Z" stroke-miterlimit="10"/></g><g transform="translate(-18,-33) scale(1,1)"><path fill="none" stroke="#000000" d="M 240 393 L 325 393" stroke-miterlimit="10"/></g><g transform="translate(-18,-33) scale(1,1)"><path fill="none" stroke="#000000" d="M 240 403 L 325 403" stroke-miterlimit="10"/></g><g transform="translate(-18,-33) scale(1,1)"><g><path fill="none" stroke="none"/><text fill="#000000" stroke="none" font-family="Arial" font-size="13px" font-style="normal" font-weight="bold" text-decoration="none" x="247" y="387.5">GPSMonitor</text></g></g><g transform="translate(-18,-33) scale(1,1)"><rect fill="#C0C0C0" stroke="none" x="791" y="120" width="255" height="115" opacity="0.2"/></g><g transform="translate(-18,-33) scale(1,1)"><rect fill="#C0C0C0" stroke="none" x="966" y="87" width="89" height="37" opacity="0.2"/></g><g transform="translate(-18,-33) scale(1,1)"><rect fill="#ffffff" stroke="none" x="784" y="113" width="255" height="115"/></g><g transform="translate(-18,-33) scale(1,1)"><path fill="none" stroke="#000000" d="M 784 113 L 1039 113 L 1039 228 L 784 228 L 784 113 Z Z" stroke-miterlimit="10"/></g><g transform="translate(-18,-33) scale(1,1)"><path fill="none" stroke="#000000" d="M 784 138 L 1039 138" stroke-miterlimit="10"/></g><g transform="translate(-18,-33) scale(1,1)"><path fill="none" stroke="#000000" d="M 784 176 L 1039 176" stroke-miterlimit="10"/></g><g transform="translate(-18,-33) scale(1,1)"><g><path fill="none" stroke="none"/><text fill="#000000" stroke="none" font-family="Arial" font-size="13px" font-style="italic" font-weight="bold" text-decoration="none" x="865.5" y="132.5">LocationMonitor</text></g></g><g transform="translate(-18,-33) scale(1,1)"><g><path fill="none" stroke="none"/><text fill="#000000" stroke="none" font-family="Arial" font-size="13px" font-style="normal" font-weight="normal" text-decoration="none" x="789" y="155.5">~delegate: DelegateType</text></g></g><g transform="translate(-18,-33) scale(1,1)"><g><path fill="none" stroke="none"/><text fill="#000000" stroke="none" font-family="Arial" font-size="13px" font-style="normal" font-weight="normal" text-decoration="none" x="789" y="170.5">~monitoredRegions: List&lt;RegionType&gt;</text></g></g><g transform="translate(-18,-33) scale(1,1)"><g><path fill="none" stroke="none"/><text fill="#000000" stroke="none" font-family="Arial" font-size="13px" font-style="normal" font-weight="normal" text-decoration="none" x="789" y="193.5">~isAuthorized(): Bool</text></g></g><g transform="translate(-18,-33) scale(1,1)"><g><path fill="none" stroke="none"/><text fill="#000000" stroke="none" font-family="Arial" font-size="13px" font-style="italic" font-weight="normal" text-decoration="none" x="789" y="208.5">~addRegion(region: RegionType)</text></g></g><g transform="translate(-18,-33) scale(1,1)"><g><path fill="none" stroke="none"/><text fill="#000000" stroke="none" font-family="Arial" font-size="13px" font-style="italic" font-weight="normal" text-decoration="none" x="789" y="223.5">~removeRegion(region: RegionType)</text></g></g><g transform="translate(-18,-33) scale(1,1)"><rect fill="#ffffff" stroke="none" x="959" y="80" width="89" height="37"/></g><g transform="translate(-18,-33) scale(1,1)"><path fill="none" stroke="#000000" d="M 959 80 L 1048 80 L 1048 117 L 959 117 L 959 80 Z Z" stroke-miterlimit="10" stroke-dasharray="3"/></g><g transform="translate(-18,-33) scale(1,1)"><g><path fill="none" stroke="none"/><text fill="#000000" stroke="none" font-family="Arial" font-size="13px" font-style="normal" font-weight="normal" text-decoration="none" x="964" y="97.5">DelegateType</text></g></g><g transform="translate(-18,-33) scale(1,1)"><g><path fill="none" stroke="none"/><text fill="#000000" stroke="none" font-family="Arial" font-size="13px" font-style="normal" font-weight="normal" text-decoration="none" x="964" y="112.5">RegionType</text></g></g><g transform="translate(-18,-33) scale(1,1)"><path fill="none" stroke="#000000" d="M 304 368 L 304 192 M 304 192 A 8 8 0 0 1 312 184 L 784 184" stroke-miterlimit="10"/></g><g transform="translate(-18,-33) scale(1,1)"><path fill="#FFFFFF" stroke="none" d="M 763.6746502847517 192.41903551203197 L 784 184 L 763.6746502847517 175.58096448796803"/></g><g transform="translate(-18,-33) scale(1,1)"><path fill="none" stroke="#000000" d="M 763.6746502847517 192.41903551203197 L 784 184 L 763.6746502847517 175.58096448796803 L 763.6746502847517 192.41903551203197" stroke-miterlimit="10"/></g><g transform="translate(-18,-33) scale(1,1)"><rect fill="#C0C0C0" stroke="none" x="63" y="231" width="205" height="100" opacity="0.2"/></g><g transform="translate(-18,-33) scale(1,1)"><rect fill="#ffffff" stroke="none" x="56" y="224" width="205" height="100"/></g><g transform="translate(-18,-33) scale(1,1)"><path fill="none" stroke="#000000" d="M 56 224 L 261 224 L 261 324 L 56 324 L 56 224 Z Z" stroke-miterlimit="10"/></g><g transform="translate(-18,-33) scale(1,1)"><path fill="none" stroke="#000000" d="M 56 249 L 261 249" stroke-miterlimit="10"/></g><g transform="translate(-18,-33) scale(1,1)"><path fill="none" stroke="#000000" d="M 56 302 L 261 302" stroke-miterlimit="10"/></g><g transform="translate(-18,-33) scale(1,1)"><g><path fill="none" stroke="none"/><text fill="#000000" stroke="none" font-family="Arial" font-size="13px" font-style="normal" font-weight="bold" text-decoration="none" x="124" y="243.5">RawBeacon</text></g></g><g transform="translate(-18,-33) scale(1,1)"><g><path fill="none" stroke="none"/><text fill="#000000" stroke="none" font-family="Arial" font-size="13px" font-style="normal" font-weight="normal" text-decoration="none" x="61" y="266.5">~UUID: String</text></g></g><g transform="translate(-18,-33) scale(1,1)"><g><path fill="none" stroke="none"/><text fill="#000000" stroke="none" font-family="Arial" font-size="13px" font-style="normal" font-weight="normal" text-decoration="none" x="61" y="281.5">~major: Int</text></g></g><g transform="translate(-18,-33) scale(1,1)"><g><path fill="none" stroke="none"/><text fill="#000000" stroke="none" font-family="Arial" font-size="13px" font-style="normal" font-weight="normal" text-decoration="none" x="61" y="296.5">~minor: Int</text></g></g><g transform="translate(-18,-33) scale(1,1)"><g><path fill="none" stroke="none"/><text fill="#000000" stroke="none" font-family="Arial" font-size="13px" font-style="normal" font-weight="normal" text-decoration="none" x="61" y="319.5">~RawBeacon(UUID, major, minor)</text></g></g><g transform="translate(-18,-33) scale(1,1)"><rect fill="#C0C0C0" stroke="none" x="575" y="431" width="235" height="100" opacity="0.2"/></g><g transform="translate(-18,-33) scale(1,1)"><rect fill="#ffffff" stroke="none" x="568" y="424" width="235" height="100"/></g><g transform="translate(-18,-33) scale(1,1)"><path fill="none" stroke="#000000" d="M 568 424 L 803 424 L 803 524 L 568 524 L 568 424 Z Z" stroke-miterlimit="10"/></g><g transform="translate(-18,-33) scale(1,1)"><path fill="none" stroke="#000000" d="M 568 449 L 803 449" stroke-miterlimit="10"/></g><g transform="translate(-18,-33) scale(1,1)"><path fill="none" stroke="#000000" d="M 568 502 L 803 502" stroke-miterlimit="10"/></g><g transform="translate(-18,-33) scale(1,1)"><g><path fill="none" stroke="none"/><text fill="#000000" stroke="none" font-family="Arial" font-size="13px" font-style="normal" font-weight="bold" text-decoration="none" x="653" y="443.5">RawRegion</text></g></g><g transform="translate(-18,-33) scale(1,1)"><g><path fill="none" stroke="none"/><text fill="#000000" stroke="none" font-family="Arial" font-size="13px" font-style="normal" font-weight="normal" text-decoration="none" x="573" y="466.5">~latitude: Double</text></g></g><g transform="translate(-18,-33) scale(1,1)"><g><path fill="none" stroke="none"/><text fill="#000000" stroke="none" font-family="Arial" font-size="13px" font-style="normal" font-weight="normal" text-decoration="none" x="573" y="481.5">~longitude: Double</text></g></g><g transform="translate(-18,-33) scale(1,1)"><g><path fill="none" stroke="none"/><text fill="#000000" stroke="none" font-family="Arial" font-size="13px" font-style="normal" font-weight="normal" text-decoration="none" x="573" y="496.5">~radius: Double</text></g></g><g transform="translate(-18,-33) scale(1,1)"><g><path fill="none" stroke="none"/><text fill="#000000" stroke="none" font-family="Arial" font-size="13px" font-style="normal" font-weight="normal" text-decoration="none" x="573" y="519.5">~RawRegion(latitude, longitude, radius)</text></g></g><g transform="translate(-18,-33) scale(1,1)"><rect fill="#C0C0C0" stroke="none" x="391" y="375" width="103" height="44" opacity="0.2"/></g><g transform="translate(-18,-33) scale(1,1)"><rect fill="#ffffff" stroke="none" x="384" y="368" width="103" height="44"/></g><g transform="translate(-18,-33) scale(1,1)"><path fill="none" stroke="#000000" d="M 384 368 L 487 368 L 487 412 L 384 412 L 384 368 Z Z" stroke-miterlimit="10"/></g><g transform="translate(-18,-33) scale(1,1)"><path fill="none" stroke="#000000" d="M 384 393 L 487 393" stroke-miterlimit="10"/></g><g transform="translate(-18,-33) scale(1,1)"><path fill="none" stroke="#000000" d="M 384 403 L 487 403" stroke-miterlimit="10"/></g><g transform="translate(-18,-33) scale(1,1)"><g><path fill="none" stroke="none"/><text fill="#000000" stroke="none" font-family="Arial" font-size="13px" font-style="normal" font-weight="bold" text-decoration="none" x="392" y="387.5">BeaconMonitor</text></g></g><g transform="translate(-18,-33) scale(1,1)"><path fill="#C0C0C0" stroke="none" d="M 563.5 242 C 563.5 231.5065888 572.0065888 223 582.5 223 C 592.9934112 223 601.5 231.5065888 601.5 242 C 601.5 252.4934112 592.9934112 261 582.5 261 C 572.0065888 261 563.5 252.4934112 563.5 242 Z" opacity="0.2"/></g><g transform="translate(-18,-33) scale(1,1)"><path fill="#ffffff" stroke="none" d="M 556.5 235 C 556.5 224.5065888 565.0065888 216 575.5 216 C 585.9934112 216 594.5 224.5065888 594.5 235 C 594.5 245.4934112 585.9934112 254 575.5 254 C 565.0065888 254 556.5 245.4934112 556.5 235 Z"/></g><g transform="translate(-18,-33) scale(1,1)"><path fill="none" stroke="#000000" d="M 556.5 235 C 556.5 224.5065888 565.0065888 216 575.5 216 C 585.9934112 216 594.5 224.5065888 594.5 235 C 594.5 245.4934112 585.9934112 254 575.5 254 C 565.0065888 254 556.5 245.4934112 556.5 235 Z" stroke-miterlimit="10"/></g><g transform="translate(-18,-33) scale(1,1)"><path fill="none" stroke="#000000" d="M 376 279 L 775 279" stroke-miterlimit="10"/></g><g transform="translate(-18,-33) scale(1,1)"><g><path fill="none" stroke="none"/><text fill="#000000" stroke="none" font-family="Arial" font-size="13px" font-style="normal" font-weight="bold" text-decoration="none" x="506.5" y="273.5">BeaconMonitorDelegate</text></g></g><g transform="translate(-18,-33) scale(1,1)"><g><path fill="none" stroke="none"/><text fill="#000000" stroke="none" font-family="Arial" font-size="13px" font-style="normal" font-weight="normal" text-decoration="none" x="381" y="296.5">~didEnterBeaconRegion(rawBeacon: RawBeacon)</text></g></g><g transform="translate(-18,-33) scale(1,1)"><g><path fill="none" stroke="none"/><text fill="#000000" stroke="none" font-family="Arial" font-size="13px" font-style="normal" font-weight="normal" text-decoration="none" x="381" y="311.5">~didExitBeaconRegion(rawBeacon: RawBeacon)</text></g></g><g transform="translate(-18,-33) scale(1,1)"><g><path fill="none" stroke="none"/><text fill="#000000" stroke="none" font-family="Arial" font-size="13px" font-style="normal" font-weight="normal" text-decoration="none" x="381" y="326.5">~didRangeBeacon(rawBeacon: RawBeacon)</text></g></g><g transform="translate(-18,-33) scale(1,1)"><path fill="#C0C0C0" stroke="none" d="M 389 90 C 389 79.5065888 397.5065888 71 408 71 C 418.4934112 71 427 79.5065888 427 90 C 427 100.4934112 418.4934112 109 408 109 C 397.5065888 109 389 100.4934112 389 90 Z" opacity="0.2"/></g><g transform="translate(-18,-33) scale(1,1)"><path fill="#ffffff" stroke="none" d="M 382 83 C 382 72.5065888 390.5065888 64 401 64 C 411.4934112 64 420 72.5065888 420 83 C 420 93.4934112 411.4934112 102 401 102 C 390.5065888 102 382 93.4934112 382 83 Z"/></g><g transform="translate(-18,-33) scale(1,1)"><path fill="none" stroke="#000000" d="M 382 83 C 382 72.5065888 390.5065888 64 401 64 C 411.4934112 64 420 72.5065888 420 83 C 420 93.4934112 411.4934112 102 401 102 C 390.5065888 102 382 93.4934112 382 83 Z" stroke-miterlimit="10"/></g><g transform="translate(-18,-33) scale(1,1)"><path fill="none" stroke="#000000" d="M 200 127 L 602 127" stroke-miterlimit="10"/></g><g transform="translate(-18,-33) scale(1,1)"><g><path fill="none" stroke="none"/><text fill="#000000" stroke="none" font-family="Arial" font-size="13px" font-style="normal" font-weight="bold" text-decoration="none" x="340" y="121.5">GPSMonitorDelegate</text></g></g><g transform="translate(-18,-33) scale(1,1)"><g><path fill="none" stroke="none"/><text fill="#000000" stroke="none" font-family="Arial" font-size="13px" font-style="normal" font-weight="normal" text-decoration="none" x="205" y="144.5">~didEnterRegion(rawBeacon: RawRegion)</text></g></g><g transform="translate(-18,-33) scale(1,1)"><g><path fill="none" stroke="none"/><text fill="#000000" stroke="none" font-family="Arial" font-size="13px" font-style="normal" font-weight="normal" text-decoration="none" x="205" y="159.5">~didExitRegion(rawBeacon: RawRegion)</text></g></g><g transform="translate(-18,-33) scale(1,1)"><path fill="#C0C0C0" stroke="none" d="M 864 634 C 864 623.5065888 872.5065888 615 883 615 C 893.4934112 615 902 623.5065888 902 634 C 902 644.4934112 893.4934112 653 883 653 C 872.5065888 653 864 644.4934112 864 634 Z" opacity="0.2"/></g><g transform="translate(-18,-33) scale(1,1)"><path fill="#ffffff" stroke="none" d="M 857 627 C 857 616.5065888 865.5065888 608 876 608 C 886.4934112 608 895 616.5065888 895 627 C 895 637.4934112 886.4934112 646 876 646 C 865.5065888 646 857 637.4934112 857 627 Z"/></g><g transform="translate(-18,-33) scale(1,1)"><path fill="none" stroke="#000000" d="M 857 627 C 857 616.5065888 865.5065888 608 876 608 C 886.4934112 608 895 616.5065888 895 627 C 895 637.4934112 886.4934112 646 876 646 C 865.5065888 646 857 637.4934112 857 627 Z" stroke-miterlimit="10"/></g><g transform="translate(-18,-33) scale(1,1)"><path fill="none" stroke="#000000" d="M 768 671 L 984 671" stroke-miterlimit="10"/></g><g transform="translate(-18,-33) scale(1,1)"><g><path fill="none" stroke="none"/><text fill="#000000" stroke="none" font-family="Arial" font-size="13px" font-style="normal" font-weight="bold" text-decoration="none" x="812.5" y="665.5">PathLocationDelegate</text></g></g><g transform="translate(-18,-33) scale(1,1)"><g><path fill="none" stroke="none"/><text fill="#000000" stroke="none" font-family="Arial" font-size="13px" font-style="normal" font-weight="normal" text-decoration="none" x="773" y="688.5">+didFoundBeacon(beacon: Beacon)</text></g></g><g transform="translate(-18,-33) scale(1,1)"><path fill="none" stroke="#000000" d="M 280 368 L 280 165" stroke-miterlimit="10"/></g><g transform="translate(-18,-33) scale(1,1)"><path fill="none" stroke="#000000" d="M 448 368 L 448 332" stroke-miterlimit="10"/></g><g transform="translate(-18,-33) scale(1,1)"><path fill="none" stroke="#000000" d="M 280 412 L 280 584" stroke-miterlimit="10"/></g><g transform="translate(-18,-33) scale(1,1)"><path fill="#FFFFFF" stroke="none" d="M 275.790482243984 573.8373251423759 L 280 584 L 284.209517756016 573.8373251423759 L 280 562"/></g><g transform="translate(-18,-33) scale(1,1)"><path fill="none" stroke="#000000" d="M 275.790482243984 573.8373251423759 L 280 584 L 284.209517756016 573.8373251423759 L 280 562 L 275.790482243984 573.8373251423759" stroke-miterlimit="10"/></g><g transform="translate(-18,-33) scale(1,1)"><path fill="none" stroke="#000000" d="M 435 412 L 435 584" stroke-miterlimit="10"/></g><g transform="translate(-18,-33) scale(1,1)"><path fill="#FFFFFF" stroke="none" d="M 430.790482243984 573.8373251423759 L 435 584 L 439.209517756016 573.8373251423759 L 435 562"/></g><g transform="translate(-18,-33) scale(1,1)"><path fill="none" stroke="#000000" d="M 430.790482243984 573.8373251423759 L 435 584 L 439.209517756016 573.8373251423759 L 435 562 L 430.790482243984 573.8373251423759" stroke-miterlimit="10"/></g><g transform="translate(-18,-33) scale(1,1)"><path fill="none" stroke="#000000" d="M 487 392 L 840 392 M 840 392 A 8 8 0 0 0 848 384 L 848 228" stroke-miterlimit="10"/></g><g transform="translate(-18,-33) scale(1,1)"><path fill="#FFFFFF" stroke="none" d="M 856.419035512032 248.3253497152483 L 848 228 L 839.580964487968 248.3253497152483"/></g><g transform="translate(-18,-33) scale(1,1)"><path fill="none" stroke="#000000" d="M 856.419035512032 248.3253497152483 L 848 228 L 839.580964487968 248.3253497152483 L 856.419035512032 248.3253497152483" stroke-miterlimit="10"/></g><g transform="translate(-18,-33) scale(1,1)"><path fill="none" stroke="#000000" d="M 168 324 L 168 376 M 168 376 A 8 8 0 0 0 176 384 L 240 384" stroke-miterlimit="10"/></g><g transform="translate(-18,-33) scale(1,1)"><path fill="#FFFFFF" stroke="none" d="M 229.83732514237585 388.209517756016 L 240 384 L 229.83732514237585 379.790482243984 L 218 384"/></g><g transform="translate(-18,-33) scale(1,1)"><path fill="none" stroke="#000000" d="M 229.83732514237585 388.209517756016 L 240 384 L 229.83732514237585 379.790482243984 L 218 384 L 229.83732514237585 388.209517756016" stroke-miterlimit="10"/></g><g transform="translate(-18,-33) scale(1,1)"><path fill="none" stroke="#000000" d="M 568 464 L 464 464 M 464 464 A 8 8 0 0 1 456 456 L 456 412" stroke-miterlimit="10"/></g><g transform="translate(-18,-33) scale(1,1)"><path fill="#FFFFFF" stroke="none" d="M 460.209517756016 422.16267485762415 L 456 412 L 451.790482243984 422.16267485762415 L 456 434"/></g><g transform="translate(-18,-33) scale(1,1)"><path fill="none" stroke="#000000" d="M 460.209517756016 422.16267485762415 L 456 412 L 451.790482243984 422.16267485762415 L 456 434 L 460.209517756016 422.16267485762415" stroke-miterlimit="10"/></g><g transform="translate(-18,-33) scale(1,1)"><path fill="none" stroke="#000000" d="M 624 656 L 768 656" stroke-miterlimit="10"/></g><g transform="translate(-18,-33) scale(1,1)"><path fill="none" stroke="#000000" d="M 352 584 L 352 243 M 352 243 A 8 8 0 0 1 360 235 L 556.5 235" stroke-miterlimit="10"/></g><g transform="translate(-18,-33) scale(1,1)"><path fill="none" stroke="#000000" d="M 248 624 L 48 624 M 48 624 A 8 8 0 0 1 40 616 L 40 91 M 40 91 A 8 8 0 0 1 48 83 L 382 83" stroke-miterlimit="10"/></g></g></svg>