<svg version="1.1" xmlns="http://www.w3.org/2000/svg" xmlns:xlink="http://www.w3.org/1999/xlink" width="749" height="676"><defs/><g><g transform="translate(-45,-38) scale(1,1)"><rect fill="#C0C0C0" stroke="none" x="62" y="55" width="291.6" height="15" opacity="0.2"/></g><g transform="translate(-45,-38) scale(1,1)"><rect fill="#C0C0C0" stroke="none" x="62" y="69" width="729" height="642" opacity="0.2"/></g><g transform="translate(-45,-38) scale(1,1)"><rect fill="#ffffff" stroke="none" x="55" y="63" width="729" height="641"/></g><g transform="translate(-45,-38) scale(1,1)"><path fill="none" stroke="#000000" d="M 55 63 L 784 63 L 784 704 L 55 704 L 55 63 Z Z" stroke-miterlimit="10"/></g><g transform="translate(-45,-38) scale(1,1)"><rect fill="#ffffff" stroke="none" x="55" y="48" width="291.6" height="15"/></g><g transform="translate(-45,-38) scale(1,1)"><path fill="none" stroke="#000000" d="M 55 48 L 346.6 48 L 346.6 63 L 55 63 L 55 48 Z Z" stroke-miterlimit="10"/></g><g transform="translate(-45,-38) scale(1,1)"><rect fill="#ffffff" stroke="none" x="55" y="62" width="729" height="642"/></g><g transform="translate(-45,-38) scale(1,1)"><path fill="none" stroke="#000000" d="M 55 62 L 784 62 L 784 704 L 55 704 L 55 62 Z Z" stroke-miterlimit="10"/></g><g transform="translate(-45,-38) scale(1,1)"><g><path fill="none" stroke="none"/><text fill="#000000" stroke="none" font-family="Arial" font-size="13px" font-style="normal" font-weight="bold" text-decoration="none" x="403" y="82.5">Utility</text></g></g><g transform="translate(-45,-38) scale(1,1)"><g><path fill="none" stroke="none"/><text fill="#000000" stroke="none" font-family="Arial" font-size="13px" font-style="normal" font-weight="normal" text-decoration="none" x="359" y="97.5">(from ViewController)</text></g></g><g transform="translate(-45,-38) scale(1,1)"><rect fill="#C0C0C0" stroke="none" x="79" y="135" width="192" height="145" opacity="0.2"/></g><g transform="translate(-45,-38) scale(1,1)"><rect fill="#ffffff" stroke="none" x="72" y="128" width="192" height="145"/></g><g transform="translate(-45,-38) scale(1,1)"><path fill="none" stroke="#000000" d="M 72 128 L 264 128 L 264 273 L 72 273 L 72 128 Z Z" stroke-miterlimit="10"/></g><g transform="translate(-45,-38) scale(1,1)"><path fill="none" stroke="#000000" d="M 72 168 L 264 168" stroke-miterlimit="10"/></g><g transform="translate(-45,-38) scale(1,1)"><path fill="none" stroke="#000000" d="M 72 191 L 264 191" stroke-miterlimit="10"/></g><g transform="translate(-45,-38) scale(1,1)"><g><path fill="none" stroke="none"/><text fill="#000000" stroke="none" font-family="Arial" font-size="13px" font-style="normal" font-weight="bold" text-decoration="none" x="130" y="147.5">MenuActivity</text></g></g><g transform="translate(-45,-38) scale(1,1)"><g><path fill="none" stroke="none"/><text fill="#000000" stroke="none" font-family="Arial" font-size="13px" font-style="normal" font-weight="normal" text-decoration="none" x="132.5" y="162.5">(from Utility)</text></g></g><g transform="translate(-45,-38) scale(1,1)"><g><path fill="none" stroke="none"/><text fill="#000000" stroke="none" font-family="Arial" font-size="13px" font-style="normal" font-weight="normal" text-decoration="none" x="77" y="185.5">-menuView: MenuView</text></g></g><g transform="translate(-45,-38) scale(1,1)"><g><path fill="none" stroke="none"/><text fill="#000000" stroke="none" font-family="Arial" font-size="13px" font-style="normal" font-weight="normal" text-decoration="none" x="77" y="208.5">~buildingsButtonPressed()</text></g></g><g transform="translate(-45,-38) scale(1,1)"><g><path fill="none" stroke="none"/><text fill="#000000" stroke="none" font-family="Arial" font-size="13px" font-style="normal" font-weight="normal" text-decoration="none" x="77" y="223.5">~authenticationButtonPressed()</text></g></g><g transform="translate(-45,-38) scale(1,1)"><g><path fill="none" stroke="none"/><text fill="#000000" stroke="none" font-family="Arial" font-size="13px" font-style="normal" font-weight="normal" text-decoration="none" x="77" y="238.5">~appInfoButtonPressed()</text></g></g><g transform="translate(-45,-38) scale(1,1)"><g><path fill="none" stroke="none"/><text fill="#000000" stroke="none" font-family="Arial" font-size="13px" font-style="normal" font-weight="normal" text-decoration="none" x="77" y="253.5">~logoutButtonPressed()</text></g></g><g transform="translate(-45,-38) scale(1,1)"><g><path fill="none" stroke="none"/><text fill="#000000" stroke="none" font-family="Arial" font-size="13px" font-style="normal" font-weight="normal" text-decoration="none" x="77" y="268.5">+MenuActivity()</text></g></g><g transform="translate(-45,-38) scale(1,1)"><rect fill="#C0C0C0" stroke="none" x="79" y="454" width="192" height="235" opacity="0.2"/></g><g transform="translate(-45,-38) scale(1,1)"><rect fill="#ffffff" stroke="none" x="72" y="447" width="192" height="235"/></g><g transform="translate(-45,-38) scale(1,1)"><path fill="none" stroke="#000000" d="M 72 447 L 264 447 L 264 682 L 72 682 L 72 447 Z Z" stroke-miterlimit="10"/></g><g transform="translate(-45,-38) scale(1,1)"><path fill="none" stroke="#000000" d="M 72 487 L 264 487" stroke-miterlimit="10"/></g><g transform="translate(-45,-38) scale(1,1)"><path fill="none" stroke="#000000" d="M 72 600 L 264 600" stroke-miterlimit="10"/></g><g transform="translate(-45,-38) scale(1,1)"><g><path fill="none" stroke="none"/><text fill="#000000" stroke="none" font-family="Arial" font-size="13px" font-style="normal" font-weight="bold" text-decoration="none" x="138" y="466.5">MenuView</text></g></g><g transform="translate(-45,-38) scale(1,1)"><g><path fill="none" stroke="none"/><text fill="#000000" stroke="none" font-family="Arial" font-size="13px" font-style="normal" font-weight="normal" text-decoration="none" x="132.5" y="481.5">(from Utility)</text></g></g><g transform="translate(-45,-38) scale(1,1)"><g><path fill="none" stroke="none"/><text fill="#000000" stroke="none" font-family="Arial" font-size="13px" font-style="normal" font-weight="normal" text-decoration="none" x="77" y="504.5">~usernameLabel</text></g></g><g transform="translate(-45,-38) scale(1,1)"><g><path fill="none" stroke="none"/><text fill="#000000" stroke="none" font-family="Arial" font-size="13px" font-style="normal" font-weight="normal" text-decoration="none" x="77" y="519.5">~buildingsButton</text></g></g><g transform="translate(-45,-38) scale(1,1)"><g><path fill="none" stroke="none"/><text fill="#000000" stroke="none" font-family="Arial" font-size="13px" font-style="normal" font-weight="normal" text-decoration="none" x="77" y="534.5">~authenticationButton</text></g></g><g transform="translate(-45,-38) scale(1,1)"><g><path fill="none" stroke="none"/><text fill="#000000" stroke="none" font-family="Arial" font-size="13px" font-style="normal" font-weight="normal" text-decoration="none" x="77" y="549.5">~appInfoButton</text></g></g><g transform="translate(-45,-38) scale(1,1)"><g><path fill="none" stroke="none"/><text fill="#000000" stroke="none" font-family="Arial" font-size="13px" font-style="normal" font-weight="normal" text-decoration="none" x="77" y="564.5">~myAccountButton</text></g></g><g transform="translate(-45,-38) scale(1,1)"><g><path fill="none" stroke="none"/><text fill="#000000" stroke="none" font-family="Arial" font-size="13px" font-style="normal" font-weight="normal" text-decoration="none" x="77" y="579.5">~delegate: MenuViewDelegate</text></g></g><g transform="translate(-45,-38) scale(1,1)"><g><path fill="none" stroke="none"/><text fill="#000000" stroke="none" font-family="Arial" font-size="13px" font-style="normal" font-weight="normal" text-decoration="none" x="77" y="594.5">~logoutButton</text></g></g><g transform="translate(-45,-38) scale(1,1)"><g><path fill="none" stroke="none"/><text fill="#000000" stroke="none" font-family="Arial" font-size="13px" font-style="normal" font-weight="normal" text-decoration="none" x="77" y="617.5">-logoutButtonPressed()</text></g></g><g transform="translate(-45,-38) scale(1,1)"><g><path fill="none" stroke="none"/><text fill="#000000" stroke="none" font-family="Arial" font-size="13px" font-style="normal" font-weight="normal" text-decoration="none" x="77" y="632.5">-buidingsButtonPressed()</text></g></g><g transform="translate(-45,-38) scale(1,1)"><g><path fill="none" stroke="none"/><text fill="#000000" stroke="none" font-family="Arial" font-size="13px" font-style="normal" font-weight="normal" text-decoration="none" x="77" y="647.5">-authenticationButtonPressed()</text></g></g><g transform="translate(-45,-38) scale(1,1)"><g><path fill="none" stroke="none"/><text fill="#000000" stroke="none" font-family="Arial" font-size="13px" font-style="normal" font-weight="normal" text-decoration="none" x="77" y="662.5">-appInfoButtonPressed()</text></g></g><g transform="translate(-45,-38) scale(1,1)"><g><path fill="none" stroke="none"/><text fill="#000000" stroke="none" font-family="Arial" font-size="13px" font-style="normal" font-weight="normal" text-decoration="none" x="77" y="677.5">-myAccountButtonPressed()</text></g></g><g transform="translate(-45,-38) scale(1,1)"><rect fill="#C0C0C0" stroke="none" x="491" y="544" width="185" height="145" opacity="0.2"/></g><g transform="translate(-45,-38) scale(1,1)"><rect fill="#ffffff" stroke="none" x="484" y="537" width="185" height="145"/></g><g transform="translate(-45,-38) scale(1,1)"><path fill="none" stroke="#000000" d="M 484 537 L 669 537 L 669 682 L 484 682 L 484 537 Z Z" stroke-miterlimit="10"/></g><g transform="translate(-45,-38) scale(1,1)"><path fill="none" stroke="#000000" d="M 484 577 L 669 577" stroke-miterlimit="10"/></g><g transform="translate(-45,-38) scale(1,1)"><path fill="none" stroke="#000000" d="M 484 645 L 669 645" stroke-miterlimit="10"/></g><g transform="translate(-45,-38) scale(1,1)"><g><path fill="none" stroke="none"/><text fill="#000000" stroke="none" font-family="Arial" font-size="13px" font-style="normal" font-weight="bold" text-decoration="none" x="540" y="556.5">AppInfoView</text></g></g><g transform="translate(-45,-38) scale(1,1)"><g><path fill="none" stroke="none"/><text fill="#000000" stroke="none" font-family="Arial" font-size="13px" font-style="normal" font-weight="normal" text-decoration="none" x="541" y="571.5">(from Utility)</text></g></g><g transform="translate(-45,-38) scale(1,1)"><g><path fill="none" stroke="none"/><text fill="#000000" stroke="none" font-family="Arial" font-size="13px" font-style="normal" font-weight="normal" text-decoration="none" x="489" y="594.5">~descriptionLabel</text></g></g><g transform="translate(-45,-38) scale(1,1)"><g><path fill="none" stroke="none"/><text fill="#000000" stroke="none" font-family="Arial" font-size="13px" font-style="normal" font-weight="normal" text-decoration="none" x="489" y="609.5">~emailButton</text></g></g><g transform="translate(-45,-38) scale(1,1)"><g><path fill="none" stroke="none"/><text fill="#000000" stroke="none" font-family="Arial" font-size="13px" font-style="normal" font-weight="normal" text-decoration="none" x="489" y="624.5">~siteButton</text></g></g><g transform="translate(-45,-38) scale(1,1)"><g><path fill="none" stroke="none"/><text fill="#000000" stroke="none" font-family="Arial" font-size="13px" font-style="normal" font-weight="normal" text-decoration="none" x="489" y="639.5">~delegate: AppInfoViewButton</text></g></g><g transform="translate(-45,-38) scale(1,1)"><g><path fill="none" stroke="none"/><text fill="#000000" stroke="none" font-family="Arial" font-size="13px" font-style="normal" font-weight="normal" text-decoration="none" x="489" y="662.5">-emailButtonPressed()</text></g></g><g transform="translate(-45,-38) scale(1,1)"><g><path fill="none" stroke="none"/><text fill="#000000" stroke="none" font-family="Arial" font-size="13px" font-style="normal" font-weight="normal" text-decoration="none" x="489" y="677.5">-siteButtonPressed()</text></g></g><g transform="translate(-45,-38) scale(1,1)"><path fill="none" stroke="#000000" d="M 265 271 L 389.5 312.28350515463916" stroke-miterlimit="10"/></g><g transform="translate(-45,-38) scale(1,1)"><path fill="none" stroke="#000000" d="M 617 244 L 675.5 305.9756097560976" stroke-miterlimit="10"/></g><g transform="translate(-45,-38) scale(1,1)"><path fill="none" stroke="#000000" d="M 265 488 L 311 452" stroke-miterlimit="10"/></g><g transform="translate(-45,-38) scale(1,1)"><path fill="none" stroke="#000000" d="M 610 536 L 667 413" stroke-miterlimit="10"/></g><g transform="translate(-45,-38) scale(1,1)"><path fill="none" stroke="#000000" d="M 168 274 L 168 446" stroke-miterlimit="10"/></g><g transform="translate(-45,-38) scale(1,1)"><path fill="#FFFFFF" stroke="none" d="M 163.790482243984 435.83732514237585 L 168 446 L 172.209517756016 435.83732514237585 L 168 424"/></g><g transform="translate(-45,-38) scale(1,1)"><path fill="none" stroke="#000000" d="M 163.790482243984 435.83732514237585 L 168 446 L 172.209517756016 435.83732514237585 L 168 424 L 163.790482243984 435.83732514237585" stroke-miterlimit="10"/></g><g transform="translate(-45,-38) scale(1,1)"><path fill="none" stroke="#000000" d="M 576 244 L 576 536" stroke-miterlimit="10"/></g><g transform="translate(-45,-38) scale(1,1)"><path fill="#FFFFFF" stroke="none" d="M 571.790482243984 525.8373251423759 L 576 536 L 580.209517756016 525.8373251423759 L 576 514"/></g><g transform="translate(-45,-38) scale(1,1)"><path fill="none" stroke="#000000" d="M 571.790482243984 525.8373251423759 L 576 536 L 580.209517756016 525.8373251423759 L 576 514 L 571.790482243984 525.8373251423759" stroke-miterlimit="10"/></g><g transform="translate(-45,-38) scale(1,1)"><path fill="#C0C0C0" stroke="none" d="M 396.5 321.5 C 396.5 311.2827312 404.7827312 303 415 303 C 425.2172688 303 433.5 311.2827312 433.5 321.5 C 433.5 331.7172688 425.2172688 340 415 340 C 404.7827312 340 396.5 331.7172688 396.5 321.5 Z" opacity="0.2"/></g><g transform="translate(-45,-38) scale(1,1)"><path fill="#ffffff" stroke="none" d="M 389.5 314.5 C 389.5 304.2827312 397.7827312 296 408 296 C 418.2172688 296 426.5 304.2827312 426.5 314.5 C 426.5 324.7172688 418.2172688 333 408 333 C 397.7827312 333 389.5 324.7172688 389.5 314.5 Z"/></g><g transform="translate(-45,-38) scale(1,1)"><path fill="none" stroke="#000000" d="M 389.5 314.5 C 389.5 304.2827312 397.7827312 296 408 296 C 418.2172688 296 426.5 304.2827312 426.5 314.5 C 426.5 324.7172688 418.2172688 333 408 333 C 397.7827312 333 389.5 324.7172688 389.5 314.5 Z" stroke-miterlimit="10"/></g><g transform="translate(-45,-38) scale(1,1)"><path fill="none" stroke="#000000" d="M 312 373 L 504 373" stroke-miterlimit="10"/></g><g transform="translate(-45,-38) scale(1,1)"><g><path fill="none" stroke="none"/><text fill="#000000" stroke="none" font-family="Arial" font-size="13px" font-style="normal" font-weight="bold" text-decoration="none" x="352.5" y="352.5">MenuViewDelegate</text></g></g><g transform="translate(-45,-38) scale(1,1)"><g><path fill="none" stroke="none"/><text fill="#000000" stroke="none" font-family="Arial" font-size="13px" font-style="normal" font-weight="normal" text-decoration="none" x="372.5" y="367.5">(from Utility)</text></g></g><g transform="translate(-45,-38) scale(1,1)"><g><path fill="none" stroke="none"/><text fill="#000000" stroke="none" font-family="Arial" font-size="13px" font-style="normal" font-weight="normal" text-decoration="none" x="317" y="390.5">~buidingsButtonPressed()</text></g></g><g transform="translate(-45,-38) scale(1,1)"><g><path fill="none" stroke="none"/><text fill="#000000" stroke="none" font-family="Arial" font-size="13px" font-style="normal" font-weight="normal" text-decoration="none" x="317" y="405.5">~authenticationButtonPressed()</text></g></g><g transform="translate(-45,-38) scale(1,1)"><g><path fill="none" stroke="none"/><text fill="#000000" stroke="none" font-family="Arial" font-size="13px" font-style="normal" font-weight="normal" text-decoration="none" x="317" y="420.5">~goAppInfoView()</text></g></g><g transform="translate(-45,-38) scale(1,1)"><g><path fill="none" stroke="none"/><text fill="#000000" stroke="none" font-family="Arial" font-size="13px" font-style="normal" font-weight="normal" text-decoration="none" x="317" y="435.5">~appInfoButtonPressed()</text></g></g><g transform="translate(-45,-38) scale(1,1)"><g><path fill="none" stroke="none"/><text fill="#000000" stroke="none" font-family="Arial" font-size="13px" font-style="normal" font-weight="normal" text-decoration="none" x="317" y="450.5">~logoutButtonPressed()</text></g></g><g transform="translate(-45,-38) scale(1,1)"><rect fill="#C0C0C0" stroke="none" x="491" y="135" width="185" height="115" opacity="0.2"/></g><g transform="translate(-45,-38) scale(1,1)"><rect fill="#ffffff" stroke="none" x="484" y="128" width="185" height="115"/></g><g transform="translate(-45,-38) scale(1,1)"><path fill="none" stroke="#000000" d="M 484 128 L 669 128 L 669 243 L 484 243 L 484 128 Z Z" stroke-miterlimit="10"/></g><g transform="translate(-45,-38) scale(1,1)"><path fill="none" stroke="#000000" d="M 484 168 L 669 168" stroke-miterlimit="10"/></g><g transform="translate(-45,-38) scale(1,1)"><path fill="none" stroke="#000000" d="M 484 191 L 669 191" stroke-miterlimit="10"/></g><g transform="translate(-45,-38) scale(1,1)"><g><path fill="none" stroke="none"/><text fill="#000000" stroke="none" font-family="Arial" font-size="13px" font-style="normal" font-weight="bold" text-decoration="none" x="532" y="147.5">AppInfoActivity</text></g></g><g transform="translate(-45,-38) scale(1,1)"><g><path fill="none" stroke="none"/><text fill="#000000" stroke="none" font-family="Arial" font-size="13px" font-style="normal" font-weight="normal" text-decoration="none" x="541" y="162.5">(from Utility)</text></g></g><g transform="translate(-45,-38) scale(1,1)"><g><path fill="none" stroke="none"/><text fill="#000000" stroke="none" font-family="Arial" font-size="13px" font-style="normal" font-weight="normal" text-decoration="none" x="489" y="185.5">-appInfoView: AppInfoView</text></g></g><g transform="translate(-45,-38) scale(1,1)"><g><path fill="none" stroke="none"/><text fill="#000000" stroke="none" font-family="Arial" font-size="13px" font-style="normal" font-weight="normal" text-decoration="none" x="489" y="208.5">~goSite()</text></g></g><g transform="translate(-45,-38) scale(1,1)"><g><path fill="none" stroke="none"/><text fill="#000000" stroke="none" font-family="Arial" font-size="13px" font-style="normal" font-weight="normal" text-decoration="none" x="489" y="223.5">~goEmail()</text></g></g><g transform="translate(-45,-38) scale(1,1)"><g><path fill="none" stroke="none"/><text fill="#000000" stroke="none" font-family="Arial" font-size="13px" font-style="normal" font-weight="normal" text-decoration="none" x="489" y="238.5">+AppInfoActivity()</text></g></g><g transform="translate(-45,-38) scale(1,1)"><path fill="#C0C0C0" stroke="none" d="M 682.5 322 C 682.5 311.5065888 691.0065888 303 701.5 303 C 711.9934112 303 720.5 311.5065888 720.5 322 C 720.5 332.4934112 711.9934112 341 701.5 341 C 691.0065888 341 682.5 332.4934112 682.5 322 Z" opacity="0.2"/></g><g transform="translate(-45,-38) scale(1,1)"><path fill="#ffffff" stroke="none" d="M 675.5 315 C 675.5 304.5065888 684.0065888 296 694.5 296 C 704.9934112 296 713.5 304.5065888 713.5 315 C 713.5 325.4934112 704.9934112 334 694.5 334 C 684.0065888 334 675.5 325.4934112 675.5 315 Z"/></g><g transform="translate(-45,-38) scale(1,1)"><path fill="none" stroke="#000000" d="M 675.5 315 C 675.5 304.5065888 684.0065888 296 694.5 296 C 704.9934112 296 713.5 304.5065888 713.5 315 C 713.5 325.4934112 704.9934112 334 694.5 334 C 684.0065888 334 675.5 325.4934112 675.5 315 Z" stroke-miterlimit="10"/></g><g transform="translate(-45,-38) scale(1,1)"><path fill="none" stroke="#000000" d="M 624 374 L 765 374" stroke-miterlimit="10"/></g><g transform="translate(-45,-38) scale(1,1)"><g><path fill="none" stroke="none"/><text fill="#000000" stroke="none" font-family="Arial" font-size="13px" font-style="normal" font-weight="bold" text-decoration="none" x="632.5" y="353.5">AppInfoViewDelegate</text></g></g><g transform="translate(-45,-38) scale(1,1)"><g><path fill="none" stroke="none"/><text fill="#000000" stroke="none" font-family="Arial" font-size="13px" font-style="normal" font-weight="normal" text-decoration="none" x="659" y="368.5">(from Utility)</text></g></g><g transform="translate(-45,-38) scale(1,1)"><g><path fill="none" stroke="none"/><text fill="#000000" stroke="none" font-family="Arial" font-size="13px" font-style="normal" font-weight="normal" text-decoration="none" x="629" y="391.5">~goSite()</text></g></g><g transform="translate(-45,-38) scale(1,1)"><g><path fill="none" stroke="none"/><text fill="#000000" stroke="none" font-family="Arial" font-size="13px" font-style="normal" font-weight="normal" text-decoration="none" x="629" y="406.5">~goEmail()</text></g></g></g></svg>