<svg version="1.1" xmlns="http://www.w3.org/2000/svg" xmlns:xlink="http://www.w3.org/1999/xlink" width="1212" height="1148"><defs/><g><g transform="translate(-118,-14) scale(1,1)"><rect fill="#C0C0C0" stroke="none" x="135" y="31" width="476.79999999999995" height="15" opacity="0.2"/></g><g transform="translate(-118,-14) scale(1,1)"><rect fill="#C0C0C0" stroke="none" x="135" y="45" width="1192" height="1114" opacity="0.2"/></g><g transform="translate(-118,-14) scale(1,1)"><rect fill="#ffffff" stroke="none" x="128" y="39" width="1192" height="1113"/></g><g transform="translate(-118,-14) scale(1,1)"><path fill="none" stroke="#000000" d="M 128 39 L 1320 39 L 1320 1152 L 128 1152 L 128 39 Z Z" stroke-miterlimit="10"/></g><g transform="translate(-118,-14) scale(1,1)"><rect fill="#ffffff" stroke="none" x="128" y="24" width="476.79999999999995" height="15"/></g><g transform="translate(-118,-14) scale(1,1)"><path fill="none" stroke="#000000" d="M 128 24 L 604.8 24 L 604.8 39 L 128 39 L 128 24 Z Z" stroke-miterlimit="10"/></g><g transform="translate(-118,-14) scale(1,1)"><rect fill="#ffffff" stroke="none" x="128" y="38" width="1192" height="1114"/></g><g transform="translate(-118,-14) scale(1,1)"><path fill="none" stroke="#000000" d="M 128 38 L 1320 38 L 1320 1152 L 128 1152 L 128 38 Z Z" stroke-miterlimit="10"/></g><g transform="translate(-118,-14) scale(1,1)"><g><path fill="none" stroke="none"/><text fill="#000000" stroke="none" font-family="Arial" font-size="13px" font-style="normal" font-weight="bold" text-decoration="none" x="683.5" y="58.5">SavedResults</text></g></g><g transform="translate(-118,-14) scale(1,1)"><g><path fill="none" stroke="none"/><text fill="#000000" stroke="none" font-family="Arial" font-size="13px" font-style="normal" font-weight="normal" text-decoration="none" x="663.5" y="73.5">(from ViewController)</text></g></g><g transform="translate(-118,-14) scale(1,1)"><rect fill="#C0C0C0" stroke="none" x="176" y="138" width="237" height="115" opacity="0.2"/></g><g transform="translate(-118,-14) scale(1,1)"><rect fill="#ffffff" stroke="none" x="169" y="131" width="237" height="115"/></g><g transform="translate(-118,-14) scale(1,1)"><path fill="none" stroke="#000000" d="M 169 131 L 406 131 L 406 246 L 169 246 L 169 131 Z Z" stroke-miterlimit="10"/></g><g transform="translate(-118,-14) scale(1,1)"><path fill="none" stroke="#000000" d="M 169 171 L 406 171" stroke-miterlimit="10"/></g><g transform="translate(-118,-14) scale(1,1)"><path fill="none" stroke="#000000" d="M 169 194 L 406 194" stroke-miterlimit="10"/></g><g transform="translate(-118,-14) scale(1,1)"><g><path fill="none" stroke="none"/><text fill="#000000" stroke="none" font-family="Arial" font-size="13px" font-style="normal" font-weight="bold" text-decoration="none" x="225" y="150.5">SavedResultsActivity</text></g></g><g transform="translate(-118,-14) scale(1,1)"><g><path fill="none" stroke="none"/><text fill="#000000" stroke="none" font-family="Arial" font-size="13px" font-style="normal" font-weight="normal" text-decoration="none" x="228" y="165.5">(from SavedResults)</text></g></g><g transform="translate(-118,-14) scale(1,1)"><g><path fill="none" stroke="none"/><text fill="#000000" stroke="none" font-family="Arial" font-size="13px" font-style="normal" font-weight="normal" text-decoration="none" x="174" y="188.5">-savedResultsView: SavedResultsView</text></g></g><g transform="translate(-118,-14) scale(1,1)"><g><path fill="none" stroke="none"/><text fill="#000000" stroke="none" font-family="Arial" font-size="13px" font-style="normal" font-weight="normal" text-decoration="none" x="174" y="211.5">~loginButtonPressed()</text></g></g><g transform="translate(-118,-14) scale(1,1)"><g><path fill="none" stroke="none"/><text fill="#000000" stroke="none" font-family="Arial" font-size="13px" font-style="normal" font-weight="normal" text-decoration="none" x="174" y="226.5">~resultRowDidPressed(atIndex)</text></g></g><g transform="translate(-118,-14) scale(1,1)"><g><path fill="none" stroke="none"/><text fill="#000000" stroke="none" font-family="Arial" font-size="13px" font-style="normal" font-weight="normal" text-decoration="none" x="174" y="241.5">+SavedResultActivity()</text></g></g><g transform="translate(-118,-14) scale(1,1)"><rect fill="#C0C0C0" stroke="none" x="550" y="138" width="166" height="100" opacity="0.2"/></g><g transform="translate(-118,-14) scale(1,1)"><rect fill="#ffffff" stroke="none" x="543" y="131" width="166" height="100"/></g><g transform="translate(-118,-14) scale(1,1)"><path fill="none" stroke="#000000" d="M 543 131 L 709 131 L 709 231 L 543 231 L 543 131 Z Z" stroke-miterlimit="10"/></g><g transform="translate(-118,-14) scale(1,1)"><path fill="none" stroke="#000000" d="M 543 171 L 709 171" stroke-miterlimit="10"/></g><g transform="translate(-118,-14) scale(1,1)"><path fill="none" stroke="#000000" d="M 543 194 L 709 194" stroke-miterlimit="10"/></g><g transform="translate(-118,-14) scale(1,1)"><g><path fill="none" stroke="none"/><text fill="#000000" stroke="none" font-family="Arial" font-size="13px" font-style="normal" font-weight="bold" text-decoration="none" x="580.5" y="150.5">RankingActivity</text></g></g><g transform="translate(-118,-14) scale(1,1)"><g><path fill="none" stroke="none"/><text fill="#000000" stroke="none" font-family="Arial" font-size="13px" font-style="normal" font-weight="normal" text-decoration="none" x="566.5" y="165.5">(from SavedResults)</text></g></g><g transform="translate(-118,-14) scale(1,1)"><g><path fill="none" stroke="none"/><text fill="#000000" stroke="none" font-family="Arial" font-size="13px" font-style="normal" font-weight="normal" text-decoration="none" x="548" y="188.5">-rankingView: RankingView</text></g></g><g transform="translate(-118,-14) scale(1,1)"><g><path fill="none" stroke="none"/><text fill="#000000" stroke="none" font-family="Arial" font-size="13px" font-style="normal" font-weight="normal" text-decoration="none" x="548" y="211.5">~highlightPlayer()</text></g></g><g transform="translate(-118,-14) scale(1,1)"><g><path fill="none" stroke="none"/><text fill="#000000" stroke="none" font-family="Arial" font-size="13px" font-style="normal" font-weight="normal" text-decoration="none" x="548" y="226.5">+RankingActivity()</text></g></g><g transform="translate(-118,-14) scale(1,1)"><rect fill="#C0C0C0" stroke="none" x="763" y="138" width="390" height="130" opacity="0.2"/></g><g transform="translate(-118,-14) scale(1,1)"><rect fill="#ffffff" stroke="none" x="756" y="131" width="390" height="130"/></g><g transform="translate(-118,-14) scale(1,1)"><path fill="none" stroke="#000000" d="M 756 131 L 1146 131 L 1146 261 L 756 261 L 756 131 Z Z" stroke-miterlimit="10"/></g><g transform="translate(-118,-14) scale(1,1)"><path fill="none" stroke="#000000" d="M 756 171 L 1146 171" stroke-miterlimit="10"/></g><g transform="translate(-118,-14) scale(1,1)"><path fill="none" stroke="#000000" d="M 756 194 L 1146 194" stroke-miterlimit="10"/></g><g transform="translate(-118,-14) scale(1,1)"><g><path fill="none" stroke="none"/><text fill="#000000" stroke="none" font-family="Arial" font-size="13px" font-style="normal" font-weight="bold" text-decoration="none" x="910.5" y="150.5">ResultActivity</text></g></g><g transform="translate(-118,-14) scale(1,1)"><g><path fill="none" stroke="none"/><text fill="#000000" stroke="none" font-family="Arial" font-size="13px" font-style="normal" font-weight="normal" text-decoration="none" x="891.5" y="165.5">(from SavedResults)</text></g></g><g transform="translate(-118,-14) scale(1,1)"><g><path fill="none" stroke="none"/><text fill="#000000" stroke="none" font-family="Arial" font-size="13px" font-style="normal" font-weight="normal" text-decoration="none" x="761" y="188.5">-resultView: ResultView</text></g></g><g transform="translate(-118,-14) scale(1,1)"><g><path fill="none" stroke="none"/><text fill="#000000" stroke="none" font-family="Arial" font-size="13px" font-style="normal" font-weight="normal" text-decoration="none" x="761" y="211.5">~rankingButtonPressed()</text></g></g><g transform="translate(-118,-14) scale(1,1)"><g><path fill="none" stroke="none"/><text fill="#000000" stroke="none" font-family="Arial" font-size="13px" font-style="normal" font-weight="normal" text-decoration="none" x="761" y="226.5">~saveResultButtonPressed()</text></g></g><g transform="translate(-118,-14) scale(1,1)"><g><path fill="none" stroke="none"/><text fill="#000000" stroke="none" font-family="Arial" font-size="13px" font-style="normal" font-weight="normal" text-decoration="none" x="761" y="241.5">~proofsButtonPressed()</text></g></g><g transform="translate(-118,-14) scale(1,1)"><g><path fill="none" stroke="none"/><text fill="#000000" stroke="none" font-family="Arial" font-size="13px" font-style="normal" font-weight="normal" text-decoration="none" x="761" y="256.5">+ResultActivity(pathResult: PathResult, resultCanBeSaved: Bool)</text></g></g><g transform="translate(-118,-14) scale(1,1)"><rect fill="#C0C0C0" stroke="none" x="176" y="746" width="281" height="205" opacity="0.2"/></g><g transform="translate(-118,-14) scale(1,1)"><rect fill="#ffffff" stroke="none" x="169" y="739" width="281" height="205"/></g><g transform="translate(-118,-14) scale(1,1)"><path fill="none" stroke="#000000" d="M 169 739 L 450 739 L 450 944 L 169 944 L 169 739 Z Z" stroke-miterlimit="10"/></g><g transform="translate(-118,-14) scale(1,1)"><path fill="none" stroke="#000000" d="M 169 779 L 450 779" stroke-miterlimit="10"/></g><g transform="translate(-118,-14) scale(1,1)"><path fill="none" stroke="#000000" d="M 169 862 L 450 862" stroke-miterlimit="10"/></g><g transform="translate(-118,-14) scale(1,1)"><g><path fill="none" stroke="none"/><text fill="#000000" stroke="none" font-family="Arial" font-size="13px" font-style="normal" font-weight="bold" text-decoration="none" x="255" y="758.5">SavedResultsView</text></g></g><g transform="translate(-118,-14) scale(1,1)"><g><path fill="none" stroke="none"/><text fill="#000000" stroke="none" font-family="Arial" font-size="13px" font-style="normal" font-weight="normal" text-decoration="none" x="250" y="773.5">(from SavedResults)</text></g></g><g transform="translate(-118,-14) scale(1,1)"><g><path fill="none" stroke="none"/><text fill="#000000" stroke="none" font-family="Arial" font-size="13px" font-style="normal" font-weight="normal" text-decoration="none" x="174" y="796.5">~resultRows: List&lt;ResultRow&gt;</text></g></g><g transform="translate(-118,-14) scale(1,1)"><g><path fill="none" stroke="none"/><text fill="#000000" stroke="none" font-family="Arial" font-size="13px" font-style="normal" font-weight="normal" text-decoration="none" x="174" y="811.5">~descriptionLabel</text></g></g><g transform="translate(-118,-14) scale(1,1)"><g><path fill="none" stroke="none"/><text fill="#000000" stroke="none" font-family="Arial" font-size="13px" font-style="normal" font-weight="normal" text-decoration="none" x="174" y="826.5">~noResultsLabel</text></g></g><g transform="translate(-118,-14) scale(1,1)"><g><path fill="none" stroke="none"/><text fill="#000000" stroke="none" font-family="Arial" font-size="13px" font-style="normal" font-weight="normal" text-decoration="none" x="174" y="841.5">~loginButton</text></g></g><g transform="translate(-118,-14) scale(1,1)"><g><path fill="none" stroke="none"/><text fill="#000000" stroke="none" font-family="Arial" font-size="13px" font-style="normal" font-weight="normal" text-decoration="none" x="174" y="856.5">~delegate: SavedResultsViewDelegate</text></g></g><g transform="translate(-118,-14) scale(1,1)"><g><path fill="none" stroke="none"/><text fill="#000000" stroke="none" font-family="Arial" font-size="13px" font-style="normal" font-weight="normal" text-decoration="none" x="174" y="879.5">-showResults(resultRows)</text></g></g><g transform="translate(-118,-14) scale(1,1)"><g><path fill="none" stroke="none"/><text fill="#000000" stroke="none" font-family="Arial" font-size="13px" font-style="normal" font-weight="normal" text-decoration="none" x="174" y="894.5">-showNoResult(noResultsLabel)</text></g></g><g transform="translate(-118,-14) scale(1,1)"><g><path fill="none" stroke="none"/><text fill="#000000" stroke="none" font-family="Arial" font-size="13px" font-style="normal" font-weight="normal" text-decoration="none" x="174" y="909.5">-showNotLogged(notLoggedLabel, loginButton)</text></g></g><g transform="translate(-118,-14) scale(1,1)"><g><path fill="none" stroke="none"/><text fill="#000000" stroke="none" font-family="Arial" font-size="13px" font-style="normal" font-weight="normal" text-decoration="none" x="174" y="924.5">-loginButtonPressed()</text></g></g><g transform="translate(-118,-14) scale(1,1)"><g><path fill="none" stroke="none"/><text fill="#000000" stroke="none" font-family="Arial" font-size="13px" font-style="normal" font-weight="normal" text-decoration="none" x="174" y="939.5">-resultRowDidPressed(atIndex)</text></g></g><g transform="translate(-118,-14) scale(1,1)"><rect fill="#C0C0C0" stroke="none" x="533" y="746" width="200" height="115" opacity="0.2"/></g><g transform="translate(-118,-14) scale(1,1)"><rect fill="#ffffff" stroke="none" x="526" y="739" width="200" height="115"/></g><g transform="translate(-118,-14) scale(1,1)"><path fill="none" stroke="#000000" d="M 526 739 L 726 739 L 726 854 L 526 854 L 526 739 Z Z" stroke-miterlimit="10"/></g><g transform="translate(-118,-14) scale(1,1)"><path fill="none" stroke="#000000" d="M 526 779 L 726 779" stroke-miterlimit="10"/></g><g transform="translate(-118,-14) scale(1,1)"><path fill="none" stroke="#000000" d="M 526 832 L 726 832" stroke-miterlimit="10"/></g><g transform="translate(-118,-14) scale(1,1)"><g><path fill="none" stroke="none"/><text fill="#000000" stroke="none" font-family="Arial" font-size="13px" font-style="normal" font-weight="bold" text-decoration="none" x="588.5" y="758.5">RankingView</text></g></g><g transform="translate(-118,-14) scale(1,1)"><g><path fill="none" stroke="none"/><text fill="#000000" stroke="none" font-family="Arial" font-size="13px" font-style="normal" font-weight="normal" text-decoration="none" x="566.5" y="773.5">(from SavedResults)</text></g></g><g transform="translate(-118,-14) scale(1,1)"><g><path fill="none" stroke="none"/><text fill="#000000" stroke="none" font-family="Arial" font-size="13px" font-style="normal" font-weight="normal" text-decoration="none" x="531" y="796.5">~namePathLabel</text></g></g><g transform="translate(-118,-14) scale(1,1)"><g><path fill="none" stroke="none"/><text fill="#000000" stroke="none" font-family="Arial" font-size="13px" font-style="normal" font-weight="normal" text-decoration="none" x="531" y="811.5">~playersRows: List&lt;PlayerRow&gt;</text></g></g><g transform="translate(-118,-14) scale(1,1)"><g><path fill="none" stroke="none"/><text fill="#000000" stroke="none" font-family="Arial" font-size="13px" font-style="normal" font-weight="normal" text-decoration="none" x="531" y="826.5">~delegate: RankingViewDelegate</text></g></g><g transform="translate(-118,-14) scale(1,1)"><g><path fill="none" stroke="none"/><text fill="#000000" stroke="none" font-family="Arial" font-size="13px" font-style="normal" font-weight="normal" text-decoration="none" x="531" y="849.5">-highlightPlayer()</text></g></g><g transform="translate(-118,-14) scale(1,1)"><rect fill="#C0C0C0" stroke="none" x="863" y="746" width="190" height="295" opacity="0.2"/></g><g transform="translate(-118,-14) scale(1,1)"><rect fill="#ffffff" stroke="none" x="856" y="739" width="190" height="295"/></g><g transform="translate(-118,-14) scale(1,1)"><path fill="none" stroke="#000000" d="M 856 739 L 1046 739 L 1046 1034 L 856 1034 L 856 739 Z Z" stroke-miterlimit="10"/></g><g transform="translate(-118,-14) scale(1,1)"><path fill="none" stroke="#000000" d="M 856 779 L 1046 779" stroke-miterlimit="10"/></g><g transform="translate(-118,-14) scale(1,1)"><path fill="none" stroke="#000000" d="M 856 982 L 1046 982" stroke-miterlimit="10"/></g><g transform="translate(-118,-14) scale(1,1)"><g><path fill="none" stroke="none"/><text fill="#000000" stroke="none" font-family="Arial" font-size="13px" font-style="normal" font-weight="bold" text-decoration="none" x="918.5" y="758.5">ResultView</text></g></g><g transform="translate(-118,-14) scale(1,1)"><g><path fill="none" stroke="none"/><text fill="#000000" stroke="none" font-family="Arial" font-size="13px" font-style="normal" font-weight="normal" text-decoration="none" x="891.5" y="773.5">(from SavedResults)</text></g></g><g transform="translate(-118,-14) scale(1,1)"><g><path fill="none" stroke="none"/><text fill="#000000" stroke="none" font-family="Arial" font-size="13px" font-style="normal" font-weight="normal" text-decoration="none" x="861" y="796.5">~namePathLabel</text></g></g><g transform="translate(-118,-14) scale(1,1)"><g><path fill="none" stroke="none"/><text fill="#000000" stroke="none" font-family="Arial" font-size="13px" font-style="normal" font-weight="normal" text-decoration="none" x="861" y="811.5">~dateLabel</text></g></g><g transform="translate(-118,-14) scale(1,1)"><g><path fill="none" stroke="none"/><text fill="#000000" stroke="none" font-family="Arial" font-size="13px" font-style="normal" font-weight="normal" text-decoration="none" x="861" y="826.5">~buildingLabel</text></g></g><g transform="translate(-118,-14) scale(1,1)"><g><path fill="none" stroke="none"/><text fill="#000000" stroke="none" font-family="Arial" font-size="13px" font-style="normal" font-weight="normal" text-decoration="none" x="861" y="841.5">~totalPathTimeLabel</text></g></g><g transform="translate(-118,-14) scale(1,1)"><g><path fill="none" stroke="none"/><text fill="#000000" stroke="none" font-family="Arial" font-size="13px" font-style="normal" font-weight="normal" text-decoration="none" x="861" y="856.5">~totalTimeProofsLabel</text></g></g><g transform="translate(-118,-14) scale(1,1)"><g><path fill="none" stroke="none"/><text fill="#000000" stroke="none" font-family="Arial" font-size="13px" font-style="normal" font-weight="normal" text-decoration="none" x="861" y="871.5">~totalScoreLabel</text></g></g><g transform="translate(-118,-14) scale(1,1)"><g><path fill="none" stroke="none"/><text fill="#000000" stroke="none" font-family="Arial" font-size="13px" font-style="normal" font-weight="normal" text-decoration="none" x="861" y="886.5">~minScoreProofLabel</text></g></g><g transform="translate(-118,-14) scale(1,1)"><g><path fill="none" stroke="none"/><text fill="#000000" stroke="none" font-family="Arial" font-size="13px" font-style="normal" font-weight="normal" text-decoration="none" x="861" y="901.5">~maxScoreProofLabel</text></g></g><g transform="translate(-118,-14) scale(1,1)"><g><path fill="none" stroke="none"/><text fill="#000000" stroke="none" font-family="Arial" font-size="13px" font-style="normal" font-weight="normal" text-decoration="none" x="861" y="916.5">~rankingPositionLabel</text></g></g><g transform="translate(-118,-14) scale(1,1)"><g><path fill="none" stroke="none"/><text fill="#000000" stroke="none" font-family="Arial" font-size="13px" font-style="normal" font-weight="normal" text-decoration="none" x="861" y="931.5">~rankingButton</text></g></g><g transform="translate(-118,-14) scale(1,1)"><g><path fill="none" stroke="none"/><text fill="#000000" stroke="none" font-family="Arial" font-size="13px" font-style="normal" font-weight="normal" text-decoration="none" x="861" y="946.5">~proofsButton</text></g></g><g transform="translate(-118,-14) scale(1,1)"><g><path fill="none" stroke="none"/><text fill="#000000" stroke="none" font-family="Arial" font-size="13px" font-style="normal" font-weight="normal" text-decoration="none" x="861" y="961.5">~delegate: ResultViewDelegate</text></g></g><g transform="translate(-118,-14) scale(1,1)"><g><path fill="none" stroke="none"/><text fill="#000000" stroke="none" font-family="Arial" font-size="13px" font-style="normal" font-weight="normal" text-decoration="none" x="861" y="976.5">~saveResultButton</text></g></g><g transform="translate(-118,-14) scale(1,1)"><g><path fill="none" stroke="none"/><text fill="#000000" stroke="none" font-family="Arial" font-size="13px" font-style="normal" font-weight="normal" text-decoration="none" x="861" y="999.5">-rankingButtonPressed()</text></g></g><g transform="translate(-118,-14) scale(1,1)"><g><path fill="none" stroke="none"/><text fill="#000000" stroke="none" font-family="Arial" font-size="13px" font-style="normal" font-weight="normal" text-decoration="none" x="861" y="1014.5">-saveResultButtonPressed()</text></g></g><g transform="translate(-118,-14) scale(1,1)"><g><path fill="none" stroke="none"/><text fill="#000000" stroke="none" font-family="Arial" font-size="13px" font-style="normal" font-weight="normal" text-decoration="none" x="861" y="1029.5">-proofsButtonPressed()</text></g></g><g transform="translate(-118,-14) scale(1,1)"><rect fill="#C0C0C0" stroke="none" x="569" y="927" width="128" height="87" opacity="0.2"/></g><g transform="translate(-118,-14) scale(1,1)"><rect fill="#ffffff" stroke="none" x="562" y="920" width="128" height="87"/></g><g transform="translate(-118,-14) scale(1,1)"><path fill="none" stroke="#000000" d="M 562 920 L 690 920 L 690 1007 L 562 1007 L 562 920 Z Z" stroke-miterlimit="10"/></g><g transform="translate(-118,-14) scale(1,1)"><path fill="none" stroke="#000000" d="M 562 960 L 690 960" stroke-miterlimit="10"/></g><g transform="translate(-118,-14) scale(1,1)"><path fill="none" stroke="#000000" d="M 562 998 L 690 998" stroke-miterlimit="10"/></g><g transform="translate(-118,-14) scale(1,1)"><g><path fill="none" stroke="none"/><text fill="#000000" stroke="none" font-family="Arial" font-size="13px" font-style="normal" font-weight="bold" text-decoration="none" x="595" y="939.5">PlayerRow</text></g></g><g transform="translate(-118,-14) scale(1,1)"><g><path fill="none" stroke="none"/><text fill="#000000" stroke="none" font-family="Arial" font-size="13px" font-style="normal" font-weight="normal" text-decoration="none" x="566.5" y="954.5">(from SavedResults)</text></g></g><g transform="translate(-118,-14) scale(1,1)"><g><path fill="none" stroke="none"/><text fill="#000000" stroke="none" font-family="Arial" font-size="13px" font-style="normal" font-weight="normal" text-decoration="none" x="567" y="977.5">~NameLabel</text></g></g><g transform="translate(-118,-14) scale(1,1)"><g><path fill="none" stroke="none"/><text fill="#000000" stroke="none" font-family="Arial" font-size="13px" font-style="normal" font-weight="normal" text-decoration="none" x="567" y="992.5">~totalScoreLabel</text></g></g><g transform="translate(-118,-14) scale(1,1)"><rect fill="#C0C0C0" stroke="none" x="252" y="991" width="129" height="132" opacity="0.2"/></g><g transform="translate(-118,-14) scale(1,1)"><rect fill="#ffffff" stroke="none" x="245" y="984" width="129" height="132"/></g><g transform="translate(-118,-14) scale(1,1)"><path fill="none" stroke="#000000" d="M 245 984 L 374 984 L 374 1116 L 245 1116 L 245 984 Z Z" stroke-miterlimit="10"/></g><g transform="translate(-118,-14) scale(1,1)"><path fill="none" stroke="#000000" d="M 245 1024 L 374 1024" stroke-miterlimit="10"/></g><g transform="translate(-118,-14) scale(1,1)"><path fill="none" stroke="#000000" d="M 245 1107 L 374 1107" stroke-miterlimit="10"/></g><g transform="translate(-118,-14) scale(1,1)"><g><path fill="none" stroke="none"/><text fill="#000000" stroke="none" font-family="Arial" font-size="13px" font-style="normal" font-weight="bold" text-decoration="none" x="278.5" y="1003.5">ResultRow</text></g></g><g transform="translate(-118,-14) scale(1,1)"><g><path fill="none" stroke="none"/><text fill="#000000" stroke="none" font-family="Arial" font-size="13px" font-style="normal" font-weight="normal" text-decoration="none" x="250" y="1018.5">(from SavedResults)</text></g></g><g transform="translate(-118,-14) scale(1,1)"><g><path fill="none" stroke="none"/><text fill="#000000" stroke="none" font-family="Arial" font-size="13px" font-style="normal" font-weight="normal" text-decoration="none" x="250" y="1041.5">~namePathLabel</text></g></g><g transform="translate(-118,-14) scale(1,1)"><g><path fill="none" stroke="none"/><text fill="#000000" stroke="none" font-family="Arial" font-size="13px" font-style="normal" font-weight="normal" text-decoration="none" x="250" y="1056.5">~dateLabel</text></g></g><g transform="translate(-118,-14) scale(1,1)"><g><path fill="none" stroke="none"/><text fill="#000000" stroke="none" font-family="Arial" font-size="13px" font-style="normal" font-weight="normal" text-decoration="none" x="250" y="1071.5">~buildingLabel</text></g></g><g transform="translate(-118,-14) scale(1,1)"><g><path fill="none" stroke="none"/><text fill="#000000" stroke="none" font-family="Arial" font-size="13px" font-style="normal" font-weight="normal" text-decoration="none" x="250" y="1086.5">~totalPathTimeLabel</text></g></g><g transform="translate(-118,-14) scale(1,1)"><g><path fill="none" stroke="none"/><text fill="#000000" stroke="none" font-family="Arial" font-size="13px" font-style="normal" font-weight="normal" text-decoration="none" x="250" y="1101.5">~totalScoreLabel</text></g></g><g transform="translate(-118,-14) scale(1,1)"><path fill="#C0C0C0" stroke="none" d="M 396 482 C 396 471.5065888 404.5065888 463 415 463 C 425.4934112 463 434 471.5065888 434 482 C 434 492.4934112 425.4934112 501 415 501 C 404.5065888 501 396 492.4934112 396 482 Z" opacity="0.2"/></g><g transform="translate(-118,-14) scale(1,1)"><path fill="#ffffff" stroke="none" d="M 389 475 C 389 464.5065888 397.5065888 456 408 456 C 418.4934112 456 427 464.5065888 427 475 C 427 485.4934112 418.4934112 494 408 494 C 397.5065888 494 389 485.4934112 389 475 Z"/></g><g transform="translate(-118,-14) scale(1,1)"><path fill="none" stroke="#000000" d="M 389 475 C 389 464.5065888 397.5065888 456 408 456 C 418.4934112 456 427 464.5065888 427 475 C 427 485.4934112 418.4934112 494 408 494 C 397.5065888 494 389 485.4934112 389 475 Z" stroke-miterlimit="10"/></g><g transform="translate(-118,-14) scale(1,1)"><path fill="none" stroke="#000000" d="M 312 534 L 504 534" stroke-miterlimit="10"/></g><g transform="translate(-118,-14) scale(1,1)"><g><path fill="none" stroke="none"/><text fill="#000000" stroke="none" font-family="Arial" font-size="13px" font-style="normal" font-weight="bold" text-decoration="none" x="328" y="513.5">SavedResultsViewDelegate</text></g></g><g transform="translate(-118,-14) scale(1,1)"><g><path fill="none" stroke="none"/><text fill="#000000" stroke="none" font-family="Arial" font-size="13px" font-style="normal" font-weight="normal" text-decoration="none" x="348.5" y="528.5">(from SavedResults)</text></g></g><g transform="translate(-118,-14) scale(1,1)"><g><path fill="none" stroke="none"/><text fill="#000000" stroke="none" font-family="Arial" font-size="13px" font-style="normal" font-weight="normal" text-decoration="none" x="317" y="551.5">~loginButtonPressed()</text></g></g><g transform="translate(-118,-14) scale(1,1)"><g><path fill="none" stroke="none"/><text fill="#000000" stroke="none" font-family="Arial" font-size="13px" font-style="normal" font-weight="normal" text-decoration="none" x="317" y="566.5">~resultRowDidPressed(atIndex)</text></g></g><g transform="translate(-118,-14) scale(1,1)"><path fill="#C0C0C0" stroke="none" d="M 1124 482 C 1124 471.5065888 1132.5065888 463 1143 463 C 1153.4934112 463 1162 471.5065888 1162 482 C 1162 492.4934112 1153.4934112 501 1143 501 C 1132.5065888 501 1124 492.4934112 1124 482 Z" opacity="0.2"/></g><g transform="translate(-118,-14) scale(1,1)"><path fill="#ffffff" stroke="none" d="M 1117 475 C 1117 464.5065888 1125.5065888 456 1136 456 C 1146.4934112 456 1155 464.5065888 1155 475 C 1155 485.4934112 1146.4934112 494 1136 494 C 1125.5065888 494 1117 485.4934112 1117 475 Z"/></g><g transform="translate(-118,-14) scale(1,1)"><path fill="none" stroke="#000000" d="M 1117 475 C 1117 464.5065888 1125.5065888 456 1136 456 C 1146.4934112 456 1155 464.5065888 1155 475 C 1155 485.4934112 1146.4934112 494 1136 494 C 1125.5065888 494 1117 485.4934112 1117 475 Z" stroke-miterlimit="10"/></g><g transform="translate(-118,-14) scale(1,1)"><path fill="none" stroke="#000000" d="M 1048 534 L 1224 534" stroke-miterlimit="10"/></g><g transform="translate(-118,-14) scale(1,1)"><g><path fill="none" stroke="none"/><text fill="#000000" stroke="none" font-family="Arial" font-size="13px" font-style="normal" font-weight="bold" text-decoration="none" x="1078" y="513.5">ResultViewDelegate</text></g></g><g transform="translate(-118,-14) scale(1,1)"><g><path fill="none" stroke="none"/><text fill="#000000" stroke="none" font-family="Arial" font-size="13px" font-style="normal" font-weight="normal" text-decoration="none" x="1076.5" y="528.5">(from SavedResults)</text></g></g><g transform="translate(-118,-14) scale(1,1)"><g><path fill="none" stroke="none"/><text fill="#000000" stroke="none" font-family="Arial" font-size="13px" font-style="normal" font-weight="normal" text-decoration="none" x="1053" y="551.5">~rankingButtonPressed()</text></g></g><g transform="translate(-118,-14) scale(1,1)"><g><path fill="none" stroke="none"/><text fill="#000000" stroke="none" font-family="Arial" font-size="13px" font-style="normal" font-weight="normal" text-decoration="none" x="1053" y="566.5">~saveResultButtonPressed()</text></g></g><g transform="translate(-118,-14) scale(1,1)"><g><path fill="none" stroke="none"/><text fill="#000000" stroke="none" font-family="Arial" font-size="13px" font-style="normal" font-weight="normal" text-decoration="none" x="1053" y="581.5">~proofsButtonPressed()</text></g></g><g transform="translate(-118,-14) scale(1,1)"><path fill="#C0C0C0" stroke="none" d="M 703.5 482 C 703.5 471.5065888 712.0065888 463 722.5 463 C 732.9934112 463 741.5 471.5065888 741.5 482 C 741.5 492.4934112 732.9934112 501 722.5 501 C 712.0065888 501 703.5 492.4934112 703.5 482 Z" opacity="0.2"/></g><g transform="translate(-118,-14) scale(1,1)"><path fill="#ffffff" stroke="none" d="M 696.5 475 C 696.5 464.5065888 705.0065888 456 715.5 456 C 725.9934112 456 734.5 464.5065888 734.5 475 C 734.5 485.4934112 725.9934112 494 715.5 494 C 705.0065888 494 696.5 485.4934112 696.5 475 Z"/></g><g transform="translate(-118,-14) scale(1,1)"><path fill="none" stroke="#000000" d="M 696.5 475 C 696.5 464.5065888 705.0065888 456 715.5 456 C 725.9934112 456 734.5 464.5065888 734.5 475 C 734.5 485.4934112 725.9934112 494 715.5 494 C 705.0065888 494 696.5 485.4934112 696.5 475 Z" stroke-miterlimit="10"/></g><g transform="translate(-118,-14) scale(1,1)"><path fill="none" stroke="#000000" d="M 644 534 L 787 534" stroke-miterlimit="10"/></g><g transform="translate(-118,-14) scale(1,1)"><g><path fill="none" stroke="none"/><text fill="#000000" stroke="none" font-family="Arial" font-size="13px" font-style="normal" font-weight="bold" text-decoration="none" x="652.5" y="513.5">RankingViewDelegate</text></g></g><g transform="translate(-118,-14) scale(1,1)"><g><path fill="none" stroke="none"/><text fill="#000000" stroke="none" font-family="Arial" font-size="13px" font-style="normal" font-weight="normal" text-decoration="none" x="656" y="528.5">(from SavedResults)</text></g></g><g transform="translate(-118,-14) scale(1,1)"><g><path fill="none" stroke="none"/><text fill="#000000" stroke="none" font-family="Arial" font-size="13px" font-style="normal" font-weight="normal" text-decoration="none" x="649" y="551.5">~highlightPlayer()</text></g></g><g transform="translate(-118,-14) scale(1,1)"><path fill="none" stroke="#000000" d="M 340 738 L 390 573" stroke-miterlimit="10"/></g><g transform="translate(-118,-14) scale(1,1)"><path fill="none" stroke="#000000" d="M 644 738 L 699 558" stroke-miterlimit="10"/></g><g transform="translate(-118,-14) scale(1,1)"><path fill="none" stroke="#000000" d="M 1026 738 L 1102 588" stroke-miterlimit="10"/></g><g transform="translate(-118,-14) scale(1,1)"><path fill="none" stroke="#000000" d="M 309 247 L 389 457.72727272727275" stroke-miterlimit="10"/></g><g transform="translate(-118,-14) scale(1,1)"><path fill="none" stroke="#000000" d="M 640 232 L 701.7 456" stroke-miterlimit="10"/></g><g transform="translate(-118,-14) scale(1,1)"><path fill="none" stroke="#000000" d="M 989 262 L 1117 465" stroke-miterlimit="10"/></g><g transform="translate(-118,-14) scale(1,1)"><path fill="none" stroke="#000000" d="M 309 983 L 309 945" stroke-miterlimit="10"/></g><g transform="translate(-118,-14) scale(1,1)"><path fill="#000000" stroke="none" d="M 313.209517756016 955.1626748576241 L 309 945 L 304.790482243984 955.1626748576241 L 309 967"/></g><g transform="translate(-118,-14) scale(1,1)"><path fill="none" stroke="#000000" d="M 313.209517756016 955.1626748576241 L 309 945 L 304.790482243984 955.1626748576241 L 309 967 L 313.209517756016 955.1626748576241" stroke-miterlimit="10"/></g><g transform="translate(-118,-14) scale(1,1)"><path fill="none" stroke="#000000" d="M 626 919 L 626 855" stroke-miterlimit="10"/></g><g transform="translate(-118,-14) scale(1,1)"><path fill="#000000" stroke="none" d="M 630.209517756016 865.1626748576241 L 626 855 L 621.790482243984 865.1626748576241 L 626 877"/></g><g transform="translate(-118,-14) scale(1,1)"><path fill="none" stroke="#000000" d="M 630.209517756016 865.1626748576241 L 626 855 L 621.790482243984 865.1626748576241 L 626 877 L 630.209517756016 865.1626748576241" stroke-miterlimit="10"/></g><g transform="translate(-118,-14) scale(1,1)"><path fill="none" stroke="#000000" d="M 306 738 L 289 247" stroke-miterlimit="10"/></g><g transform="translate(-118,-14) scale(1,1)"><path fill="#FFFFFF" stroke="none" d="M 293.5586507001579 257.01092921730793 L 289 247 L 285.14465688760544 257.3022487586794 L 289.7612546474015 268.98682540436"/></g><g transform="translate(-118,-14) scale(1,1)"><path fill="none" stroke="#000000" d="M 293.5586507001579 257.01092921730793 L 289 247 L 285.14465688760544 257.3022487586794 L 289.7612546474015 268.98682540436 L 293.5586507001579 257.01092921730793" stroke-miterlimit="10"/></g><g transform="translate(-118,-14) scale(1,1)"><path fill="none" stroke="#000000" d="M 626 738 L 626 232" stroke-miterlimit="10"/></g><g transform="translate(-118,-14) scale(1,1)"><path fill="#FFFFFF" stroke="none" d="M 630.209517756016 242.16267485762415 L 626 232 L 621.790482243984 242.16267485762415 L 626 254"/></g><g transform="translate(-118,-14) scale(1,1)"><path fill="none" stroke="#000000" d="M 630.209517756016 242.16267485762415 L 626 232 L 621.790482243984 242.16267485762415 L 626 254 L 630.209517756016 242.16267485762415" stroke-miterlimit="10"/></g><g transform="translate(-118,-14) scale(1,1)"><path fill="none" stroke="#000000" d="M 951 738 L 951 262" stroke-miterlimit="10"/></g><g transform="translate(-118,-14) scale(1,1)"><path fill="#FFFFFF" stroke="none" d="M 955.209517756016 272.16267485762415 L 951 262 L 946.790482243984 272.16267485762415 L 951 284"/></g><g transform="translate(-118,-14) scale(1,1)"><path fill="none" stroke="#000000" d="M 955.209517756016 272.16267485762415 L 951 262 L 946.790482243984 272.16267485762415 L 951 284 L 955.209517756016 272.16267485762415" stroke-miterlimit="10"/></g></g></svg>