<svg version="1.1" xmlns="http://www.w3.org/2000/svg" xmlns:xlink="http://www.w3.org/1999/xlink" width="790" height="317"><defs/><g><g transform="translate(-140,-198) scale(1,1)"><rect fill="#C0C0C0" stroke="none" x="157" y="215" width="308" height="15" opacity="0.2"/></g><g transform="translate(-140,-198) scale(1,1)"><rect fill="#C0C0C0" stroke="none" x="157" y="229" width="770" height="283" opacity="0.2"/></g><g transform="translate(-140,-198) scale(1,1)"><rect fill="#ffffff" stroke="none" x="150" y="223" width="770" height="282"/></g><g transform="translate(-140,-198) scale(1,1)"><path fill="none" stroke="#000000" d="M 150 223 L 920 223 L 920 505 L 150 505 L 150 223 Z Z" stroke-miterlimit="10"/></g><g transform="translate(-140,-198) scale(1,1)"><rect fill="#ffffff" stroke="none" x="150" y="208" width="308" height="15"/></g><g transform="translate(-140,-198) scale(1,1)"><path fill="none" stroke="#000000" d="M 150 208 L 458 208 L 458 223 L 150 223 L 150 208 Z Z" stroke-miterlimit="10"/></g><g transform="translate(-140,-198) scale(1,1)"><rect fill="#ffffff" stroke="none" x="150" y="222" width="770" height="283"/></g><g transform="translate(-140,-198) scale(1,1)"><path fill="none" stroke="#000000" d="M 150 222 L 920 222 L 920 505 L 150 505 L 150 222 Z Z" stroke-miterlimit="10"/></g><g transform="translate(-140,-198) scale(1,1)"><g><path fill="none" stroke="none"/><text fill="#000000" stroke="none" font-family="Arial" font-size="13px" font-style="normal" font-weight="bold" text-decoration="none" x="497.5" y="242.5">pathprogress</text></g></g><g transform="translate(-140,-198) scale(1,1)"><g><path fill="none" stroke="none"/><text fill="#000000" stroke="none" font-family="Arial" font-size="13px" font-style="normal" font-weight="normal" text-decoration="none" x="500.5" y="257.5">(from client)</text></g></g><g transform="translate(-140,-198) scale(1,1)"><rect fill="#C0C0C0" stroke="none" x="203" y="274" width="335" height="220" opacity="0.2"/></g><g transform="translate(-140,-198) scale(1,1)"><rect fill="#ffffff" stroke="none" x="196" y="267" width="335" height="220"/></g><g transform="translate(-140,-198) scale(1,1)"><path fill="none" stroke="#000000" d="M 196 267 L 531 267 L 531 487 L 196 487 L 196 267 Z Z" stroke-miterlimit="10"/></g><g transform="translate(-140,-198) scale(1,1)"><path fill="none" stroke="#000000" d="M 196 292 L 531 292" stroke-miterlimit="10"/></g><g transform="translate(-140,-198) scale(1,1)"><path fill="none" stroke="#000000" d="M 196 360 L 531 360" stroke-miterlimit="10"/></g><g transform="translate(-140,-198) scale(1,1)"><g><path fill="none" stroke="none"/><text fill="#000000" stroke="none" font-family="Arial" font-size="13px" font-style="normal" font-weight="bold" text-decoration="none" x="296.5" y="286.5">PathProgressController</text></g></g><g transform="translate(-140,-198) scale(1,1)"><g><path fill="none" stroke="none"/><text fill="#000000" stroke="none" font-family="Arial" font-size="13px" font-style="normal" font-weight="normal" text-decoration="none" x="201" y="309.5">-pathProgress: PathProgress {readOnly}</text></g></g><g transform="translate(-140,-198) scale(1,1)"><g><path fill="none" stroke="none"/><text fill="#000000" stroke="none" font-family="Arial" font-size="13px" font-style="normal" font-weight="normal" text-decoration="none" x="201" y="324.5">-completed: Bool</text></g></g><g transform="translate(-140,-198) scale(1,1)"><g><path fill="none" stroke="none"/><text fill="#000000" stroke="none" font-family="Arial" font-size="13px" font-style="normal" font-weight="normal" text-decoration="none" x="201" y="339.5">-pathLocationManager: PathLocationManager {readOnly}</text></g></g><g transform="translate(-140,-198) scale(1,1)"><g><path fill="none" stroke="none"/><text fill="#000000" stroke="none" font-family="Arial" font-size="13px" font-style="normal" font-weight="normal" text-decoration="none" x="201" y="354.5">+searchDelegate: PathSearchDelegate?</text></g></g><g transform="translate(-140,-198) scale(1,1)"><g><path fill="none" stroke="none"/><text fill="#000000" stroke="none" font-family="Arial" font-size="13px" font-style="normal" font-weight="normal" text-decoration="none" x="201" y="377.5">+addProofResult(result: ProofResult)</text></g></g><g transform="translate(-140,-198) scale(1,1)"><g><path fill="none" stroke="none"/><text fill="#000000" stroke="none" font-family="Arial" font-size="13px" font-style="normal" font-weight="normal" text-decoration="none" x="201" y="392.5">+getPathProgress(): PathProgress</text></g></g><g transform="translate(-140,-198) scale(1,1)"><g><path fill="none" stroke="none"/><text fill="#000000" stroke="none" font-family="Arial" font-size="13px" font-style="normal" font-weight="normal" text-decoration="none" x="201" y="407.5">+PathProgressController(path, startTime: Date)</text></g></g><g transform="translate(-140,-198) scale(1,1)"><g><path fill="none" stroke="none"/><text fill="#000000" stroke="none" font-family="Arial" font-size="13px" font-style="normal" font-weight="normal" text-decoration="none" x="201" y="422.5">+complete(endTime: Date)</text></g></g><g transform="translate(-140,-198) scale(1,1)"><g><path fill="none" stroke="none"/><text fill="#000000" stroke="none" font-family="Arial" font-size="13px" font-style="normal" font-weight="normal" text-decoration="none" x="201" y="437.5">+isCompleted(): Bool</text></g></g><g transform="translate(-140,-198) scale(1,1)"><g><path fill="none" stroke="none"/><text fill="#000000" stroke="none" font-family="Arial" font-size="13px" font-style="normal" font-weight="normal" text-decoration="none" x="201" y="452.5">+getPathResult(): PathResult?</text></g></g><g transform="translate(-140,-198) scale(1,1)"><g><path fill="none" stroke="none"/><text fill="#000000" stroke="none" font-family="Arial" font-size="13px" font-style="normal" font-weight="normal" text-decoration="none" x="201" y="467.5">-getCurrentActivity(): Activity</text></g></g><g transform="translate(-140,-198) scale(1,1)"><g><path fill="none" stroke="none"/><text fill="#000000" stroke="none" font-family="Arial" font-size="13px" font-style="normal" font-weight="normal" text-decoration="none" x="201" y="482.5">+didFoundBeacon(beacon: Beacon)</text></g></g><g transform="translate(-140,-198) scale(1,1)"><path fill="#C0C0C0" stroke="none" d="M 745 306 C 745 295.5065888 753.5065888 287 764 287 C 774.4934112 287 783 295.5065888 783 306 C 783 316.4934112 774.4934112 325 764 325 C 753.5065888 325 745 316.4934112 745 306 Z" opacity="0.2"/></g><g transform="translate(-140,-198) scale(1,1)"><path fill="#ffffff" stroke="none" d="M 738 299 C 738 288.5065888 746.5065888 280 757 280 C 767.4934112 280 776 288.5065888 776 299 C 776 309.4934112 767.4934112 318 757 318 C 746.5065888 318 738 309.4934112 738 299 Z"/></g><g transform="translate(-140,-198) scale(1,1)"><path fill="none" stroke="#000000" d="M 738 299 C 738 288.5065888 746.5065888 280 757 280 C 767.4934112 280 776 288.5065888 776 299 C 776 309.4934112 767.4934112 318 757 318 C 746.5065888 318 738 309.4934112 738 299 Z" stroke-miterlimit="10"/></g><g transform="translate(-140,-198) scale(1,1)"><path fill="none" stroke="#000000" d="M 632 343 L 882 343" stroke-miterlimit="10"/></g><g transform="translate(-140,-198) scale(1,1)"><g><path fill="none" stroke="none"/><text fill="#000000" stroke="none" font-family="Arial" font-size="13px" font-style="normal" font-weight="bold" text-decoration="none" x="697.5" y="337.5">PathSearchDelegate</text></g></g><g transform="translate(-140,-198) scale(1,1)"><g><path fill="none" stroke="none"/><text fill="#000000" stroke="none" font-family="Arial" font-size="13px" font-style="normal" font-weight="normal" text-decoration="none" x="637" y="360.5">+didRangeStep(step: Step)</text></g></g><g transform="translate(-140,-198) scale(1,1)"><g><path fill="none" stroke="none"/><text fill="#000000" stroke="none" font-family="Arial" font-size="13px" font-style="normal" font-weight="normal" text-decoration="none" x="637" y="375.5">+didRangeProximity(proximity: Proximity)</text></g></g><g transform="translate(-140,-198) scale(1,1)"><path fill="none" stroke="#000000" d="M 781 381 L 781 398 M 781 398 A 8 8 0 0 1 773 406 L 531 406" stroke-miterlimit="10"/></g></g></svg>