<svg version="1.1" xmlns="http://www.w3.org/2000/svg" xmlns:xlink="http://www.w3.org/1999/xlink" width="1064" height="721"><defs/><g><g transform="translate(-18,-33) scale(1,1)"><rect fill="#C0C0C0" stroke="none" x="35" y="50" width="417.6" height="15" opacity="0.2"/></g><g transform="translate(-18,-33) scale(1,1)"><rect fill="#C0C0C0" stroke="none" x="35" y="64" width="1044" height="687" opacity="0.2"/></g><g transform="translate(-18,-33) scale(1,1)"><rect fill="#ffffff" stroke="none" x="28" y="58" width="1044" height="686"/></g><g transform="translate(-18,-33) scale(1,1)"><path fill="none" stroke="#000000" d="M 28 58 L 1072 58 L 1072 744 L 28 744 L 28 58 Z Z" stroke-miterlimit="10"/></g><g transform="translate(-18,-33) scale(1,1)"><rect fill="#ffffff" stroke="none" x="28" y="43" width="417.6" height="15"/></g><g transform="translate(-18,-33) scale(1,1)"><path fill="none" stroke="#000000" d="M 28 43 L 445.6 43 L 445.6 58 L 28 58 L 28 43 Z Z" stroke-miterlimit="10"/></g><g transform="translate(-18,-33) scale(1,1)"><rect fill="#ffffff" stroke="none" x="28" y="57" width="1044" height="687"/></g><g transform="translate(-18,-33) scale(1,1)"><path fill="none" stroke="#000000" d="M 28 57 L 1072 57 L 1072 744 L 28 744 L 28 57 Z Z" stroke-miterlimit="10"/></g><g transform="translate(-18,-33) scale(1,1)"><g><path fill="none" stroke="none"/><text fill="#000000" stroke="none" font-family="Arial" font-size="13px" font-style="normal" font-weight="bold" text-decoration="none" x="527.5" y="77.5">location</text></g></g><g transform="translate(-18,-33) scale(1,1)"><g><path fill="none" stroke="none"/><text fill="#000000" stroke="none" font-family="Arial" font-size="13px" font-style="normal" font-weight="normal" text-decoration="none" x="515.5" y="92.5">(from client)</text></g></g><g transform="translate(-18,-33) scale(1,1)"><rect fill="#C0C0C0" stroke="none" x="255" y="591" width="398.23193359375" height="145" opacity="0.2"/></g><g transform="translate(-18,-33) scale(1,1)"><rect fill="#ffffff" stroke="none" x="248" y="584" width="398.23193359375" height="145"/></g><g transform="translate(-18,-33) scale(1,1)"><path fill="none" stroke="#000000" d="M 248 584 L 646.23193359375 584 L 646.23193359375 729 L 248 729 L 248 584 Z Z" stroke-miterlimit="10"/></g><g transform="translate(-18,-33) scale(1,1)"><path fill="none" stroke="#000000" d="M 248 609 L 646.23193359375 609" stroke-miterlimit="10"/></g><g transform="translate(-18,-33) scale(1,1)"><path fill="none" stroke="#000000" d="M 248 677 L 646.23193359375 677" stroke-miterlimit="10"/></g><g transform="translate(-18,-33) scale(1,1)"><g><path fill="none" stroke="none"/><text fill="#000000" stroke="none" font-family="Arial" font-size="13px" font-style="normal" font-weight="bold" text-decoration="none" x="384.115966796875" y="603.5">PathLocationManager</text></g></g><g transform="translate(-18,-33) scale(1,1)"><g><path fill="none" stroke="none"/><text fill="#000000" stroke="none" font-family="Arial" font-size="13px" font-style="normal" font-weight="normal" text-decoration="none" x="253" y="626.5">-beaconMonitor: BeaconMonitor {readOnly}</text></g></g><g transform="translate(-18,-33) scale(1,1)"><g><path fill="none" stroke="none"/><text fill="#000000" stroke="none" font-family="Arial" font-size="13px" font-style="normal" font-weight="normal" text-decoration="none" x="253" y="641.5">-gpsMonitor: GPSMonitor {readOnly}</text></g></g><g transform="translate(-18,-33) scale(1,1)"><g><path fill="none" stroke="none"/><text fill="#000000" stroke="none" font-family="Arial" font-size="13px" font-style="normal" font-weight="normal" text-decoration="none" x="253" y="656.5">-monitoredPath: Path {readOnly}</text></g></g><g transform="translate(-18,-33) scale(1,1)"><g><path fill="none" stroke="none"/><text fill="#000000" stroke="none" font-family="Arial" font-size="13px" font-style="normal" font-weight="normal" text-decoration="none" x="253" y="671.5">+delegate: PathLocationDelegate</text></g></g><g transform="translate(-18,-33) scale(1,1)"><g><path fill="none" stroke="none"/><text fill="#000000" stroke="none" font-family="Arial" font-size="13px" font-style="normal" font-weight="normal" text-decoration="none" x="253" y="694.5">+LocationManager(path: Path, delegate: PathLocationDelegate)</text></g></g><g transform="translate(-18,-33) scale(1,1)"><g><path fill="none" stroke="none"/><text fill="#000000" stroke="none" font-family="Arial" font-size="13px" font-style="normal" font-weight="normal" text-decoration="none" x="253" y="709.5">+startMonitoringForPath(path: Path)</text></g></g><g transform="translate(-18,-33) scale(1,1)"><g><path fill="none" stroke="none"/><text fill="#000000" stroke="none" font-family="Arial" font-size="13px" font-style="normal" font-weight="normal" text-decoration="none" x="253" y="724.5">+stopMonitoringForPath(path: Path)</text></g></g><g transform="translate(-18,-33) scale(1,1)"><rect fill="#C0C0C0" stroke="none" x="247" y="375" width="86.44140625" height="44" opacity="0.2"/></g><g transform="translate(-18,-33) scale(1,1)"><rect fill="#ffffff" stroke="none" x="240" y="368" width="86.44140625" height="44"/></g><g transform="translate(-18,-33) scale(1,1)"><path fill="none" stroke="#000000" d="M 240 368 L 326.44140625 368 L 326.44140625 412 L 240 412 L 240 368 Z Z" stroke-miterlimit="10"/></g><g transform="translate(-18,-33) scale(1,1)"><path fill="none" stroke="#000000" d="M 240 393 L 326.44140625 393" stroke-miterlimit="10"/></g><g transform="translate(-18,-33) scale(1,1)"><path fill="none" stroke="#000000" d="M 240 403 L 326.44140625 403" stroke-miterlimit="10"/></g><g transform="translate(-18,-33) scale(1,1)"><g><path fill="none" stroke="none"/><text fill="#000000" stroke="none" font-family="Arial" font-size="13px" font-style="normal" font-weight="bold" text-decoration="none" x="247.720703125" y="387.5">GPSMonitor</text></g></g><g transform="translate(-18,-33) scale(1,1)"><rect fill="#C0C0C0" stroke="none" x="791" y="120" width="269.8935546875" height="115" opacity="0.2"/></g><g transform="translate(-18,-33) scale(1,1)"><rect fill="#C0C0C0" stroke="none" x="980.8935546875" y="87" width="89" height="37" opacity="0.2"/></g><g transform="translate(-18,-33) scale(1,1)"><rect fill="#ffffff" stroke="none" x="784" y="113" width="269.8935546875" height="115"/></g><g transform="translate(-18,-33) scale(1,1)"><path fill="none" stroke="#000000" d="M 784 113 L 1053.8935546875 113 L 1053.8935546875 228 L 784 228 L 784 113 Z Z" stroke-miterlimit="10"/></g><g transform="translate(-18,-33) scale(1,1)"><path fill="none" stroke="#000000" d="M 784 138 L 1053.8935546875 138" stroke-miterlimit="10"/></g><g transform="translate(-18,-33) scale(1,1)"><path fill="none" stroke="#000000" d="M 784 176 L 1053.8935546875 176" stroke-miterlimit="10"/></g><g transform="translate(-18,-33) scale(1,1)"><g><path fill="none" stroke="none"/><text fill="#000000" stroke="none" font-family="Arial" font-size="13px" font-style="italic" font-weight="bold" text-decoration="none" x="872.94677734375" y="132.5">LocationMonitor</text></g></g><g transform="translate(-18,-33) scale(1,1)"><g><path fill="none" stroke="none"/><text fill="#000000" stroke="none" font-family="Arial" font-size="13px" font-style="normal" font-weight="normal" text-decoration="none" x="789" y="155.5">~delegate: DelegateType</text></g></g><g transform="translate(-18,-33) scale(1,1)"><g><path fill="none" stroke="none"/><text fill="#000000" stroke="none" font-family="Arial" font-size="13px" font-style="normal" font-weight="normal" text-decoration="none" x="789" y="170.5">~monitoredRegions: List&lt;RegionType&gt;</text></g></g><g transform="translate(-18,-33) scale(1,1)"><g><path fill="none" stroke="none"/><text fill="#000000" stroke="none" font-family="Arial" font-size="13px" font-style="normal" font-weight="normal" text-decoration="none" x="789" y="193.5">~isAuthorized(): Bool</text></g></g><g transform="translate(-18,-33) scale(1,1)"><g><path fill="none" stroke="none"/><text fill="#000000" stroke="none" font-family="Arial" font-size="13px" font-style="italic" font-weight="normal" text-decoration="none" x="789" y="208.5">~addRegion(region: RegionType)</text></g></g><g transform="translate(-18,-33) scale(1,1)"><g><path fill="none" stroke="none"/><text fill="#000000" stroke="none" font-family="Arial" font-size="13px" font-style="italic" font-weight="normal" text-decoration="none" x="789" y="223.5">~removeRegion(region: RegionType)</text></g></g><g transform="translate(-18,-33) scale(1,1)"><rect fill="#ffffff" stroke="none" x="973.8935546875" y="80" width="89" height="37"/></g><g transform="translate(-18,-33) scale(1,1)"><path fill="none" stroke="#000000" d="M 973.8935546875 80 L 1062.8935546875 80 L 1062.8935546875 117 L 973.8935546875 117 L 973.8935546875 80 Z Z" stroke-miterlimit="10" stroke-dasharray="3"/></g><g transform="translate(-18,-33) scale(1,1)"><g><path fill="none" stroke="none"/><text fill="#000000" stroke="none" font-family="Arial" font-size="13px" font-style="normal" font-weight="normal" text-decoration="none" x="978.8935546875" y="97.5">DelegateType</text></g></g><g transform="translate(-18,-33) scale(1,1)"><g><path fill="none" stroke="none"/><text fill="#000000" stroke="none" font-family="Arial" font-size="13px" font-style="normal" font-weight="normal" text-decoration="none" x="978.8935546875" y="112.5">RegionType</text></g></g><g transform="translate(-18,-33) scale(1,1)"><path fill="none" stroke="#000000" d="M 304 368 L 304 192 M 304 192 A 8 8 0 0 1 312 184 L 784 184" stroke-miterlimit="10"/></g><g transform="translate(-18,-33) scale(1,1)"><path fill="#FFFFFF" stroke="none" d="M 763.6746502847517 192.41903551203197 L 784 184 L 763.6746502847517 175.58096448796803"/></g><g transform="translate(-18,-33) scale(1,1)"><path fill="none" stroke="#000000" d="M 763.6746502847517 192.41903551203197 L 784 184 L 763.6746502847517 175.58096448796803 L 763.6746502847517 192.41903551203197" stroke-miterlimit="10"/></g><g transform="translate(-18,-33) scale(1,1)"><rect fill="#C0C0C0" stroke="none" x="391" y="375" width="108.556640625" height="44" opacity="0.2"/></g><g transform="translate(-18,-33) scale(1,1)"><rect fill="#ffffff" stroke="none" x="384" y="368" width="108.556640625" height="44"/></g><g transform="translate(-18,-33) scale(1,1)"><path fill="none" stroke="#000000" d="M 384 368 L 492.556640625 368 L 492.556640625 412 L 384 412 L 384 368 Z Z" stroke-miterlimit="10"/></g><g transform="translate(-18,-33) scale(1,1)"><path fill="none" stroke="#000000" d="M 384 393 L 492.556640625 393" stroke-miterlimit="10"/></g><g transform="translate(-18,-33) scale(1,1)"><path fill="none" stroke="#000000" d="M 384 403 L 492.556640625 403" stroke-miterlimit="10"/></g><g transform="translate(-18,-33) scale(1,1)"><g><path fill="none" stroke="none"/><text fill="#000000" stroke="none" font-family="Arial" font-size="13px" font-style="normal" font-weight="bold" text-decoration="none" x="394.7783203125" y="387.5">BeaconMonitor</text></g></g><g transform="translate(-18,-33) scale(1,1)"><path fill="#C0C0C0" stroke="none" d="M 563.5 242 C 563.5 231.5065888 572.0065888 223 582.5 223 C 592.9934112 223 601.5 231.5065888 601.5 242 C 601.5 252.4934112 592.9934112 261 582.5 261 C 572.0065888 261 563.5 252.4934112 563.5 242 Z" opacity="0.2"/></g><g transform="translate(-18,-33) scale(1,1)"><path fill="#ffffff" stroke="none" d="M 556.5 235 C 556.5 224.5065888 565.0065888 216 575.5 216 C 585.9934112 216 594.5 224.5065888 594.5 235 C 594.5 245.4934112 585.9934112 254 575.5 254 C 565.0065888 254 556.5 245.4934112 556.5 235 Z"/></g><g transform="translate(-18,-33) scale(1,1)"><path fill="none" stroke="#000000" d="M 556.5 235 C 556.5 224.5065888 565.0065888 216 575.5 216 C 585.9934112 216 594.5 224.5065888 594.5 235 C 594.5 245.4934112 585.9934112 254 575.5 254 C 565.0065888 254 556.5 245.4934112 556.5 235 Z" stroke-miterlimit="10"/></g><g transform="translate(-18,-33) scale(1,1)"><path fill="none" stroke="#000000" d="M 376 279 L 775 279" stroke-miterlimit="10"/></g><g transform="translate(-18,-33) scale(1,1)"><g><path fill="none" stroke="none"/><text fill="#000000" stroke="none" font-family="Arial" font-size="13px" font-style="normal" font-weight="bold" text-decoration="none" x="506.5" y="273.5">BeaconMonitorDelegate</text></g></g><g transform="translate(-18,-33) scale(1,1)"><g><path fill="none" stroke="none"/><text fill="#000000" stroke="none" font-family="Arial" font-size="13px" font-style="normal" font-weight="normal" text-decoration="none" x="381" y="296.5">~didEnterBeaconRegion(rawBeacon: RawBeacon)</text></g></g><g transform="translate(-18,-33) scale(1,1)"><g><path fill="none" stroke="none"/><text fill="#000000" stroke="none" font-family="Arial" font-size="13px" font-style="normal" font-weight="normal" text-decoration="none" x="381" y="311.5">~didExitBeaconRegion(rawBeacon: RawBeacon)</text></g></g><g transform="translate(-18,-33) scale(1,1)"><g><path fill="none" stroke="none"/><text fill="#000000" stroke="none" font-family="Arial" font-size="13px" font-style="normal" font-weight="normal" text-decoration="none" x="381" y="326.5">~didRangeBeacon(rawBeacon: RawBeacon)</text></g></g><g transform="translate(-18,-33) scale(1,1)"><path fill="#C0C0C0" stroke="none" d="M 389 90 C 389 79.5065888 397.5065888 71 408 71 C 418.4934112 71 427 79.5065888 427 90 C 427 100.4934112 418.4934112 109 408 109 C 397.5065888 109 389 100.4934112 389 90 Z" opacity="0.2"/></g><g transform="translate(-18,-33) scale(1,1)"><path fill="#ffffff" stroke="none" d="M 382 83 C 382 72.5065888 390.5065888 64 401 64 C 411.4934112 64 420 72.5065888 420 83 C 420 93.4934112 411.4934112 102 401 102 C 390.5065888 102 382 93.4934112 382 83 Z"/></g><g transform="translate(-18,-33) scale(1,1)"><path fill="none" stroke="#000000" d="M 382 83 C 382 72.5065888 390.5065888 64 401 64 C 411.4934112 64 420 72.5065888 420 83 C 420 93.4934112 411.4934112 102 401 102 C 390.5065888 102 382 93.4934112 382 83 Z" stroke-miterlimit="10"/></g><g transform="translate(-18,-33) scale(1,1)"><path fill="none" stroke="#000000" d="M 200 127 L 602 127" stroke-miterlimit="10"/></g><g transform="translate(-18,-33) scale(1,1)"><g><path fill="none" stroke="none"/><text fill="#000000" stroke="none" font-family="Arial" font-size="13px" font-style="normal" font-weight="bold" text-decoration="none" x="340" y="121.5">GPSMonitorDelegate</text></g></g><g transform="translate(-18,-33) scale(1,1)"><g><path fill="none" stroke="none"/><text fill="#000000" stroke="none" font-family="Arial" font-size="13px" font-style="normal" font-weight="normal" text-decoration="none" x="205" y="144.5">~didEnterRegion(rawBeacon: RawRegion)</text></g></g><g transform="translate(-18,-33) scale(1,1)"><g><path fill="none" stroke="none"/><text fill="#000000" stroke="none" font-family="Arial" font-size="13px" font-style="normal" font-weight="normal" text-decoration="none" x="205" y="159.5">~didExitRegion(rawBeacon: RawRegion)</text></g></g><g transform="translate(-18,-33) scale(1,1)"><path fill="#C0C0C0" stroke="none" d="M 868.794189453125 634 C 868.794189453125 623.5065888 877.300778253125 615 887.794189453125 615 C 898.287600653125 615 906.794189453125 623.5065888 906.794189453125 634 C 906.794189453125 644.4934112 898.287600653125 653 887.794189453125 653 C 877.300778253125 653 868.794189453125 644.4934112 868.794189453125 634 Z" opacity="0.2"/></g><g transform="translate(-18,-33) scale(1,1)"><path fill="#ffffff" stroke="none" d="M 861.794189453125 627 C 861.794189453125 616.5065888 870.300778253125 608 880.794189453125 608 C 891.287600653125 608 899.794189453125 616.5065888 899.794189453125 627 C 899.794189453125 637.4934112 891.287600653125 646 880.794189453125 646 C 870.300778253125 646 861.794189453125 637.4934112 861.794189453125 627 Z"/></g><g transform="translate(-18,-33) scale(1,1)"><path fill="none" stroke="#000000" d="M 861.794189453125 627 C 861.794189453125 616.5065888 870.300778253125 608 880.794189453125 608 C 891.287600653125 608 899.794189453125 616.5065888 899.794189453125 627 C 899.794189453125 637.4934112 891.287600653125 646 880.794189453125 646 C 870.300778253125 646 861.794189453125 637.4934112 861.794189453125 627 Z" stroke-miterlimit="10"/></g><g transform="translate(-18,-33) scale(1,1)"><path fill="none" stroke="#000000" d="M 768 671 L 993.58837890625 671" stroke-miterlimit="10"/></g><g transform="translate(-18,-33) scale(1,1)"><g><path fill="none" stroke="none"/><text fill="#000000" stroke="none" font-family="Arial" font-size="13px" font-style="normal" font-weight="bold" text-decoration="none" x="817.294189453125" y="665.5">PathLocationDelegate</text></g></g><g transform="translate(-18,-33) scale(1,1)"><g><path fill="none" stroke="none"/><text fill="#000000" stroke="none" font-family="Arial" font-size="13px" font-style="normal" font-weight="normal" text-decoration="none" x="773" y="688.5">+didFoundBeacon(beacon: Beacon)</text></g></g><g transform="translate(-18,-33) scale(1,1)"><path fill="none" stroke="#000000" d="M 288 368 L 288 165" stroke-miterlimit="10"/></g><g transform="translate(-18,-33) scale(1,1)"><path fill="none" stroke="#000000" d="M 448 368 L 448 332" stroke-miterlimit="10"/></g><g transform="translate(-18,-33) scale(1,1)"><path fill="none" stroke="#000000" d="M 280 412 L 280 584" stroke-miterlimit="10"/></g><g transform="translate(-18,-33) scale(1,1)"><path fill="#FFFFFF" stroke="none" d="M 275.790482243984 573.8373251423759 L 280 584 L 284.209517756016 573.8373251423759 L 280 562"/></g><g transform="translate(-18,-33) scale(1,1)"><path fill="none" stroke="#000000" d="M 275.790482243984 573.8373251423759 L 280 584 L 284.209517756016 573.8373251423759 L 280 562 L 275.790482243984 573.8373251423759" stroke-miterlimit="10"/></g><g transform="translate(-18,-33) scale(1,1)"><path fill="none" stroke="#000000" d="M 435 412 L 435 584" stroke-miterlimit="10"/></g><g transform="translate(-18,-33) scale(1,1)"><path fill="#FFFFFF" stroke="none" d="M 430.790482243984 573.8373251423759 L 435 584 L 439.209517756016 573.8373251423759 L 435 562"/></g><g transform="translate(-18,-33) scale(1,1)"><path fill="none" stroke="#000000" d="M 430.790482243984 573.8373251423759 L 435 584 L 439.209517756016 573.8373251423759 L 435 562 L 430.790482243984 573.8373251423759" stroke-miterlimit="10"/></g><g transform="translate(-18,-33) scale(1,1)"><path fill="none" stroke="#000000" d="M 493 392 L 840 392 M 840 392 A 8 8 0 0 0 848 384 L 848 228" stroke-miterlimit="10"/></g><g transform="translate(-18,-33) scale(1,1)"><path fill="#FFFFFF" stroke="none" d="M 856.419035512032 248.3253497152483 L 848 228 L 839.580964487968 248.3253497152483"/></g><g transform="translate(-18,-33) scale(1,1)"><path fill="none" stroke="#000000" d="M 856.419035512032 248.3253497152483 L 848 228 L 839.580964487968 248.3253497152483 L 856.419035512032 248.3253497152483" stroke-miterlimit="10"/></g><g transform="translate(-18,-33) scale(1,1)"><path fill="none" stroke="#000000" d="M 646 656 L 768 656" stroke-miterlimit="10"/></g><g transform="translate(-18,-33) scale(1,1)"><path fill="none" stroke="#000000" d="M 352 584 L 352 243 M 352 243 A 8 8 0 0 1 360 235 L 556.5 235" stroke-miterlimit="10"/></g><g transform="translate(-18,-33) scale(1,1)"><path fill="none" stroke="#000000" d="M 248 624 L 48 624 M 48 624 A 8 8 0 0 1 40 616 L 40 91 M 40 91 A 8 8 0 0 1 48 83 L 382 83" stroke-miterlimit="10"/></g><g transform="translate(-18,-33) scale(1,1)"><rect fill="#C0C0C0" stroke="none" x="55" y="199" width="235" height="100" opacity="0.2"/></g><g transform="translate(-18,-33) scale(1,1)"><rect fill="#ffffff" stroke="none" x="48" y="192" width="235" height="100"/></g><g transform="translate(-18,-33) scale(1,1)"><path fill="none" stroke="#000000" d="M 48 192 L 283 192 L 283 292 L 48 292 L 48 192 Z Z" stroke-miterlimit="10"/></g><g transform="translate(-18,-33) scale(1,1)"><path fill="none" stroke="#000000" d="M 48 217 L 283 217" stroke-miterlimit="10"/></g><g transform="translate(-18,-33) scale(1,1)"><path fill="none" stroke="#000000" d="M 48 270 L 283 270" stroke-miterlimit="10"/></g><g transform="translate(-18,-33) scale(1,1)"><g><path fill="none" stroke="none"/><text fill="#000000" stroke="none" font-family="Arial" font-size="13px" font-style="normal" font-weight="bold" text-decoration="none" x="133" y="211.5">RawRegion</text></g></g><g transform="translate(-18,-33) scale(1,1)"><g><path fill="none" stroke="none"/><text fill="#000000" stroke="none" font-family="Arial" font-size="13px" font-style="normal" font-weight="normal" text-decoration="none" x="53" y="234.5">~latitude: Double</text></g></g><g transform="translate(-18,-33) scale(1,1)"><g><path fill="none" stroke="none"/><text fill="#000000" stroke="none" font-family="Arial" font-size="13px" font-style="normal" font-weight="normal" text-decoration="none" x="53" y="249.5">~longitude: Double</text></g></g><g transform="translate(-18,-33) scale(1,1)"><g><path fill="none" stroke="none"/><text fill="#000000" stroke="none" font-family="Arial" font-size="13px" font-style="normal" font-weight="normal" text-decoration="none" x="53" y="264.5">~radius: Double</text></g></g><g transform="translate(-18,-33) scale(1,1)"><g><path fill="none" stroke="none"/><text fill="#000000" stroke="none" font-family="Arial" font-size="13px" font-style="normal" font-weight="normal" text-decoration="none" x="53" y="287.5">~RawRegion(latitude, longitude, radius)</text></g></g><g transform="translate(-18,-33) scale(1,1)"><rect fill="#C0C0C0" stroke="none" x="519" y="471" width="214.2451171875" height="100" opacity="0.2"/></g><g transform="translate(-18,-33) scale(1,1)"><rect fill="#ffffff" stroke="none" x="512" y="464" width="214.2451171875" height="100"/></g><g transform="translate(-18,-33) scale(1,1)"><path fill="none" stroke="#000000" d="M 512 464 L 726.2451171875 464 L 726.2451171875 564 L 512 564 L 512 464 Z Z" stroke-miterlimit="10"/></g><g transform="translate(-18,-33) scale(1,1)"><path fill="none" stroke="#000000" d="M 512 489 L 726.2451171875 489" stroke-miterlimit="10"/></g><g transform="translate(-18,-33) scale(1,1)"><path fill="none" stroke="#000000" d="M 512 542 L 726.2451171875 542" stroke-miterlimit="10"/></g><g transform="translate(-18,-33) scale(1,1)"><g><path fill="none" stroke="none"/><text fill="#000000" stroke="none" font-family="Arial" font-size="13px" font-style="normal" font-weight="bold" text-decoration="none" x="584.62255859375" y="483.5">RawBeacon</text></g></g><g transform="translate(-18,-33) scale(1,1)"><g><path fill="none" stroke="none"/><text fill="#000000" stroke="none" font-family="Arial" font-size="13px" font-style="normal" font-weight="normal" text-decoration="none" x="517" y="506.5">~UUID: String</text></g></g><g transform="translate(-18,-33) scale(1,1)"><g><path fill="none" stroke="none"/><text fill="#000000" stroke="none" font-family="Arial" font-size="13px" font-style="normal" font-weight="normal" text-decoration="none" x="517" y="521.5">~major: Int</text></g></g><g transform="translate(-18,-33) scale(1,1)"><g><path fill="none" stroke="none"/><text fill="#000000" stroke="none" font-family="Arial" font-size="13px" font-style="normal" font-weight="normal" text-decoration="none" x="517" y="536.5">~minor: Int</text></g></g><g transform="translate(-18,-33) scale(1,1)"><g><path fill="none" stroke="none"/><text fill="#000000" stroke="none" font-family="Arial" font-size="13px" font-style="normal" font-weight="normal" text-decoration="none" x="517" y="559.5">~RawBeacon(UUID, major, minor)</text></g></g><g transform="translate(-18,-33) scale(1,1)"><path fill="none" stroke="#000000" d="M 512 504 L 478 504 M 478 504 A 8 8 0 0 1 470 496 L 470 412" stroke-miterlimit="10"/></g><g transform="translate(-18,-33) scale(1,1)"><path fill="#FFFFFF" stroke="none" d="M 474.209517756016 422.16267485762415 L 470 412 L 465.790482243984 422.16267485762415 L 470 434"/></g><g transform="translate(-18,-33) scale(1,1)"><path fill="none" stroke="#000000" d="M 474.209517756016 422.16267485762415 L 470 412 L 465.790482243984 422.16267485762415 L 470 434 L 474.209517756016 422.16267485762415" stroke-miterlimit="10"/></g><g transform="translate(-18,-33) scale(1,1)"><path fill="none" stroke="#000000" d="M 248 368 L 248 292" stroke-miterlimit="10"/></g><g transform="translate(-18,-33) scale(1,1)"><path fill="#FFFFFF" stroke="none" d="M 252.209517756016 302.16267485762415 L 248 292 L 243.790482243984 302.16267485762415 L 248 314"/></g><g transform="translate(-18,-33) scale(1,1)"><path fill="none" stroke="#000000" d="M 252.209517756016 302.16267485762415 L 248 292 L 243.790482243984 302.16267485762415 L 248 314 L 252.209517756016 302.16267485762415" stroke-miterlimit="10"/></g></g></svg>